<svg width="455" height="162" viewBox="0 0 455 162" fill="none" xmlns="http://www.w3.org/2000/svg">
<circle cx="9" cy="77" r="8" fill="#FFF3E0" stroke="#FFB74D" stroke-width="2"/>
<circle cx="233" cy="77" r="8" fill="#FFF3E0" stroke="#FFB74D" stroke-width="2"/>
<circle cx="339" cy="39" r="8" fill="#FFF3E0" stroke="#FFB74D" stroke-width="2"/>
<circle cx="49" cy="77" r="8" fill="#FFF3E0" stroke="#FFB74D" stroke-width="2"/>
<circle cx="274" cy="77" r="8" fill="#FFF3E0" stroke="#FFB74D" stroke-width="2"/>
<circle cx="297.849" cy="113.72" r="8" transform="rotate(15 297.849 113.72)" fill="#FFF3E0" stroke="#FFB74D" stroke-width="2"/>
<circle cx="320.028" cy="150.721" r="8" transform="rotate(15 320.028 150.721)" fill="#FFF3E0" stroke="#FFB74D" stroke-width="2"/>
<circle cx="355" cy="77" r="8" fill="#FFF3E0" stroke="#FFB74D" stroke-width="2"/>
<path d="M22 76.5C21.7239 76.5 21.5 76.7239 21.5 77C21.5 77.2761 21.7239 77.5 22 77.5V76.5ZM36.3536 77.3536C36.5488 77.1583 36.5488 76.8417 36.3536 76.6464L33.1716 73.4645C32.9763 73.2692 32.6597 73.2692 32.4645 73.4645C32.2692 73.6597 32.2692 73.9763 32.4645 74.1716L35.2929 77L32.4645 79.8284C32.2692 80.0237 32.2692 80.3403 32.4645 80.5355C32.6597 80.7308 32.9763 80.7308 33.1716 80.5355L36.3536 77.3536ZM22 77V77.5H36V77V76.5H22V77Z" fill="black"/>
<path d="M246 76.5C245.724 76.5 245.5 76.7239 245.5 77C245.5 77.2761 245.724 77.5 246 77.5V76.5ZM261.354 77.3536C261.549 77.1583 261.549 76.8417 261.354 76.6464L258.172 73.4645C257.976 73.2692 257.66 73.2692 257.464 73.4645C257.269 73.6597 257.269 73.9763 257.464 74.1716L260.293 77L257.464 79.8284C257.269 80.0237 257.269 80.3403 257.464 80.5355C257.66 80.7308 257.976 80.7308 258.172 80.5355L261.354 77.3536ZM246 77V77.5H261V77V76.5H246V77Z" fill="black"/>
<path d="M327 76.5C326.724 76.5 326.5 76.7239 326.5 77C326.5 77.2761 326.724 77.5 327 77.5V76.5ZM342.354 77.3536C342.549 77.1583 342.549 76.8417 342.354 76.6464L339.172 73.4645C338.976 73.2692 338.66 73.2692 338.464 73.4645C338.269 73.6597 338.269 73.9763 338.464 74.1716L341.293 77L338.464 79.8284C338.269 80.0237 338.269 80.3403 338.464 80.5355C338.66 80.7308 338.976 80.7308 339.172 80.5355L342.354 77.3536ZM327 77V77.5H342V77V76.5H327V77Z" fill="black"/>
<circle cx="88" cy="77" r="8" fill="#FFF3E0" stroke="#FFB74D" stroke-width="2"/>
<circle cx="314" cy="77" r="8" fill="#FFF3E0" stroke="#FFB74D" stroke-width="2"/>
<circle cx="395" cy="77" r="8" fill="#FFF3E0" stroke="#FFB74D" stroke-width="2"/>
<path d="M61 76.5C60.7239 76.5 60.5 76.7239 60.5 77C60.5 77.2761 60.7239 77.5 61 77.5V76.5ZM76.3536 77.3536C76.5488 77.1583 76.5488 76.8417 76.3536 76.6464L73.1716 73.4645C72.9763 73.2692 72.6597 73.2692 72.4645 73.4645C72.2692 73.6597 72.2692 73.9763 72.4645 74.1716L75.2929 77L72.4645 79.8284C72.2692 80.0237 72.2692 80.3403 72.4645 80.5355C72.6597 80.7308 72.9763 80.7308 73.1716 80.5355L76.3536 77.3536ZM61 77V77.5H76V77V76.5H61V77Z" fill="black"/>
<path d="M287 76.5C286.724 76.5 286.5 76.7239 286.5 77C286.5 77.2761 286.724 77.5 287 77.5V76.5ZM301.354 77.3536C301.549 77.1583 301.549 76.8417 301.354 76.6464L298.172 73.4645C297.976 73.2692 297.66 73.2692 297.464 73.4645C297.269 73.6597 297.269 73.9763 297.464 74.1716L300.293 77L297.464 79.8284C297.269 80.0237 297.269 80.3403 297.464 80.5355C297.66 80.7308 297.976 80.7308 298.172 80.5355L301.354 77.3536ZM287 77V77.5H301V77V76.5H287V77Z" fill="black"/>
<path d="M368 76.5C367.724 76.5 367.5 76.7239 367.5 77C367.5 77.2761 367.724 77.5 368 77.5V76.5ZM382.354 77.3536C382.549 77.1583 382.549 76.8417 382.354 76.6464L379.172 73.4645C378.976 73.2692 378.66 73.2692 378.464 73.4645C378.269 73.6597 378.269 73.9763 378.464 74.1716L381.293 77L378.464 79.8284C378.269 80.0237 378.269 80.3403 378.464 80.5355C378.66 80.7308 378.976 80.7308 379.172 80.5355L382.354 77.3536ZM368 77V77.5H382V77V76.5H368V77Z" fill="black"/>
<circle cx="160" cy="46" r="8" fill="#FFF3E0" stroke="#FFB74D" stroke-width="2"/>
<circle cx="160" cy="107" r="8" fill="#FFF3E0" stroke="#FFB74D" stroke-width="2"/>
<path d="M132 45.5C131.724 45.5 131.5 45.7239 131.5 46C131.5 46.2761 131.724 46.5 132 46.5V45.5ZM146.354 46.3536C146.549 46.1583 146.549 45.8417 146.354 45.6464L143.172 42.4645C142.976 42.2692 142.66 42.2692 142.464 42.4645C142.269 42.6597 142.269 42.9763 142.464 43.1716L145.293 46L142.464 48.8284C142.269 49.0237 142.269 49.3403 142.464 49.5355C142.66 49.7308 142.976 49.7308 143.172 49.5355L146.354 46.3536ZM132 46V46.5H146V46V45.5H132V46Z" fill="black"/>
<path d="M132 106.5C131.724 106.5 131.5 106.724 131.5 107C131.5 107.276 131.724 107.5 132 107.5V106.5ZM146.354 107.354C146.549 107.158 146.549 106.842 146.354 106.646L143.172 103.464C142.976 103.269 142.66 103.269 142.464 103.464C142.269 103.66 142.269 103.976 142.464 104.172L145.293 107L142.464 109.828C142.269 110.024 142.269 110.34 142.464 110.536C142.66 110.731 142.976 110.731 143.172 110.536L146.354 107.354ZM132 107V107.5H146V107V106.5H132V107Z" fill="black"/>
<circle cx="201" cy="46" r="8" fill="#FFF3E0" stroke="#FFB74D" stroke-width="2"/>
<circle cx="314" cy="9" r="8" fill="#FFF3E0" stroke="#FFB74D" stroke-width="2"/>
<circle cx="201" cy="107" r="8" fill="#FFF3E0" stroke="#FFB74D" stroke-width="2"/>
<circle cx="119" cy="46" r="8" fill="#FFF3E0" stroke="#FFB74D" stroke-width="2"/>
<circle cx="119" cy="107" r="8" fill="#FFF3E0" stroke="#FFB74D" stroke-width="2"/>
<path d="M173 45.5C172.724 45.5 172.5 45.7239 172.5 46C172.5 46.2761 172.724 46.5 173 46.5V45.5ZM188.354 46.3536C188.549 46.1583 188.549 45.8417 188.354 45.6464L185.172 42.4645C184.976 42.2692 184.66 42.2692 184.464 42.4645C184.269 42.6597 184.269 42.9763 184.464 43.1716L187.293 46L184.464 48.8284C184.269 49.0237 184.269 49.3403 184.464 49.5355C184.66 49.7308 184.976 49.7308 185.172 49.5355L188.354 46.3536ZM173 46V46.5L188 46.5V46V45.5L173 45.5V46Z" fill="black"/>
<path d="M173 106.5C172.724 106.5 172.5 106.724 172.5 107C172.5 107.276 172.724 107.5 173 107.5V106.5ZM188.354 107.354C188.549 107.158 188.549 106.842 188.354 106.646L185.172 103.464C184.976 103.269 184.66 103.269 184.464 103.464C184.269 103.66 184.269 103.976 184.464 104.172L187.293 107L184.464 109.828C184.269 110.024 184.269 110.34 184.464 110.536C184.66 110.731 184.976 110.731 185.172 110.536L188.354 107.354ZM173 107V107.5H188V107V106.5H173V107Z" fill="black"/>
<path d="M97.7356 85.3498C97.5403 85.1546 97.2237 85.1546 97.0285 85.3498C96.8332 85.5451 96.8332 85.8617 97.0285 86.0569L97.7356 85.3498ZM107.583 96.4048C107.86 96.4048 108.083 96.1809 108.083 95.9048V91.4048C108.083 91.1286 107.86 90.9048 107.583 90.9048C107.307 90.9048 107.083 91.1286 107.083 91.4048V95.4048H103.083C102.807 95.4048 102.583 95.6286 102.583 95.9048C102.583 96.1809 102.807 96.4048 103.083 96.4048H107.583ZM97.382 85.7034L97.0285 86.0569L107.23 96.2583L107.583 95.9048L107.937 95.5512L97.7356 85.3498L97.382 85.7034Z" fill="black"/>
<path d="M283.433 87.75C283.295 87.5109 282.989 87.4289 282.75 87.567C282.511 87.7051 282.429 88.0109 282.567 88.25L283.433 87.75ZM290.084 100.977C290.351 101.049 290.625 100.89 290.696 100.624L291.861 96.2769C291.933 96.0101 291.774 95.736 291.508 95.6645C291.241 95.593 290.967 95.7513 290.895 96.018L289.86 99.8817L285.996 98.8465C285.729 98.775 285.455 98.9333 285.384 99.2C285.312 99.4668 285.471 99.7409 285.737 99.8124L290.084 100.977ZM283 88L282.567 88.25L289.78 100.744L290.213 100.494L290.646 100.244L283.433 87.75L283 88Z" fill="black"/>
<path d="M305.612 124.751C305.474 124.512 305.168 124.43 304.929 124.568C304.69 124.706 304.608 125.012 304.746 125.251L305.612 124.751ZM312.263 137.978C312.53 138.05 312.804 137.891 312.876 137.625L314.04 133.278C314.112 133.011 313.953 132.737 313.687 132.666C313.42 132.594 313.146 132.752 313.074 133.019L312.039 136.883L308.175 135.848C307.909 135.776 307.634 135.934 307.563 136.201C307.492 136.468 307.65 136.742 307.917 136.814L312.263 137.978ZM305.179 125.001L304.746 125.251L311.96 137.745L312.393 137.495L312.826 137.245L305.612 124.751L305.179 125.001Z" fill="black"/>
<path d="M210.266 57.2172C210.071 57.022 209.754 57.022 209.559 57.2172C209.364 57.4125 209.364 57.7291 209.559 57.9243L210.266 57.2172ZM220.114 68.2722C220.39 68.2722 220.614 68.0483 220.614 67.7722L220.614 63.2722C220.614 62.996 220.39 62.7722 220.114 62.7722C219.838 62.7722 219.614 62.996 219.614 63.2722V67.2722H215.614C215.338 67.2722 215.114 67.496 215.114 67.7722C215.114 68.0483 215.338 68.2722 215.614 68.2722H220.114ZM209.912 57.5708L209.559 57.9243L219.76 68.1257L220.114 67.7722L220.467 67.4186L210.266 57.2172L209.912 57.5708Z" fill="black"/>
<path d="M346.433 50.75C346.295 50.5109 345.989 50.4289 345.75 50.567C345.511 50.7051 345.429 51.0109 345.567 51.25L346.433 50.75ZM353.084 63.9771C353.351 64.0486 353.625 63.8903 353.696 63.6235L354.861 59.2769C354.933 59.0101 354.774 58.736 354.508 58.6645C354.241 58.593 353.967 58.7513 353.895 59.018L352.86 62.8817L348.996 61.8465C348.729 61.775 348.455 61.9333 348.384 62.2C348.312 62.4668 348.471 62.7409 348.737 62.8124L353.084 63.9771ZM346 51L345.567 51.25L352.78 63.7441L353.213 63.4941L353.646 63.2441L346.433 50.75L346 51Z" fill="black"/>
<path d="M323.354 17.6464C323.158 17.4512 322.842 17.4512 322.646 17.6464C322.451 17.8417 322.451 18.1583 322.646 18.3536L323.354 17.6464ZM333.201 28.7014C333.478 28.7014 333.701 28.4775 333.701 28.2014V23.7014C333.701 23.4253 333.478 23.2014 333.201 23.2014C332.925 23.2014 332.701 23.4253 332.701 23.7014V27.7014H328.701C328.425 27.7014 328.201 27.9253 328.201 28.2014C328.201 28.4775 328.425 28.7014 328.701 28.7014H333.201ZM323 18L322.646 18.3536L332.848 28.555L333.201 28.2014L333.555 27.8479L323.354 17.6464L323 18Z" fill="black"/>
<path d="M97.0285 67.4186C96.8332 67.6139 96.8332 67.9305 97.0285 68.1257C97.2237 68.321 97.5403 68.321 97.7356 68.1257L97.0285 67.4186ZM108.083 57.5708C108.083 57.2946 107.86 57.0708 107.583 57.0708H103.083C102.807 57.0708 102.583 57.2946 102.583 57.5708C102.583 57.8469 102.807 58.0708 103.083 58.0708H107.083V62.0708C107.083 62.3469 107.307 62.5708 107.583 62.5708C107.86 62.5708 108.083 62.3469 108.083 62.0708V57.5708ZM97.382 67.7722L97.7356 68.1257L107.937 57.9243L107.583 57.5708L107.23 57.2172L97.0285 67.4186L97.382 67.7722Z" fill="black"/>
<path d="M209.559 95.5512C209.364 95.7465 209.364 96.0631 209.559 96.2583C209.754 96.4536 210.071 96.4536 210.266 96.2583L209.559 95.5512ZM220.614 85.7034C220.614 85.4272 220.39 85.2034 220.114 85.2034H215.614C215.338 85.2034 215.114 85.4272 215.114 85.7034C215.114 85.9795 215.338 86.2034 215.614 86.2034H219.614V90.2034C219.614 90.4795 219.838 90.7034 220.114 90.7034C220.39 90.7034 220.614 90.4795 220.614 90.2034L220.614 85.7034ZM209.912 95.9048L210.266 96.2583L220.467 86.0569L220.114 85.7034L219.76 85.3498L209.559 95.5512L209.912 95.9048Z" fill="black"/>
<path d="M322.567 64.2441C322.429 64.4833 322.511 64.7891 322.75 64.9271C322.989 65.0652 323.295 64.9833 323.433 64.7441L322.567 64.2441ZM330.696 51.8706C330.625 51.6039 330.351 51.4456 330.084 51.517L325.737 52.6817C325.471 52.7532 325.312 53.0274 325.384 53.2941C325.455 53.5608 325.729 53.7191 325.996 53.6476L329.86 52.6124L330.895 56.4761C330.967 56.7428 331.241 56.9011 331.508 56.8296C331.774 56.7582 331.933 56.484 331.861 56.2173L330.696 51.8706ZM323 64.4941L323.433 64.7441L330.646 52.25L330.213 52L329.78 51.75L322.567 64.2441L323 64.4941Z" fill="black"/>
<path d="M313.5 65C313.5 65.2761 313.724 65.5 314 65.5C314.276 65.5 314.5 65.2761 314.5 65H313.5ZM314.354 22.6464C314.158 22.4512 313.842 22.4512 313.646 22.6464L310.464 25.8284C310.269 26.0237 310.269 26.3403 310.464 26.5355C310.66 26.7308 310.976 26.7308 311.172 26.5355L314 23.7071L316.828 26.5355C317.024 26.7308 317.34 26.7308 317.536 26.5355C317.731 26.3403 317.731 26.0237 317.536 25.8284L314.354 22.6464ZM314 65H314.5V23H314H313.5V65H314Z" fill="black"/>
<path d="M147 39L134 52" stroke="#E57373" stroke-linecap="round"/>
<path d="M134 39L147 52" stroke="#E57373" stroke-linecap="round"/>
<path d="M110.151 55L97.151 68" stroke="#E57373" stroke-linecap="round"/>
<path d="M97.151 55L110.151 68" stroke="#E57373" stroke-linecap="round"/>
<path d="M222.361 57.0189L209.361 70.0189" stroke="#E57373" stroke-linecap="round"/>
<path d="M209.361 57.0189L222.361 70.0189" stroke="#E57373" stroke-linecap="round"/>
<path d="M293 88L280 101" stroke="#E57373" stroke-linecap="round"/>
<path d="M280 88L293 101" stroke="#E57373" stroke-linecap="round"/>
<path d="M315 125L302 138" stroke="#E57373" stroke-linecap="round"/>
<path d="M302 125L315 138" stroke="#E57373" stroke-linecap="round"/>
<path d="M333 52L320 65" stroke="#E57373" stroke-linecap="round"/>
<path d="M320 52L333 65" stroke="#E57373" stroke-linecap="round"/>
<path d="M341 70L328 83" stroke="#E57373" stroke-linecap="round"/>
<path d="M328 70L341 83" stroke="#E57373" stroke-linecap="round"/>
<path d="M187 40L174 53" stroke="#E57373" stroke-linecap="round"/>
<path d="M174 40L187 53" stroke="#E57373" stroke-linecap="round"/>
<path d="M136.62 79.68H137.34C137.52 79.68 137.61 79.59 137.61 79.41V73.47C137.61 73.3767 137.587 73.31 137.54 73.27C137.5 73.2233 137.433 73.2 137.34 73.2H136.62V72.88H139.88C140.273 72.88 140.64 72.9533 140.98 73.1C141.327 73.2467 141.603 73.45 141.81 73.71C142.017 73.9633 142.12 74.2533 142.12 74.58C142.12 75.0333 141.967 75.4067 141.66 75.7C141.353 75.9933 140.997 76.1833 140.59 76.27V76.31C140.863 76.33 141.133 76.4167 141.4 76.57C141.673 76.7167 141.897 76.92 142.07 77.18C142.25 77.44 142.34 77.7333 142.34 78.06C142.34 78.4667 142.233 78.8167 142.02 79.11C141.807 79.4033 141.52 79.6267 141.16 79.78C140.807 79.9267 140.417 80 139.99 80H136.62V79.68ZM139.84 76.12C140.38 76.12 140.747 75.9833 140.94 75.71C141.14 75.43 141.24 75.0533 141.24 74.58C141.24 74.18 141.113 73.85 140.86 73.59C140.607 73.33 140.293 73.2 139.92 73.2H138.8C138.707 73.2 138.637 73.2233 138.59 73.27C138.55 73.31 138.53 73.3767 138.53 73.47V76.12H139.84ZM139.88 79.68C140.287 79.68 140.62 79.56 140.88 79.32C141.147 79.0733 141.28 78.6533 141.28 78.06C141.28 77.4667 141.147 77.05 140.88 76.81C140.62 76.5633 140.287 76.44 139.88 76.44H138.53V79.41C138.53 79.59 138.62 79.68 138.8 79.68H139.88ZM145.204 80.12C144.718 80.12 144.371 79.97 144.164 79.67C143.964 79.37 143.864 79.01 143.864 78.59V75.9C143.864 75.82 143.848 75.7633 143.814 75.73C143.781 75.6967 143.724 75.68 143.644 75.68H143.224V75.44H144.584V78.78C144.584 79.0733 144.641 79.3233 144.754 79.53C144.874 79.7367 145.074 79.84 145.354 79.84C145.588 79.84 145.794 79.76 145.974 79.6C146.161 79.4333 146.304 79.21 146.404 78.93C146.511 78.6433 146.564 78.3267 146.564 77.98V75.9C146.564 75.82 146.548 75.7633 146.514 75.73C146.481 75.6967 146.424 75.68 146.344 75.68H145.924V75.44H147.284V79.54C147.284 79.62 147.301 79.6767 147.334 79.71C147.368 79.7433 147.424 79.76 147.504 79.76H147.924V80H146.564V79.18L146.524 79.17C146.371 79.49 146.181 79.73 145.954 79.89C145.728 80.0433 145.478 80.12 145.204 80.12ZM151.126 80.12C150.859 80.12 150.613 80.03 150.386 79.85C150.159 79.67 149.979 79.4333 149.846 79.14H149.806L149.386 80H149.206V73.34C149.206 73.26 149.189 73.2033 149.156 73.17C149.123 73.1367 149.066 73.12 148.986 73.12H148.466V72.88H149.926V76.18L149.966 76.19C150.066 75.95 150.219 75.7467 150.426 75.58C150.633 75.4067 150.866 75.32 151.126 75.32C151.439 75.32 151.729 75.4267 151.996 75.64C152.269 75.8467 152.486 76.1333 152.646 76.5C152.806 76.8667 152.886 77.2733 152.886 77.72C152.886 78.1667 152.806 78.5733 152.646 78.94C152.486 79.3067 152.269 79.5967 151.996 79.81C151.729 80.0167 151.439 80.12 151.126 80.12ZM151.016 79.84C151.343 79.84 151.589 79.6567 151.756 79.29C151.923 78.9233 152.006 78.4 152.006 77.72C152.006 77.04 151.923 76.5167 151.756 76.15C151.589 75.7833 151.343 75.6 151.016 75.6C150.816 75.6 150.633 75.6733 150.466 75.82C150.299 75.9667 150.166 76.17 150.066 76.43C149.973 76.6833 149.926 76.96 149.926 77.26V78.18C149.926 78.48 149.973 78.76 150.066 79.02C150.166 79.2733 150.299 79.4733 150.466 79.62C150.633 79.7667 150.816 79.84 151.016 79.84ZM156.243 80.12C155.977 80.12 155.73 80.03 155.503 79.85C155.277 79.67 155.097 79.4333 154.963 79.14H154.923L154.503 80H154.323V73.34C154.323 73.26 154.307 73.2033 154.273 73.17C154.24 73.1367 154.183 73.12 154.103 73.12H153.583V72.88H155.043V76.18L155.083 76.19C155.183 75.95 155.337 75.7467 155.543 75.58C155.75 75.4067 155.983 75.32 156.243 75.32C156.557 75.32 156.847 75.4267 157.113 75.64C157.387 75.8467 157.603 76.1333 157.763 76.5C157.923 76.8667 158.003 77.2733 158.003 77.72C158.003 78.1667 157.923 78.5733 157.763 78.94C157.603 79.3067 157.387 79.5967 157.113 79.81C156.847 80.0167 156.557 80.12 156.243 80.12ZM156.133 79.84C156.46 79.84 156.707 79.6567 156.873 79.29C157.04 78.9233 157.123 78.4 157.123 77.72C157.123 77.04 157.04 76.5167 156.873 76.15C156.707 75.7833 156.46 75.6 156.133 75.6C155.933 75.6 155.75 75.6733 155.583 75.82C155.417 75.9667 155.283 76.17 155.183 76.43C155.09 76.6833 155.043 76.96 155.043 77.26V78.18C155.043 78.48 155.09 78.76 155.183 79.02C155.283 79.2733 155.417 79.4733 155.583 79.62C155.75 79.7667 155.933 79.84 156.133 79.84ZM158.76 79.76H159.28C159.36 79.76 159.417 79.7433 159.45 79.71C159.484 79.6767 159.5 79.62 159.5 79.54V73.34C159.5 73.26 159.484 73.2033 159.45 73.17C159.417 73.1367 159.36 73.12 159.28 73.12H158.76V72.88H160.22V79.54C160.22 79.62 160.237 79.6767 160.27 79.71C160.304 79.7433 160.36 79.76 160.44 79.76H160.96V80H158.76V79.76ZM163.716 80.12C163.096 80.12 162.596 79.91 162.216 79.49C161.842 79.07 161.656 78.4867 161.656 77.74C161.656 77.3133 161.739 76.9167 161.906 76.55C162.072 76.1767 162.302 75.88 162.596 75.66C162.896 75.4333 163.229 75.32 163.596 75.32C164.002 75.32 164.336 75.43 164.596 75.65C164.856 75.87 165.042 76.15 165.156 76.49C165.276 76.8233 165.336 77.1667 165.336 77.52C165.336 77.5933 165.312 77.6433 165.266 77.67C165.219 77.69 165.139 77.7 165.026 77.7H162.536C162.536 78.3667 162.629 78.8967 162.816 79.29C163.009 79.6833 163.322 79.88 163.756 79.88C164.062 79.88 164.349 79.7633 164.616 79.53C164.889 79.2967 165.062 78.9333 165.136 78.44H165.376C165.336 78.9267 165.166 79.33 164.866 79.65C164.572 79.9633 164.189 80.12 163.716 80.12ZM164.476 77.46C164.476 76.9267 164.406 76.4767 164.266 76.11C164.126 75.7433 163.896 75.56 163.576 75.56C163.236 75.56 162.976 75.7467 162.796 76.12C162.622 76.4867 162.536 76.9333 162.536 77.46H164.476ZM171.518 81.98C170.925 81.4333 170.448 80.76 170.088 79.96C169.735 79.1533 169.558 78.28 169.558 77.34C169.558 76.4 169.735 75.53 170.088 74.73C170.448 73.9233 170.925 73.2467 171.518 72.7L171.818 72.94C171.225 73.56 170.781 74.2333 170.488 74.96C170.201 75.6867 170.058 76.48 170.058 77.34C170.058 78.2 170.201 78.9933 170.488 79.72C170.781 80.4467 171.225 81.12 171.818 81.74L171.518 81.98ZM172.739 79.68H173.109C173.503 79.68 173.789 79.4367 173.969 78.95L176.119 72.88H176.369L178.539 79.24C178.606 79.4067 178.686 79.5233 178.779 79.59C178.873 79.65 178.993 79.68 179.139 79.68H179.699V80H176.599V79.68H177.259C177.359 79.68 177.443 79.6567 177.509 79.61C177.576 79.5567 177.609 79.4967 177.609 79.43C177.609 79.3433 177.596 79.27 177.569 79.21L177.099 77.88H174.759L174.519 78.55C174.426 78.8167 174.379 79.01 174.379 79.13C174.379 79.2767 174.416 79.4067 174.489 79.52C174.563 79.6267 174.689 79.68 174.869 79.68H175.479V80H172.739V79.68ZM174.869 77.56H176.989L175.949 74.51L174.869 77.56ZM180.396 81.74C180.989 81.12 181.429 80.4467 181.716 79.72C182.009 78.9933 182.156 78.2 182.156 77.34C182.156 76.48 182.009 75.6867 181.716 74.96C181.429 74.2333 180.989 73.56 180.396 72.94L180.696 72.7C181.289 73.2467 181.763 73.9233 182.116 74.73C182.476 75.53 182.656 76.4 182.656 77.34C182.656 78.28 182.476 79.1533 182.116 79.96C181.763 80.76 181.289 81.4333 180.696 81.98L180.396 81.74Z" fill="black"/>
<path d="M211.62 131.68H212.34C212.52 131.68 212.61 131.59 212.61 131.41V125.47C212.61 125.377 212.587 125.31 212.54 125.27C212.5 125.223 212.433 125.2 212.34 125.2H211.62V124.88H215.28C215.833 124.88 216.34 125.03 216.8 125.33C217.26 125.623 217.623 126.037 217.89 126.57C218.163 127.097 218.3 127.7 218.3 128.38C218.3 129.06 218.163 129.677 217.89 130.23C217.623 130.783 217.257 131.217 216.79 131.53C216.33 131.843 215.827 132 215.28 132H211.62V131.68ZM215.24 131.68C215.707 131.68 216.09 131.523 216.39 131.21C216.69 130.89 216.907 130.483 217.04 129.99C217.173 129.49 217.24 128.953 217.24 128.38C217.24 127.487 217.077 126.733 216.75 126.12C216.43 125.507 215.927 125.2 215.24 125.2H213.8C213.707 125.2 213.637 125.223 213.59 125.27C213.55 125.31 213.53 125.377 213.53 125.47V131.41C213.53 131.59 213.62 131.68 213.8 131.68H215.24ZM221.343 132.12C220.723 132.12 220.223 131.91 219.843 131.49C219.469 131.07 219.283 130.487 219.283 129.74C219.283 129.313 219.366 128.917 219.533 128.55C219.699 128.177 219.929 127.88 220.223 127.66C220.523 127.433 220.856 127.32 221.223 127.32C221.629 127.32 221.963 127.43 222.223 127.65C222.483 127.87 222.669 128.15 222.783 128.49C222.903 128.823 222.963 129.167 222.963 129.52C222.963 129.593 222.939 129.643 222.893 129.67C222.846 129.69 222.766 129.7 222.653 129.7H220.163C220.163 130.367 220.256 130.897 220.443 131.29C220.636 131.683 220.949 131.88 221.383 131.88C221.689 131.88 221.976 131.763 222.243 131.53C222.516 131.297 222.689 130.933 222.763 130.44H223.003C222.963 130.927 222.793 131.33 222.493 131.65C222.199 131.963 221.816 132.12 221.343 132.12ZM222.103 129.46C222.103 128.927 222.033 128.477 221.893 128.11C221.753 127.743 221.523 127.56 221.203 127.56C220.863 127.56 220.603 127.747 220.423 128.12C220.249 128.487 220.163 128.933 220.163 129.46H222.103ZM225.162 132.12C224.809 132.12 224.502 132.033 224.242 131.86C223.989 131.687 223.862 131.38 223.862 130.94C223.862 130.6 223.949 130.333 224.122 130.14C224.296 129.947 224.496 129.81 224.722 129.73C224.956 129.643 225.236 129.57 225.562 129.51L226.482 129.34V128.49C226.482 127.87 226.172 127.56 225.552 127.56C225.326 127.56 225.119 127.62 224.932 127.74C224.746 127.853 224.652 127.983 224.652 128.13C224.652 128.197 224.662 128.247 224.682 128.28C224.696 128.3 224.716 128.32 224.742 128.34C224.776 128.36 224.806 128.373 224.832 128.38C224.952 128.413 225.042 128.46 225.102 128.52C225.169 128.58 225.202 128.663 225.202 128.77C225.202 128.91 225.159 129.01 225.072 129.07C224.992 129.13 224.889 129.16 224.762 129.16C224.616 129.16 224.482 129.103 224.362 128.99C224.242 128.877 224.182 128.713 224.182 128.5C224.182 128.253 224.249 128.04 224.382 127.86C224.522 127.68 224.699 127.547 224.912 127.46C225.132 127.367 225.356 127.32 225.582 127.32C226.022 127.32 226.402 127.437 226.722 127.67C227.042 127.897 227.202 128.253 227.202 128.74V131.2C227.202 131.533 227.306 131.7 227.512 131.7C227.679 131.7 227.799 131.603 227.872 131.41C227.946 131.217 227.982 130.98 227.982 130.7H228.162C228.162 131.1 228.102 131.437 227.982 131.71C227.869 131.983 227.662 132.12 227.362 132.12C227.076 132.12 226.859 132.037 226.712 131.87C226.572 131.697 226.496 131.46 226.482 131.16L226.432 131.14C226.332 131.373 226.169 131.597 225.942 131.81C225.722 132.017 225.462 132.12 225.162 132.12ZM225.322 131.76C225.622 131.76 225.856 131.643 226.022 131.41C226.196 131.17 226.349 130.867 226.482 130.5V129.55L225.612 129.74C225.292 129.807 225.059 129.94 224.912 130.14C224.772 130.333 224.702 130.61 224.702 130.97C224.702 131.277 224.766 131.487 224.892 131.6C225.019 131.707 225.162 131.76 225.322 131.76ZM230.584 132.12C230.27 132.12 229.977 132.017 229.704 131.81C229.437 131.597 229.224 131.307 229.064 130.94C228.904 130.573 228.824 130.167 228.824 129.72C228.824 129.273 228.904 128.867 229.064 128.5C229.224 128.133 229.437 127.847 229.704 127.64C229.977 127.427 230.27 127.32 230.584 127.32C230.844 127.32 231.077 127.407 231.284 127.58C231.49 127.747 231.644 127.95 231.744 128.19L231.784 128.18V125.34C231.784 125.26 231.767 125.203 231.734 125.17C231.7 125.137 231.644 125.12 231.564 125.12H230.844V124.88H232.504V131.54C232.504 131.62 232.52 131.677 232.554 131.71C232.587 131.743 232.644 131.76 232.724 131.76H233.244V132H231.784V131.26L231.744 131.25C231.617 131.517 231.454 131.73 231.254 131.89C231.06 132.043 230.837 132.12 230.584 132.12ZM230.694 131.84C230.894 131.84 231.077 131.767 231.244 131.62C231.41 131.473 231.54 131.273 231.634 131.02C231.734 130.76 231.784 130.48 231.784 130.18V129.26C231.784 128.96 231.734 128.683 231.634 128.43C231.54 128.17 231.41 127.967 231.244 127.82C231.077 127.673 230.894 127.6 230.694 127.6C230.367 127.6 230.12 127.783 229.954 128.15C229.787 128.517 229.704 129.04 229.704 129.72C229.704 130.4 229.787 130.923 229.954 131.29C230.12 131.657 230.367 131.84 230.694 131.84ZM234.168 129.76V129.2H236.668V129.76H234.168ZM239.81 132.12C239.19 132.12 238.69 131.91 238.31 131.49C237.936 131.07 237.75 130.487 237.75 129.74C237.75 129.313 237.833 128.917 238 128.55C238.166 128.177 238.396 127.88 238.69 127.66C238.99 127.433 239.323 127.32 239.69 127.32C240.096 127.32 240.43 127.43 240.69 127.65C240.95 127.87 241.136 128.15 241.25 128.49C241.37 128.823 241.43 129.167 241.43 129.52C241.43 129.593 241.406 129.643 241.36 129.67C241.313 129.69 241.233 129.7 241.12 129.7H238.63C238.63 130.367 238.723 130.897 238.91 131.29C239.103 131.683 239.416 131.88 239.85 131.88C240.156 131.88 240.443 131.763 240.71 131.53C240.983 131.297 241.156 130.933 241.23 130.44H241.47C241.43 130.927 241.26 131.33 240.96 131.65C240.666 131.963 240.283 132.12 239.81 132.12ZM240.57 129.46C240.57 128.927 240.5 128.477 240.36 128.11C240.22 127.743 239.99 127.56 239.67 127.56C239.33 127.56 239.07 127.747 238.89 128.12C238.716 128.487 238.63 128.933 238.63 129.46H240.57ZM242.249 131.76H242.669C242.749 131.76 242.806 131.743 242.839 131.71C242.872 131.677 242.889 131.62 242.889 131.54V127.9C242.889 127.82 242.872 127.763 242.839 127.73C242.806 127.697 242.749 127.68 242.669 127.68H242.249V127.44H243.609V128.26L243.649 128.27C243.802 127.95 243.992 127.713 244.219 127.56C244.446 127.4 244.696 127.32 244.969 127.32C245.456 127.32 245.799 127.47 245.999 127.77C246.206 128.07 246.309 128.43 246.309 128.85V131.54C246.309 131.62 246.326 131.677 246.359 131.71C246.392 131.743 246.449 131.76 246.529 131.76H246.949V132H244.949V131.76H245.369C245.449 131.76 245.506 131.743 245.539 131.71C245.572 131.677 245.589 131.62 245.589 131.54V128.66C245.589 128.367 245.529 128.117 245.409 127.91C245.296 127.703 245.099 127.6 244.819 127.6C244.586 127.6 244.376 127.683 244.189 127.85C244.009 128.01 243.866 128.233 243.759 128.52C243.659 128.8 243.609 129.113 243.609 129.46V131.54C243.609 131.62 243.626 131.677 243.659 131.71C243.692 131.743 243.749 131.76 243.829 131.76H244.249V132H242.249V131.76ZM249.51 132.12C249.196 132.12 248.903 132.017 248.63 131.81C248.363 131.597 248.15 131.307 247.99 130.94C247.83 130.573 247.75 130.167 247.75 129.72C247.75 129.273 247.83 128.867 247.99 128.5C248.15 128.133 248.363 127.847 248.63 127.64C248.903 127.427 249.196 127.32 249.51 127.32C249.77 127.32 250.003 127.407 250.21 127.58C250.416 127.747 250.57 127.95 250.67 128.19L250.71 128.18V125.34C250.71 125.26 250.693 125.203 250.66 125.17C250.626 125.137 250.57 125.12 250.49 125.12H249.77V124.88H251.43V131.54C251.43 131.62 251.446 131.677 251.48 131.71C251.513 131.743 251.57 131.76 251.65 131.76H252.17V132H250.71V131.26L250.67 131.25C250.543 131.517 250.38 131.73 250.18 131.89C249.986 132.043 249.763 132.12 249.51 132.12ZM249.62 131.84C249.82 131.84 250.003 131.767 250.17 131.62C250.336 131.473 250.466 131.273 250.56 131.02C250.66 130.76 250.71 130.48 250.71 130.18V129.26C250.71 128.96 250.66 128.683 250.56 128.43C250.466 128.17 250.336 127.967 250.17 127.82C250.003 127.673 249.82 127.6 249.62 127.6C249.293 127.6 249.046 127.783 248.88 128.15C248.713 128.517 248.63 129.04 248.63 129.72C248.63 130.4 248.713 130.923 248.88 131.29C249.046 131.657 249.293 131.84 249.62 131.84ZM253.054 133.98L256.034 124.7H256.434L253.454 133.98H253.054ZM258.976 131.68H259.936C260.116 131.68 260.206 131.59 260.206 131.41V125.44C260.206 125.347 260.186 125.28 260.146 125.24C260.106 125.193 260.036 125.17 259.936 125.17H259.576C259.156 125.17 258.793 125.383 258.486 125.81C258.293 126.083 258.163 126.427 258.096 126.84C258.029 127.247 257.996 127.547 257.996 127.74H257.716L257.796 124.88H263.536L263.616 127.74H263.336C263.336 127.547 263.303 127.247 263.236 126.84C263.169 126.427 263.039 126.083 262.846 125.81C262.539 125.383 262.176 125.17 261.756 125.17H261.396C261.296 125.17 261.226 125.193 261.186 125.24C261.146 125.28 261.126 125.347 261.126 125.44V131.41C261.126 131.59 261.216 131.68 261.396 131.68H262.356V132H258.976V131.68ZM265.455 126.2C265.308 126.2 265.185 126.15 265.085 126.05C264.985 125.95 264.935 125.827 264.935 125.68C264.935 125.527 264.985 125.403 265.085 125.31C265.185 125.21 265.308 125.16 265.455 125.16C265.608 125.16 265.731 125.21 265.825 125.31C265.925 125.403 265.975 125.527 265.975 125.68C265.975 125.827 265.925 125.95 265.825 126.05C265.731 126.15 265.608 126.2 265.455 126.2ZM264.515 131.76H264.935C265.015 131.76 265.071 131.743 265.105 131.71C265.138 131.677 265.155 131.62 265.155 131.54V127.9C265.155 127.82 265.138 127.763 265.105 127.73C265.071 127.697 265.015 127.68 264.935 127.68H264.515V127.44H265.875V131.54C265.875 131.62 265.891 131.677 265.925 131.71C265.958 131.743 266.015 131.76 266.095 131.76H266.515V132H264.515V131.76ZM267.11 134.06H267.63C267.71 134.06 267.767 134.043 267.8 134.01C267.833 133.977 267.85 133.92 267.85 133.84V127.9C267.85 127.82 267.833 127.763 267.8 127.73C267.767 127.697 267.71 127.68 267.63 127.68H267.11V127.44H268.57V128.18L268.61 128.19C268.737 127.923 268.897 127.713 269.09 127.56C269.29 127.4 269.517 127.32 269.77 127.32C270.083 127.32 270.373 127.427 270.64 127.64C270.913 127.847 271.13 128.133 271.29 128.5C271.45 128.867 271.53 129.273 271.53 129.72C271.53 130.167 271.45 130.573 271.29 130.94C271.13 131.307 270.913 131.597 270.64 131.81C270.373 132.017 270.083 132.12 269.77 132.12C269.51 132.12 269.277 132.037 269.07 131.87C268.863 131.697 268.71 131.49 268.61 131.25L268.57 131.26V133.84C268.57 133.92 268.587 133.977 268.62 134.01C268.653 134.043 268.71 134.06 268.79 134.06H269.31V134.3H267.11V134.06ZM269.66 131.84C269.987 131.84 270.233 131.657 270.4 131.29C270.567 130.923 270.65 130.4 270.65 129.72C270.65 129.04 270.567 128.517 270.4 128.15C270.233 127.783 269.987 127.6 269.66 127.6C269.46 127.6 269.277 127.673 269.11 127.82C268.943 127.967 268.81 128.17 268.71 128.43C268.617 128.683 268.57 128.96 268.57 129.26V130.18C268.57 130.48 268.617 130.76 268.71 131.02C268.81 131.273 268.943 131.473 269.11 131.62C269.277 131.767 269.46 131.84 269.66 131.84ZM277.749 133.98C277.155 133.433 276.679 132.76 276.319 131.96C275.965 131.153 275.789 130.28 275.789 129.34C275.789 128.4 275.965 127.53 276.319 126.73C276.679 125.923 277.155 125.247 277.749 124.7L278.049 124.94C277.455 125.56 277.012 126.233 276.719 126.96C276.432 127.687 276.289 128.48 276.289 129.34C276.289 130.2 276.432 130.993 276.719 131.72C277.012 132.447 277.455 133.12 278.049 133.74L277.749 133.98ZM279.13 131.68H279.85C280.03 131.68 280.12 131.59 280.12 131.41V125.47C280.12 125.377 280.096 125.31 280.05 125.27C280.01 125.223 279.943 125.2 279.85 125.2H279.13V124.88H282.39C282.783 124.88 283.15 124.953 283.49 125.1C283.836 125.247 284.113 125.45 284.32 125.71C284.526 125.963 284.63 126.253 284.63 126.58C284.63 127.033 284.476 127.407 284.17 127.7C283.863 127.993 283.506 128.183 283.1 128.27V128.31C283.373 128.33 283.643 128.417 283.91 128.57C284.183 128.717 284.406 128.92 284.58 129.18C284.76 129.44 284.85 129.733 284.85 130.06C284.85 130.467 284.743 130.817 284.53 131.11C284.316 131.403 284.03 131.627 283.67 131.78C283.316 131.927 282.926 132 282.5 132H279.13V131.68ZM282.35 128.12C282.89 128.12 283.256 127.983 283.45 127.71C283.65 127.43 283.75 127.053 283.75 126.58C283.75 126.18 283.623 125.85 283.37 125.59C283.116 125.33 282.803 125.2 282.43 125.2H281.31C281.216 125.2 281.146 125.223 281.1 125.27C281.06 125.31 281.04 125.377 281.04 125.47V128.12H282.35ZM282.39 131.68C282.796 131.68 283.13 131.56 283.39 131.32C283.656 131.073 283.79 130.653 283.79 130.06C283.79 129.467 283.656 129.05 283.39 128.81C283.13 128.563 282.796 128.44 282.39 128.44H281.04V131.41C281.04 131.59 281.13 131.68 281.31 131.68H282.39ZM285.894 133.74C286.487 133.12 286.927 132.447 287.214 131.72C287.507 130.993 287.654 130.2 287.654 129.34C287.654 128.48 287.507 127.687 287.214 126.96C286.927 126.233 286.487 125.56 285.894 124.94L286.194 124.7C286.787 125.247 287.261 125.923 287.614 126.73C287.974 127.53 288.154 128.4 288.154 129.34C288.154 130.28 287.974 131.153 287.614 131.96C287.261 132.76 286.787 133.433 286.194 133.98L285.894 133.74Z" fill="black"/>
<path d="M367.98 46.68H368.94C369.12 46.68 369.21 46.59 369.21 46.41V40.44C369.21 40.3467 369.19 40.28 369.15 40.24C369.11 40.1933 369.04 40.17 368.94 40.17H368.58C368.16 40.17 367.797 40.3833 367.49 40.81C367.297 41.0833 367.167 41.4267 367.1 41.84C367.033 42.2467 367 42.5467 367 42.74H366.72L366.8 39.88H372.54L372.62 42.74H372.34C372.34 42.5467 372.307 42.2467 372.24 41.84C372.173 41.4267 372.043 41.0833 371.85 40.81C371.543 40.3833 371.18 40.17 370.76 40.17H370.4C370.3 40.17 370.23 40.1933 370.19 40.24C370.15 40.28 370.13 40.3467 370.13 40.44V46.41C370.13 46.59 370.22 46.68 370.4 46.68H371.36V47H367.98V46.68ZM373.519 46.76H373.939C374.019 46.76 374.075 46.7433 374.109 46.71C374.142 46.6767 374.159 46.62 374.159 46.54V42.9C374.159 42.82 374.142 42.7633 374.109 42.73C374.075 42.6967 374.019 42.68 373.939 42.68H373.519V42.44H374.879V43.44L374.919 43.45C375.059 43.1033 375.239 42.83 375.459 42.63C375.685 42.4233 375.925 42.32 376.179 42.32C376.432 42.32 376.639 42.3933 376.799 42.54C376.959 42.6867 377.039 42.8867 377.039 43.14C377.039 43.2867 376.985 43.43 376.879 43.57C376.779 43.71 376.649 43.78 376.489 43.78C376.362 43.78 376.255 43.7467 376.169 43.68C376.082 43.6133 376.039 43.52 376.039 43.4C376.039 43.26 376.105 43.14 376.239 43.04C376.299 43 376.342 42.9633 376.369 42.93C376.402 42.8967 376.419 42.8533 376.419 42.8C376.419 42.74 376.389 42.6933 376.329 42.66C376.275 42.62 376.199 42.6 376.099 42.6C375.892 42.6 375.692 42.7 375.499 42.9C375.312 43.1 375.162 43.36 375.049 43.68C374.935 44 374.879 44.3333 374.879 44.68V46.54C374.879 46.62 374.895 46.6767 374.929 46.71C374.962 46.7433 375.019 46.76 375.099 46.76H375.519V47H373.519V46.76ZM379 47.12C378.647 47.12 378.34 47.0333 378.08 46.86C377.827 46.6867 377.7 46.38 377.7 45.94C377.7 45.6 377.787 45.3333 377.96 45.14C378.134 44.9467 378.334 44.81 378.56 44.73C378.794 44.6433 379.074 44.57 379.4 44.51L380.32 44.34V43.49C380.32 42.87 380.01 42.56 379.39 42.56C379.164 42.56 378.957 42.62 378.77 42.74C378.584 42.8533 378.49 42.9833 378.49 43.13C378.49 43.1967 378.5 43.2467 378.52 43.28C378.534 43.3 378.554 43.32 378.58 43.34C378.614 43.36 378.644 43.3733 378.67 43.38C378.79 43.4133 378.88 43.46 378.94 43.52C379.007 43.58 379.04 43.6633 379.04 43.77C379.04 43.91 378.997 44.01 378.91 44.07C378.83 44.13 378.727 44.16 378.6 44.16C378.454 44.16 378.32 44.1033 378.2 43.99C378.08 43.8767 378.02 43.7133 378.02 43.5C378.02 43.2533 378.087 43.04 378.22 42.86C378.36 42.68 378.537 42.5467 378.75 42.46C378.97 42.3667 379.194 42.32 379.42 42.32C379.86 42.32 380.24 42.4367 380.56 42.67C380.88 42.8967 381.04 43.2533 381.04 43.74V46.2C381.04 46.5333 381.144 46.7 381.35 46.7C381.517 46.7 381.637 46.6033 381.71 46.41C381.784 46.2167 381.82 45.98 381.82 45.7H382C382 46.1 381.94 46.4367 381.82 46.71C381.707 46.9833 381.5 47.12 381.2 47.12C380.914 47.12 380.697 47.0367 380.55 46.87C380.41 46.6967 380.334 46.46 380.32 46.16L380.27 46.14C380.17 46.3733 380.007 46.5967 379.78 46.81C379.56 47.0167 379.3 47.12 379 47.12ZM379.16 46.76C379.46 46.76 379.694 46.6433 379.86 46.41C380.034 46.17 380.187 45.8667 380.32 45.5V44.55L379.45 44.74C379.13 44.8067 378.897 44.94 378.75 45.14C378.61 45.3333 378.54 45.61 378.54 45.97C378.54 46.2767 378.604 46.4867 378.73 46.6C378.857 46.7067 379 46.76 379.16 46.76ZM382.562 46.76H382.982C383.062 46.76 383.118 46.7433 383.152 46.71C383.185 46.6767 383.202 46.62 383.202 46.54V42.9C383.202 42.82 383.185 42.7633 383.152 42.73C383.118 42.6967 383.062 42.68 382.982 42.68H382.562V42.44H383.922V43.26L383.962 43.27C384.115 42.95 384.305 42.7133 384.532 42.56C384.758 42.4 385.008 42.32 385.282 42.32C385.768 42.32 386.112 42.47 386.312 42.77C386.518 43.07 386.622 43.43 386.622 43.85V46.54C386.622 46.62 386.638 46.6767 386.672 46.71C386.705 46.7433 386.762 46.76 386.842 46.76H387.262V47H385.262V46.76H385.682C385.762 46.76 385.818 46.7433 385.852 46.71C385.885 46.6767 385.902 46.62 385.902 46.54V43.66C385.902 43.3667 385.842 43.1167 385.722 42.91C385.608 42.7033 385.412 42.6 385.132 42.6C384.898 42.6 384.688 42.6833 384.502 42.85C384.322 43.01 384.178 43.2333 384.072 43.52C383.972 43.8 383.922 44.1133 383.922 44.46V46.54C383.922 46.62 383.938 46.6767 383.972 46.71C384.005 46.7433 384.062 46.76 384.142 46.76H384.562V47H382.562V46.76ZM388.182 45.14H388.362L388.732 45.93C389.092 46.5633 389.559 46.88 390.132 46.88C390.439 46.88 390.665 46.8067 390.812 46.66C390.965 46.5067 391.042 46.3 391.042 46.04C391.042 45.8867 390.982 45.75 390.862 45.63C390.749 45.5033 390.595 45.4033 390.402 45.33L389.262 44.87C388.902 44.7233 388.619 44.5467 388.412 44.34C388.205 44.1333 388.102 43.87 388.102 43.55C388.102 43.1433 388.229 42.8367 388.482 42.63C388.735 42.4233 389.055 42.32 389.442 42.32C389.635 42.32 389.815 42.3533 389.982 42.42C390.155 42.48 390.299 42.5533 390.412 42.64C390.559 42.7467 390.669 42.8 390.742 42.8C390.829 42.8 390.882 42.74 390.902 42.62L390.922 42.42H391.102V43.94H390.922L390.782 43.59C390.629 43.21 390.425 42.9433 390.172 42.79C389.925 42.6367 389.679 42.56 389.432 42.56C389.185 42.56 388.982 42.6233 388.822 42.75C388.662 42.87 388.582 43.04 388.582 43.26C388.582 43.4533 388.659 43.6133 388.812 43.74C388.972 43.86 389.189 43.9767 389.462 44.09L390.542 44.54C390.862 44.6733 391.102 44.8367 391.262 45.03C391.422 45.2167 391.502 45.48 391.502 45.82C391.502 46.2667 391.375 46.5967 391.122 46.81C390.869 47.0167 390.535 47.12 390.122 47.12C389.875 47.12 389.675 47.0867 389.522 47.02C389.369 46.9533 389.219 46.8633 389.072 46.75C389.012 46.7033 388.952 46.6633 388.892 46.63C388.832 46.5967 388.779 46.58 388.732 46.58C388.572 46.58 388.462 46.6933 388.402 46.92L388.362 47.12H388.182V45.14ZM393.238 41.2C393.091 41.2 392.968 41.15 392.868 41.05C392.768 40.95 392.718 40.8267 392.718 40.68C392.718 40.5267 392.768 40.4033 392.868 40.31C392.968 40.21 393.091 40.16 393.238 40.16C393.391 40.16 393.515 40.21 393.608 40.31C393.708 40.4033 393.758 40.5267 393.758 40.68C393.758 40.8267 393.708 40.95 393.608 41.05C393.515 41.15 393.391 41.2 393.238 41.2ZM392.298 46.76H392.718C392.798 46.76 392.855 46.7433 392.888 46.71C392.921 46.6767 392.938 46.62 392.938 46.54V42.9C392.938 42.82 392.921 42.7633 392.888 42.73C392.855 42.6967 392.798 42.68 392.718 42.68H392.298V42.44H393.658V46.54C393.658 46.62 393.675 46.6767 393.708 46.71C393.741 46.7433 393.798 46.76 393.878 46.76H394.298V47H392.298V46.76ZM396.673 47.12C396.373 47.12 396.123 47.0133 395.923 46.8C395.73 46.5867 395.633 46.2967 395.633 45.93V42.72H394.893V42.44H395.113C395.413 42.44 395.647 42.28 395.813 41.96C395.987 41.6333 396.073 41.2733 396.073 40.88V40.52H396.353V42.44H397.593V42.72H396.353V45.98C396.353 46.18 396.393 46.3467 396.473 46.48C396.553 46.6133 396.69 46.68 396.883 46.68C397.357 46.68 397.593 46.28 397.593 45.48H397.773C397.773 45.9267 397.707 46.3133 397.573 46.64C397.447 46.96 397.147 47.12 396.673 47.12ZM399.429 41.2C399.283 41.2 399.159 41.15 399.059 41.05C398.959 40.95 398.909 40.8267 398.909 40.68C398.909 40.5267 398.959 40.4033 399.059 40.31C399.159 40.21 399.283 40.16 399.429 40.16C399.583 40.16 399.706 40.21 399.799 40.31C399.899 40.4033 399.949 40.5267 399.949 40.68C399.949 40.8267 399.899 40.95 399.799 41.05C399.706 41.15 399.583 41.2 399.429 41.2ZM398.489 46.76H398.909C398.989 46.76 399.046 46.7433 399.079 46.71C399.113 46.6767 399.129 46.62 399.129 46.54V42.9C399.129 42.82 399.113 42.7633 399.079 42.73C399.046 42.6967 398.989 42.68 398.909 42.68H398.489V42.44H399.849V46.54C399.849 46.62 399.866 46.6767 399.899 46.71C399.933 46.7433 399.989 46.76 400.069 46.76H400.489V47H398.489V46.76ZM401.795 43.18C401.728 43.0067 401.658 42.88 401.585 42.8C401.518 42.72 401.415 42.68 401.275 42.68H400.985V42.44H403.145V42.68H402.865C402.785 42.68 402.711 42.7033 402.645 42.75C402.578 42.79 402.545 42.8467 402.545 42.92C402.545 43.0333 402.565 43.1433 402.605 43.25L403.725 45.95L404.535 43.58C404.561 43.5 404.585 43.41 404.605 43.31C404.631 43.21 404.645 43.13 404.645 43.07C404.645 42.9567 404.611 42.8633 404.545 42.79C404.478 42.7167 404.391 42.68 404.285 42.68H404.045V42.44H405.865V42.68H405.635C405.488 42.68 405.351 42.73 405.225 42.83C405.105 42.9233 405.011 43.07 404.945 43.27L403.625 47.12H403.445L401.795 43.18ZM408.169 47.12C407.549 47.12 407.049 46.91 406.669 46.49C406.296 46.07 406.109 45.4867 406.109 44.74C406.109 44.3133 406.192 43.9167 406.359 43.55C406.526 43.1767 406.756 42.88 407.049 42.66C407.349 42.4333 407.682 42.32 408.049 42.32C408.456 42.32 408.789 42.43 409.049 42.65C409.309 42.87 409.496 43.15 409.609 43.49C409.729 43.8233 409.789 44.1667 409.789 44.52C409.789 44.5933 409.766 44.6433 409.719 44.67C409.672 44.69 409.592 44.7 409.479 44.7H406.989C406.989 45.3667 407.082 45.8967 407.269 46.29C407.462 46.6833 407.776 46.88 408.209 46.88C408.516 46.88 408.802 46.7633 409.069 46.53C409.342 46.2967 409.516 45.9333 409.589 45.44H409.829C409.789 45.9267 409.619 46.33 409.319 46.65C409.026 46.9633 408.642 47.12 408.169 47.12ZM408.929 44.46C408.929 43.9267 408.859 43.4767 408.719 43.11C408.579 42.7433 408.349 42.56 408.029 42.56C407.689 42.56 407.429 42.7467 407.249 43.12C407.076 43.4867 406.989 43.9333 406.989 44.46H408.929ZM415.571 47.12C414.951 47.12 414.451 46.91 414.071 46.49C413.698 46.07 413.511 45.4867 413.511 44.74C413.511 44.3133 413.595 43.9167 413.761 43.55C413.928 43.1767 414.158 42.88 414.451 42.66C414.751 42.4333 415.085 42.32 415.451 42.32C415.858 42.32 416.191 42.43 416.451 42.65C416.711 42.87 416.898 43.15 417.011 43.49C417.131 43.8233 417.191 44.1667 417.191 44.52C417.191 44.5933 417.168 44.6433 417.121 44.67C417.075 44.69 416.995 44.7 416.881 44.7H414.391C414.391 45.3667 414.485 45.8967 414.671 46.29C414.865 46.6833 415.178 46.88 415.611 46.88C415.918 46.88 416.205 46.7633 416.471 46.53C416.745 46.2967 416.918 45.9333 416.991 45.44H417.231C417.191 45.9267 417.021 46.33 416.721 46.65C416.428 46.9633 416.045 47.12 415.571 47.12ZM416.331 44.46C416.331 43.9267 416.261 43.4767 416.121 43.11C415.981 42.7433 415.751 42.56 415.431 42.56C415.091 42.56 414.831 42.7467 414.651 43.12C414.478 43.4867 414.391 43.9333 414.391 44.46H416.331ZM419.871 47.12C419.558 47.12 419.264 47.0167 418.991 46.81C418.724 46.5967 418.511 46.3067 418.351 45.94C418.191 45.5733 418.111 45.1667 418.111 44.72C418.111 44.2733 418.191 43.8667 418.351 43.5C418.511 43.1333 418.724 42.8467 418.991 42.64C419.264 42.4267 419.558 42.32 419.871 42.32C420.131 42.32 420.364 42.4067 420.571 42.58C420.778 42.7467 420.931 42.95 421.031 43.19L421.071 43.18V40.34C421.071 40.26 421.054 40.2033 421.021 40.17C420.988 40.1367 420.931 40.12 420.851 40.12H420.131V39.88H421.791V46.54C421.791 46.62 421.808 46.6767 421.841 46.71C421.874 46.7433 421.931 46.76 422.011 46.76H422.531V47H421.071V46.26L421.031 46.25C420.904 46.5167 420.741 46.73 420.541 46.89C420.348 47.0433 420.124 47.12 419.871 47.12ZM419.981 46.84C420.181 46.84 420.364 46.7667 420.531 46.62C420.698 46.4733 420.828 46.2733 420.921 46.02C421.021 45.76 421.071 45.48 421.071 45.18V44.26C421.071 43.96 421.021 43.6833 420.921 43.43C420.828 43.17 420.698 42.9667 420.531 42.82C420.364 42.6733 420.181 42.6 419.981 42.6C419.654 42.6 419.408 42.7833 419.241 43.15C419.074 43.5167 418.991 44.04 418.991 44.72C418.991 45.4 419.074 45.9233 419.241 46.29C419.408 46.6567 419.654 46.84 419.981 46.84ZM425.535 49.38C424.949 49.38 424.442 49.2867 424.015 49.1C423.589 48.9133 423.375 48.62 423.375 48.22C423.375 47.9733 423.472 47.7567 423.665 47.57C423.859 47.3833 424.089 47.27 424.355 47.23V47.2C423.769 47.0733 423.475 46.8267 423.475 46.46C423.475 46.1867 423.579 45.9733 423.785 45.82C423.999 45.66 424.259 45.5533 424.565 45.5V45.47C424.285 45.35 424.045 45.17 423.845 44.93C423.652 44.6833 423.555 44.36 423.555 43.96C423.555 43.62 423.639 43.3267 423.805 43.08C423.972 42.8333 424.189 42.6467 424.455 42.52C424.729 42.3867 425.022 42.32 425.335 42.32C425.529 42.32 425.719 42.3533 425.905 42.42C426.099 42.48 426.262 42.5533 426.395 42.64C426.535 42.72 426.625 42.7867 426.665 42.84C426.725 42.6667 426.822 42.5367 426.955 42.45C427.089 42.3633 427.222 42.32 427.355 42.32C427.582 42.32 427.769 42.3867 427.915 42.52C428.062 42.6533 428.135 42.8267 428.135 43.04C428.135 43.2 428.095 43.33 428.015 43.43C427.942 43.53 427.842 43.58 427.715 43.58C427.609 43.58 427.515 43.5533 427.435 43.5C427.355 43.44 427.315 43.3467 427.315 43.22C427.315 43.0733 427.372 42.9667 427.485 42.9C427.525 42.8733 427.552 42.85 427.565 42.83C427.585 42.8033 427.595 42.7667 427.595 42.72C427.595 42.6667 427.569 42.6267 427.515 42.6C427.462 42.5733 427.399 42.56 427.325 42.56C427.205 42.56 427.095 42.61 426.995 42.71C426.902 42.8033 426.849 42.9133 426.835 43.04C427.022 43.3 427.115 43.6067 427.115 43.96C427.115 44.2933 427.035 44.5867 426.875 44.84C426.715 45.0867 426.499 45.2767 426.225 45.41C425.959 45.5367 425.662 45.6 425.335 45.6C424.955 45.6 424.615 45.6533 424.315 45.76C424.022 45.86 423.875 46.03 423.875 46.27C423.875 46.3967 423.932 46.4833 424.045 46.53C424.159 46.5767 424.315 46.6 424.515 46.6C424.655 46.6 424.769 46.5967 424.855 46.59C424.935 46.5833 425.039 46.58 425.165 46.58H426.195C426.622 46.58 426.979 46.6967 427.265 46.93C427.552 47.1567 427.695 47.4933 427.695 47.94C427.695 48.4067 427.495 48.7633 427.095 49.01C426.702 49.2567 426.182 49.38 425.535 49.38ZM425.335 45.36C425.642 45.36 425.882 45.2367 426.055 44.99C426.229 44.7433 426.315 44.4 426.315 43.96C426.315 43.52 426.229 43.1767 426.055 42.93C425.882 42.6833 425.642 42.56 425.335 42.56C425.029 42.56 424.789 42.6833 424.615 42.93C424.442 43.1767 424.355 43.52 424.355 43.96C424.355 44.4 424.442 44.7433 424.615 44.99C424.789 45.2367 425.029 45.36 425.335 45.36ZM425.535 49.14C426.015 49.14 426.435 49.0533 426.795 48.88C427.155 48.7133 427.335 48.4267 427.335 48.02C427.335 47.8133 427.272 47.6333 427.145 47.48C427.025 47.3333 426.812 47.26 426.505 47.26H425.395C424.969 47.26 424.599 47.33 424.285 47.47C423.972 47.6167 423.815 47.86 423.815 48.2C423.815 48.5133 423.992 48.7467 424.345 48.9C424.699 49.06 425.095 49.14 425.535 49.14ZM430.796 47.12C430.176 47.12 429.676 46.91 429.296 46.49C428.923 46.07 428.736 45.4867 428.736 44.74C428.736 44.3133 428.819 43.9167 428.986 43.55C429.153 43.1767 429.383 42.88 429.676 42.66C429.976 42.4333 430.309 42.32 430.676 42.32C431.083 42.32 431.416 42.43 431.676 42.65C431.936 42.87 432.123 43.15 432.236 43.49C432.356 43.8233 432.416 44.1667 432.416 44.52C432.416 44.5933 432.393 44.6433 432.346 44.67C432.299 44.69 432.219 44.7 432.106 44.7H429.616C429.616 45.3667 429.709 45.8967 429.896 46.29C430.089 46.6833 430.403 46.88 430.836 46.88C431.143 46.88 431.429 46.7633 431.696 46.53C431.969 46.2967 432.143 45.9333 432.216 45.44H432.456C432.416 45.9267 432.246 46.33 431.946 46.65C431.653 46.9633 431.269 47.12 430.796 47.12ZM431.556 44.46C431.556 43.9267 431.486 43.4767 431.346 43.11C431.206 42.7433 430.976 42.56 430.656 42.56C430.316 42.56 430.056 42.7467 429.876 43.12C429.703 43.4867 429.616 43.9333 429.616 44.46H431.556ZM433.455 45.14H433.635L434.005 45.93C434.365 46.5633 434.832 46.88 435.405 46.88C435.712 46.88 435.939 46.8067 436.085 46.66C436.239 46.5067 436.315 46.3 436.315 46.04C436.315 45.8867 436.255 45.75 436.135 45.63C436.022 45.5033 435.869 45.4033 435.675 45.33L434.535 44.87C434.175 44.7233 433.892 44.5467 433.685 44.34C433.479 44.1333 433.375 43.87 433.375 43.55C433.375 43.1433 433.502 42.8367 433.755 42.63C434.009 42.4233 434.329 42.32 434.715 42.32C434.909 42.32 435.089 42.3533 435.255 42.42C435.429 42.48 435.572 42.5533 435.685 42.64C435.832 42.7467 435.942 42.8 436.015 42.8C436.102 42.8 436.155 42.74 436.175 42.62L436.195 42.42H436.375V43.94H436.195L436.055 43.59C435.902 43.21 435.699 42.9433 435.445 42.79C435.199 42.6367 434.952 42.56 434.705 42.56C434.459 42.56 434.255 42.6233 434.095 42.75C433.935 42.87 433.855 43.04 433.855 43.26C433.855 43.4533 433.932 43.6133 434.085 43.74C434.245 43.86 434.462 43.9767 434.735 44.09L435.815 44.54C436.135 44.6733 436.375 44.8367 436.535 45.03C436.695 45.2167 436.775 45.48 436.775 45.82C436.775 46.2667 436.649 46.5967 436.395 46.81C436.142 47.0167 435.809 47.12 435.395 47.12C435.149 47.12 434.949 47.0867 434.795 47.02C434.642 46.9533 434.492 46.8633 434.345 46.75C434.285 46.7033 434.225 46.6633 434.165 46.63C434.105 46.5967 434.052 46.58 434.005 46.58C433.845 46.58 433.735 46.6933 433.675 46.92L433.635 47.12H433.455V45.14ZM442.934 48.98C442.341 48.4333 441.864 47.76 441.504 46.96C441.151 46.1533 440.974 45.28 440.974 44.34C440.974 43.4 441.151 42.53 441.504 41.73C441.864 40.9233 442.341 40.2467 442.934 39.7L443.234 39.94C442.641 40.56 442.197 41.2333 441.904 41.96C441.617 42.6867 441.474 43.48 441.474 44.34C441.474 45.2 441.617 45.9933 441.904 46.72C442.197 47.4467 442.641 48.12 443.234 48.74L442.934 48.98ZM447.355 47.18C446.735 47.18 446.202 47 445.755 46.64C445.309 46.28 444.969 45.81 444.735 45.23C444.509 44.6433 444.395 44.0267 444.395 43.38C444.395 42.7067 444.509 42.09 444.735 41.53C444.962 40.97 445.285 40.5267 445.705 40.2C446.125 39.8667 446.615 39.7 447.175 39.7C447.469 39.7 447.745 39.7667 448.005 39.9C448.265 40.0333 448.479 40.1767 448.645 40.33C448.805 40.4767 448.912 40.55 448.965 40.55C449.019 40.55 449.055 40.5333 449.075 40.5C449.102 40.4667 449.129 40.4133 449.155 40.34L449.345 39.78H449.595L449.635 42.88H449.355C449.209 42.2467 449.019 41.7167 448.785 41.29C448.552 40.8567 448.295 40.5367 448.015 40.33C447.742 40.1233 447.469 40.02 447.195 40.02C446.562 40.02 446.112 40.3067 445.845 40.88C445.585 41.4533 445.455 42.2867 445.455 43.38C445.455 44.5067 445.592 45.37 445.865 45.97C446.139 46.5633 446.635 46.86 447.355 46.86C447.995 46.86 448.482 46.6233 448.815 46.15C449.155 45.67 449.349 45.09 449.395 44.41H449.755C449.735 44.8033 449.652 45.21 449.505 45.63C449.365 46.05 449.119 46.4133 448.765 46.72C448.412 47.0267 447.942 47.18 447.355 47.18ZM450.875 48.74C451.468 48.12 451.908 47.4467 452.195 46.72C452.488 45.9933 452.635 45.2 452.635 44.34C452.635 43.48 452.488 42.6867 452.195 41.96C451.908 41.2333 451.468 40.56 450.875 39.94L451.175 39.7C451.768 40.2467 452.241 40.9233 452.595 41.73C452.955 42.53 453.135 43.4 453.135 44.34C453.135 45.28 452.955 46.1533 452.595 46.96C452.241 47.76 451.768 48.4333 451.175 48.98L450.875 48.74Z" fill="black"/>
</svg>
