<svg width="194" xmlns="http://www.w3.org/2000/svg" height="140" id="screenshot-b5212b09-fcb5-8058-8006-2f81ac181372" viewBox="0 0 194 140" xmlns:xlink="http://www.w3.org/1999/xlink" fill="none" version="1.1"><style>/* cyrillic-ext */
@font-face {
  font-family: 'Noto Sans';
  font-style: normal;
  font-weight: 400;
  font-stretch: 100%;
  font-display: block;
  src: url(https://design.penpot.app/internal/gfonts/font/notosans/v39/o-0mIpQlx3QUlC5A4PNB6Ryti20_6n1iPHjcz6L1SoM-jCpoiyD9A-9X6VLKzA.woff2) format('woff2');
  unicode-range: U+0460-052F, U+1C80-1C8A, U+20B4, U+2DE0-2DFF, U+A640-A69F, U+FE2E-FE2F;
}
/* cyrillic */
@font-face {
  font-family: 'Noto Sans';
  font-style: normal;
  font-weight: 400;
  font-stretch: 100%;
  font-display: block;
  src: url(https://design.penpot.app/internal/gfonts/font/notosans/v39/o-0mIpQlx3QUlC5A4PNB6Ryti20_6n1iPHjcz6L1SoM-jCpoiyD9A-9e6VLKzA.woff2) format('woff2');
  unicode-range: U+0301, U+0400-045F, U+0490-0491, U+04B0-04B1, U+2116;
}
/* devanagari */
@font-face {
  font-family: 'Noto Sans';
  font-style: normal;
  font-weight: 400;
  font-stretch: 100%;
  font-display: block;
  src: url(https://design.penpot.app/internal/gfonts/font/notosans/v39/o-0mIpQlx3QUlC5A4PNB6Ryti20_6n1iPHjcz6L1SoM-jCpoiyD9A-9b6VLKzA.woff2) format('woff2');
  unicode-range: U+0900-097F, U+1CD0-1CF9, U+200C-200D, U+20A8, U+20B9, U+20F0, U+25CC, U+A830-A839, U+A8E0-A8FF, U+11B00-11B09;
}
/* greek-ext */
@font-face {
  font-family: 'Noto Sans';
  font-style: normal;
  font-weight: 400;
  font-stretch: 100%;
  font-display: block;
  src: url(https://design.penpot.app/internal/gfonts/font/notosans/v39/o-0mIpQlx3QUlC5A4PNB6Ryti20_6n1iPHjcz6L1SoM-jCpoiyD9A-9W6VLKzA.woff2) format('woff2');
  unicode-range: U+1F00-1FFF;
}
/* greek */
@font-face {
  font-family: 'Noto Sans';
  font-style: normal;
  font-weight: 400;
  font-stretch: 100%;
  font-display: block;
  src: url(https://design.penpot.app/internal/gfonts/font/notosans/v39/o-0mIpQlx3QUlC5A4PNB6Ryti20_6n1iPHjcz6L1SoM-jCpoiyD9A-9Z6VLKzA.woff2) format('woff2');
  unicode-range: U+0370-0377, U+037A-037F, U+0384-038A, U+038C, U+038E-03A1, U+03A3-03FF;
}
/* vietnamese */
@font-face {
  font-family: 'Noto Sans';
  font-style: normal;
  font-weight: 400;
  font-stretch: 100%;
  font-display: block;
  src: url(https://design.penpot.app/internal/gfonts/font/notosans/v39/o-0mIpQlx3QUlC5A4PNB6Ryti20_6n1iPHjcz6L1SoM-jCpoiyD9A-9V6VLKzA.woff2) format('woff2');
  unicode-range: U+0102-0103, U+0110-0111, U+0128-0129, U+0168-0169, U+01A0-01A1, U+01AF-01B0, U+0300-0301, U+0303-0304, U+0308-0309, U+0323, U+0329, U+1EA0-1EF9, U+20AB;
}
/* latin-ext */
@font-face {
  font-family: 'Noto Sans';
  font-style: normal;
  font-weight: 400;
  font-stretch: 100%;
  font-display: block;
  src: url(https://design.penpot.app/internal/gfonts/font/notosans/v39/o-0mIpQlx3QUlC5A4PNB6Ryti20_6n1iPHjcz6L1SoM-jCpoiyD9A-9U6VLKzA.woff2) format('woff2');
  unicode-range: U+0100-02BA, U+02BD-02C5, U+02C7-02CC, U+02CE-02D7, U+02DD-02FF, U+0304, U+0308, U+0329, U+1D00-1DBF, U+1E00-1E9F, U+1EF2-1EFF, U+2020, U+20A0-20AB, U+20AD-20C0, U+2113, U+2C60-2C7F, U+A720-A7FF;
}
/* latin */
@font-face {
  font-family: 'Noto Sans';
  font-style: normal;
  font-weight: 400;
  font-stretch: 100%;
  font-display: block;
  src: url(https://design.penpot.app/internal/gfonts/font/notosans/v39/o-0mIpQlx3QUlC5A4PNB6Ryti20_6n1iPHjcz6L1SoM-jCpoiyD9A-9a6VI.woff2) format('woff2');
  unicode-range: U+0000-00FF, U+0131, U+0152-0153, U+02BB-02BC, U+02C6, U+02DA, U+02DC, U+0304, U+0308, U+0329, U+2000-206F, U+20AC, U+2122, U+2191, U+2193, U+2212, U+2215, U+FEFF, U+FFFD;
}
</style><g id="shape-b5212b09-fcb5-8058-8006-2f81ac181372" rx="0" ry="0"><g id="shape-b5212b09-fcb5-8058-8006-2f819fc5acbd"><g class="fills" id="fills-b5212b09-fcb5-8058-8006-2f819fc5acbd"><rect rx="0" ry="0" x="0" y="0" transform="matrix(1.000000, 0.000000, 0.000000, 1.000000, 0.000000, 0.000000)" width="194" height="140" style="fill: rgb(255, 255, 255); fill-opacity: 0;"/></g></g><g id="shape-2180ca2f-5423-8046-8006-2dc18d6ec37b"><g transform="matrix(1.000000, 0.000000, 0.000000, 1.000000, 0.000000, 0.000000)" class="text-container" x="114" y="105" width="31" height="17" rx="0" ry="0"><defs><pattern patternUnits="objectBoundingBox" width="30.328125" height="19" id="fill-0-render-3-0"><g><rect width="30.328125" height="19" style="fill: rgb(149, 117, 205); fill-opacity: 1;"/></g></pattern></defs><g class="fills" id="fills-2180ca2f-5423-8046-8006-2dc18d6ec37b"><text x="114" y="122.5" dominant-baseline="ideographic" textLength="30.328125" lengthAdjust="spacingAndGlyphs" style="text-transform: none; font-family: &quot;Noto Sans&quot;; letter-spacing: 1px; font-style: normal; font-weight: 400; white-space: pre; font-size: 14px; text-decoration: none solid rgb(149, 117, 205); direction: ltr; fill: rgb(149, 117, 205); fill-opacity: 1;">CCG</text></g></g></g><g id="shape-91148aee-ed71-80f1-8006-2dc0397756c0" rx="0" ry="0"><g id="shape-37537431-0843-80ce-8006-2dbf664255a7"><g class="frame-container-wrapper"><g class="frame-container-blur"><g class="frame-container-shadows"><g fill="none"><g class="fills" id="fills-37537431-0843-80ce-8006-2dbf664255a7"><rect rx="0" ry="0" x="12" y="37" width="167" height="35" transform="matrix(1.000000, 0.000000, 0.000000, 1.000000, 0.000000, 0.000000)" class="frame-background"/></g><g class="frame-children"><g id="shape-37537431-0843-80ce-8006-2dbf664255a9"><g class="frame-container-wrapper"><g class="frame-container-blur"><g class="frame-container-shadows"><g fill="none"><g class="fills" id="fills-37537431-0843-80ce-8006-2dbf664255a9"><rect rx="0" ry="0" x="12" y="37" width="35" height="35" transform="matrix(1.000000, 0.000000, 0.000000, 1.000000, 0.000000, 0.000000)" class="frame-background"/></g><g class="frame-children"><g id="shape-37537431-0843-80ce-8006-2dbf664255b3"><g class="fills" id="fills-37537431-0843-80ce-8006-2dbf664255b3"><path d="M19,37 h28 a0,0 0 0 1 0,0 v35 a0,0 0 0 1 0,0 h-28 a7,7 0 0 1 -7,-7 v-21 a7,7 0 0 1 7,-7 z" x="12" y="37" transform="matrix(1.000000, 0.000000, 0.000000, 1.000000, 0.000000, 0.000000)" width="35" height="35" style="fill: rgb(200, 230, 201); fill-opacity: 1;"/></g><g id="strokes-38194b44-2b2d-80f6-8006-2f81be0f9a3e-37537431-0843-80ce-8006-2dbf664255b3" class="strokes"><g class="inner-stroke-shape" transform="matrix(1.000000, 0.000000, 0.000000, 1.000000, 0.000000, 0.000000)"><defs><clipPath id="inner-stroke-render-7-37537431-0843-80ce-8006-2dbf664255b3-0"><use href="#stroke-shape-render-7-37537431-0843-80ce-8006-2dbf664255b3-0"/></clipPath><path d="M19,37 h28 a0,0 0 0 1 0,0 v35 a0,0 0 0 1 0,0 h-28 a7,7 0 0 1 -7,-7 v-21 a7,7 0 0 1 7,-7 z" x="12" y="37" width="35" height="35" id="stroke-shape-render-7-37537431-0843-80ce-8006-2dbf664255b3-0" style="fill: none; stroke-width: 4; stroke: rgb(129, 199, 132); stroke-opacity: 1;"/></defs><use href="#stroke-shape-render-7-37537431-0843-80ce-8006-2dbf664255b3-0" clip-path="url('#inner-stroke-render-7-37537431-0843-80ce-8006-2dbf664255b3-0')"/></g></g></g></g></g></g></g></g></g><g id="shape-37537431-0843-80ce-8006-2dbf664255aa"><g class="frame-container-wrapper"><g class="frame-container-blur"><g class="frame-container-shadows"><g fill="none"><g class="fills" id="fills-37537431-0843-80ce-8006-2dbf664255aa"><rect rx="0" ry="0" x="45" y="37" width="35" height="35" transform="matrix(1.000000, 0.000000, 0.000000, 1.000000, 0.000000, 0.000000)" class="frame-background"/></g><g class="frame-children"><g id="shape-37537431-0843-80ce-8006-2dbf664255b4"><g class="fills" id="fills-37537431-0843-80ce-8006-2dbf664255b4"><rect rx="0" ry="0" x="45" y="37" transform="matrix(1.000000, 0.000000, 0.000000, 1.000000, 0.000000, 0.000000)" width="35" height="35" style="fill: rgb(200, 230, 201); fill-opacity: 1;"/></g><g id="strokes-38194b44-2b2d-80f6-8006-2f81be106bd4-37537431-0843-80ce-8006-2dbf664255b4" class="strokes"><g class="inner-stroke-shape" transform="matrix(1.000000, 0.000000, 0.000000, 1.000000, 0.000000, 0.000000)"><defs><clipPath id="inner-stroke-render-9-37537431-0843-80ce-8006-2dbf664255b4-0"><use href="#stroke-shape-render-9-37537431-0843-80ce-8006-2dbf664255b4-0"/></clipPath><rect rx="0" ry="0" x="45" y="37" width="35" height="35" id="stroke-shape-render-9-37537431-0843-80ce-8006-2dbf664255b4-0" style="fill: none; stroke-width: 4; stroke: rgb(129, 199, 132); stroke-opacity: 1;"/></defs><use href="#stroke-shape-render-9-37537431-0843-80ce-8006-2dbf664255b4-0" clip-path="url('#inner-stroke-render-9-37537431-0843-80ce-8006-2dbf664255b4-0')"/></g></g></g></g></g></g></g></g></g><g id="shape-37537431-0843-80ce-8006-2dbf664255ab"><g class="frame-container-wrapper"><g class="frame-container-blur"><g class="frame-container-shadows"><g fill="none"><g class="fills" id="fills-37537431-0843-80ce-8006-2dbf664255ab"><rect rx="0" ry="0" x="78" y="37" width="35" height="35" transform="matrix(1.000000, 0.000000, 0.000000, 1.000000, 0.000000, 0.000000)" class="frame-background"/></g><g class="frame-children"><g id="shape-37537431-0843-80ce-8006-2dbf664255b5"><g class="fills" id="fills-37537431-0843-80ce-8006-2dbf664255b5"><rect rx="0" ry="0" x="78" y="37" transform="matrix(1.000000, 0.000000, 0.000000, 1.000000, 0.000000, 0.000000)" width="35" height="35" style="fill: rgb(200, 230, 201); fill-opacity: 1;"/></g><g id="strokes-38194b44-2b2d-80f6-8006-2f81be10cd00-37537431-0843-80ce-8006-2dbf664255b5" class="strokes"><g class="inner-stroke-shape" transform="matrix(1.000000, 0.000000, 0.000000, 1.000000, 0.000000, 0.000000)"><defs><clipPath id="inner-stroke-render-11-37537431-0843-80ce-8006-2dbf664255b5-0"><use href="#stroke-shape-render-11-37537431-0843-80ce-8006-2dbf664255b5-0"/></clipPath><rect rx="0" ry="0" x="78" y="37" width="35" height="35" id="stroke-shape-render-11-37537431-0843-80ce-8006-2dbf664255b5-0" style="fill: none; stroke-width: 4; stroke: rgb(129, 199, 132); stroke-opacity: 1;"/></defs><use href="#stroke-shape-render-11-37537431-0843-80ce-8006-2dbf664255b5-0" clip-path="url('#inner-stroke-render-11-37537431-0843-80ce-8006-2dbf664255b5-0')"/></g></g></g></g></g></g></g></g></g><g id="shape-37537431-0843-80ce-8006-2dbf664255ac"><g class="frame-container-wrapper"><g class="frame-container-blur"><g class="frame-container-shadows"><g fill="none"><g class="fills" id="fills-37537431-0843-80ce-8006-2dbf664255ac"><rect rx="0" ry="0" x="111" y="37" width="35" height="35" transform="matrix(1.000000, 0.000000, 0.000000, 1.000000, 0.000000, 0.000000)" class="frame-background"/></g><g class="frame-children"><g id="shape-37537431-0843-80ce-8006-2dbf664255b6"><g class="fills" id="fills-37537431-0843-80ce-8006-2dbf664255b6"><rect rx="0" ry="0" x="111" y="37" transform="matrix(1.000000, 0.000000, 0.000000, 1.000000, 0.000000, 0.000000)" width="35" height="35" style="fill: rgb(200, 230, 201); fill-opacity: 1;"/></g><g id="strokes-38194b44-2b2d-80f6-8006-2f81be11755b-37537431-0843-80ce-8006-2dbf664255b6" class="strokes"><g class="inner-stroke-shape" transform="matrix(1.000000, 0.000000, 0.000000, 1.000000, 0.000000, 0.000000)"><defs><clipPath id="inner-stroke-render-13-37537431-0843-80ce-8006-2dbf664255b6-0"><use href="#stroke-shape-render-13-37537431-0843-80ce-8006-2dbf664255b6-0"/></clipPath><rect rx="0" ry="0" x="111" y="37" width="35" height="35" id="stroke-shape-render-13-37537431-0843-80ce-8006-2dbf664255b6-0" style="fill: none; stroke-width: 4; stroke: rgb(129, 199, 132); stroke-opacity: 1;"/></defs><use href="#stroke-shape-render-13-37537431-0843-80ce-8006-2dbf664255b6-0" clip-path="url('#inner-stroke-render-13-37537431-0843-80ce-8006-2dbf664255b6-0')"/></g></g></g></g></g></g></g></g></g><g id="shape-37537431-0843-80ce-8006-2dbfc645054a"><g class="frame-container-wrapper"><g class="frame-container-blur"><g class="frame-container-shadows"><g fill="none"><g class="fills" id="fills-37537431-0843-80ce-8006-2dbfc645054a"><rect rx="0" ry="0" x="144" y="37" width="35" height="35" transform="matrix(1.000000, 0.000000, 0.000000, 1.000000, 0.000000, 0.000000)" class="frame-background"/></g><g class="frame-children"><g id="shape-37537431-0843-80ce-8006-2dbfc645054b"><g class="fills" id="fills-37537431-0843-80ce-8006-2dbfc645054b"><path d="M144,37 h28 a7,7 0 0 1 7,7 v21 a7,7 0 0 1 -7,7 h-28 a0,0 0 0 1 0,0 v-35 a0,0 0 0 1 0,0 z" x="144" y="37" transform="matrix(1.000000, 0.000000, 0.000000, 1.000000, 0.000000, 0.000000)" width="35" height="35" style="fill: rgb(200, 230, 201); fill-opacity: 1;"/></g><g id="strokes-38194b44-2b2d-80f6-8006-2f81be11f89e-37537431-0843-80ce-8006-2dbfc645054b" class="strokes"><g class="inner-stroke-shape" transform="matrix(1.000000, 0.000000, 0.000000, 1.000000, 0.000000, 0.000000)"><defs><clipPath id="inner-stroke-render-15-37537431-0843-80ce-8006-2dbfc645054b-0"><use href="#stroke-shape-render-15-37537431-0843-80ce-8006-2dbfc645054b-0"/></clipPath><path d="M144,37 h28 a7,7 0 0 1 7,7 v21 a7,7 0 0 1 -7,7 h-28 a0,0 0 0 1 0,0 v-35 a0,0 0 0 1 0,0 z" x="144" y="37" width="35" height="35" id="stroke-shape-render-15-37537431-0843-80ce-8006-2dbfc645054b-0" style="fill: none; stroke-width: 4; stroke: rgb(129, 199, 132); stroke-opacity: 1;"/></defs><use href="#stroke-shape-render-15-37537431-0843-80ce-8006-2dbfc645054b-0" clip-path="url('#inner-stroke-render-15-37537431-0843-80ce-8006-2dbfc645054b-0')"/></g></g></g></g></g></g></g></g></g><g id="shape-b5212b09-fcb5-8058-8006-2f81068f2240"><g transform="matrix(1.000000, 0.000000, 0.000000, 1.000000, 0.000000, 0.000000)" class="text-container" x="24" y="46" width="10" height="17" rx="0" ry="0"><defs><pattern patternUnits="objectBoundingBox" width="9.953125" height="19" id="fill-0-render-16-0"><g><rect width="9.953125" height="19" style="fill: rgb(0, 0, 0); fill-opacity: 1;"/></g></pattern></defs><g class="fills" id="fills-b5212b09-fcb5-8058-8006-2f81068f2240"><text x="24" y="63.5" dominant-baseline="ideographic" textLength="9.953125" lengthAdjust="spacingAndGlyphs" style="text-transform: none; font-family: &quot;Noto Sans&quot;; letter-spacing: 1px; font-style: normal; font-weight: 400; white-space: pre; font-size: 14px; text-decoration: none solid rgb(0, 0, 0); direction: ltr; fill: rgb(0, 0, 0); fill-opacity: 1;">A</text></g></g></g><g id="shape-b5212b09-fcb5-8058-8006-2f81068f223f"><g transform="matrix(1.000000, 0.000000, 0.000000, 1.000000, 0.000000, 0.000000)" class="text-container" x="57" y="46" width="9" height="17" rx="0" ry="0"><defs><pattern patternUnits="objectBoundingBox" width="8.7890625" height="19" id="fill-0-render-17-0"><g><rect width="8.7890625" height="19" style="fill: rgb(0, 0, 0); fill-opacity: 1;"/></g></pattern></defs><g class="fills" id="fills-b5212b09-fcb5-8058-8006-2f81068f223f"><text x="57" y="63.5" dominant-baseline="ideographic" textLength="8.7890625" lengthAdjust="spacingAndGlyphs" style="text-transform: none; font-family: &quot;Noto Sans&quot;; letter-spacing: 1px; font-style: normal; font-weight: 400; white-space: pre; font-size: 14px; text-decoration: none solid rgb(0, 0, 0); direction: ltr; fill: rgb(0, 0, 0); fill-opacity: 1;">T</text></g></g></g><g id="shape-b5212b09-fcb5-8058-8006-2f81068f2241"><g transform="matrix(1.000000, 0.000000, 0.000000, 1.000000, 0.000000, 0.000000)" class="text-container" x="90" y="46" width="10" height="17" rx="0" ry="0"><defs><pattern patternUnits="objectBoundingBox" width="9.8515625" height="19" id="fill-0-render-18-0"><g><rect width="9.8515625" height="19" style="fill: rgb(0, 0, 0); fill-opacity: 1;"/></g></pattern></defs><g class="fills" id="fills-b5212b09-fcb5-8058-8006-2f81068f2241"><text x="90" y="63.5" dominant-baseline="ideographic" textLength="9.8515625" lengthAdjust="spacingAndGlyphs" style="text-transform: none; font-family: &quot;Noto Sans&quot;; letter-spacing: 1px; font-style: normal; font-weight: 400; white-space: pre; font-size: 14px; text-decoration: none solid rgb(0, 0, 0); direction: ltr; fill: rgb(0, 0, 0); fill-opacity: 1;">C</text></g></g></g><g id="shape-b5212b09-fcb5-8058-8006-2f81068f2242"><g transform="matrix(1.000000, 0.000000, 0.000000, 1.000000, 0.000000, 0.000000)" class="text-container" x="123" y="46" width="10" height="17" rx="0" ry="0"><defs><pattern patternUnits="objectBoundingBox" width="9.8515625" height="19" id="fill-0-render-19-0"><g><rect width="9.8515625" height="19" style="fill: rgb(0, 0, 0); fill-opacity: 1;"/></g></pattern></defs><g class="fills" id="fills-b5212b09-fcb5-8058-8006-2f81068f2242"><text x="123" y="63.5" dominant-baseline="ideographic" textLength="9.8515625" lengthAdjust="spacingAndGlyphs" style="text-transform: none; font-family: &quot;Noto Sans&quot;; letter-spacing: 1px; font-style: normal; font-weight: 400; white-space: pre; font-size: 14px; text-decoration: none solid rgb(0, 0, 0); direction: ltr; fill: rgb(0, 0, 0); fill-opacity: 1;">C</text></g></g></g><g id="shape-b5212b09-fcb5-8058-8006-2f81068f2243"><g transform="matrix(1.000000, 0.000000, 0.000000, 1.000000, 0.000000, 0.000000)" class="text-container" x="156" y="46" width="12" height="17" rx="0" ry="0"><defs><pattern patternUnits="objectBoundingBox" width="11.1953125" height="19" id="fill-0-render-20-0"><g><rect width="11.1953125" height="19" style="fill: rgb(0, 0, 0); fill-opacity: 1;"/></g></pattern></defs><g class="fills" id="fills-b5212b09-fcb5-8058-8006-2f81068f2243"><text x="156" y="63.5" dominant-baseline="ideographic" textLength="11.1953125" lengthAdjust="spacingAndGlyphs" style="text-transform: none; font-family: &quot;Noto Sans&quot;; letter-spacing: 1px; font-style: normal; font-weight: 400; white-space: pre; font-size: 14px; text-decoration: none solid rgb(0, 0, 0); direction: ltr; fill: rgb(0, 0, 0); fill-opacity: 1;">G</text></g></g></g></g></g></g></g></g></g></g><g id="shape-91148aee-ed71-80f1-8006-2dc0787220cc"><g class="fills" id="fills-91148aee-ed71-80f1-8006-2dc0787220cc"><path d="M15.000,87.000L15.000,97.000L112.000,97.000L112.000,87.000"/></g><g id="strokes-38194b44-2b2d-80f6-8006-2f81be141473-91148aee-ed71-80f1-8006-2dc0787220cc" class="strokes"><g class="stroke-shape"><path d="M15.000,87.000L15.000,97.000L112.000,97.000L112.000,87.000" style="fill: none; stroke-width: 2; stroke: rgb(149, 117, 205); stroke-opacity: 1;"/></g></g></g><g id="shape-91148aee-ed71-80f1-8006-2dc0f002383f"><g class="fills" id="fills-91148aee-ed71-80f1-8006-2dc0f002383f"><path d="M81.000,113.000L81.000,123.000L178.000,123.000L178.000,113.000"/></g><g id="strokes-38194b44-2b2d-80f6-8006-2f81be147d60-91148aee-ed71-80f1-8006-2dc0f002383f" class="strokes"><g class="stroke-shape"><path d="M81.000,113.000L81.000,123.000L178.000,123.000L178.000,113.000" style="fill: none; stroke-width: 2; stroke: rgb(149, 117, 205); stroke-opacity: 1;"/></g></g></g><g id="shape-91148aee-ed71-80f1-8006-2dc0d3e8d456"><g class="fills" id="fills-91148aee-ed71-80f1-8006-2dc0d3e8d456"><path d="M143.000,22.000L143.000,12.000L46.000,12.000L46.000,22.000"/></g><g id="strokes-38194b44-2b2d-80f6-8006-2f81be1482ce-91148aee-ed71-80f1-8006-2dc0d3e8d456" class="strokes"><g class="stroke-shape"><path d="M143.000,22.000L143.000,12.000L46.000,12.000L46.000,22.000" style="fill: none; stroke-width: 2; stroke: rgb(149, 117, 205); stroke-opacity: 1;"/></g></g></g><g id="shape-91148aee-ed71-80f1-8006-2dc13edf6651"><g transform="matrix(1.000000, 0.000000, 0.000000, 1.000000, 0.000000, 0.000000)" class="text-container" x="49" y="79" width="28" height="17" rx="0" ry="0"><defs><pattern patternUnits="objectBoundingBox" width="27.3203125" height="19" id="fill-0-render-24-0"><g><rect width="27.3203125" height="19" style="fill: rgb(149, 117, 205); fill-opacity: 1;"/></g></pattern></defs><g class="fills" id="fills-91148aee-ed71-80f1-8006-2dc13edf6651"><text x="49" y="96.5" dominant-baseline="ideographic" textLength="27.3203125" lengthAdjust="spacingAndGlyphs" style="text-transform: none; font-family: &quot;Noto Sans&quot;; letter-spacing: 1px; font-style: normal; font-weight: 400; white-space: pre; font-size: 14px; text-decoration: none solid rgb(149, 117, 205); direction: ltr; fill: rgb(149, 117, 205); fill-opacity: 1;">ATC</text></g></g></g><g id="shape-2180ca2f-5423-8046-8006-2dc1794baacf"><g transform="matrix(1.000000, 0.000000, 0.000000, 1.000000, 0.000000, 0.000000)" class="text-container" x="81" y="14" width="28" height="17" rx="0" ry="0"><defs><pattern patternUnits="objectBoundingBox" width="27.921875" height="19" id="fill-0-render-25-0"><g><rect width="27.921875" height="19" style="fill: rgb(149, 117, 205); fill-opacity: 1;"/></g></pattern></defs><g class="fills" id="fills-2180ca2f-5423-8046-8006-2dc1794baacf"><text x="81" y="31.5" dominant-baseline="ideographic" textLength="27.921875" lengthAdjust="spacingAndGlyphs" style="text-transform: none; font-family: &quot;Noto Sans&quot;; letter-spacing: 1px; font-style: normal; font-weight: 400; white-space: pre; font-size: 14px; text-decoration: none solid rgb(149, 117, 205); direction: ltr; fill: rgb(149, 117, 205); fill-opacity: 1;">TCC</text></g></g></g></g></svg>