<svg width="154" height="120" viewBox="0 0 154 120" fill="none" xmlns="http://www.w3.org/2000/svg">
<path d="M146.054 47.3542C149.644 47.3542 152.554 50.2644 152.554 53.8542V64.8542C152.554 68.4441 149.644 71.3542 146.054 71.3542H127.401V47.3542H146.054Z" fill="#E8F5E9" stroke="#81C784"/>
<path d="M136.03 63.4702H136.474C136.946 63.4702 137.29 63.1782 137.506 62.5942L140.086 55.3102H140.386L142.99 62.9422C143.07 63.1422 143.166 63.2822 143.278 63.3622C143.39 63.4342 143.534 63.4702 143.71 63.4702H144.382V63.8542H140.662V63.4702H141.454C141.574 63.4702 141.674 63.4422 141.754 63.3862C141.834 63.3222 141.874 63.2502 141.874 63.1702C141.874 63.0662 141.858 62.9782 141.826 62.9062L141.262 61.3102H138.454L138.166 62.1142C138.054 62.4342 137.998 62.6662 137.998 62.8102C137.998 62.9862 138.042 63.1422 138.13 63.2782C138.218 63.4062 138.37 63.4702 138.586 63.4702H139.318V63.8542H136.03V63.4702ZM138.586 60.9262H141.13L139.882 57.2662L138.586 60.9262Z" fill="black"/>
<path d="M8.13206 47.3542H26.7854V71.3542H8.13206C4.54221 71.3542 1.63206 68.4441 1.63206 64.8542V53.8542C1.63206 50.2644 4.54221 47.3542 8.13206 47.3542Z" fill="#E8F5E9" stroke="#81C784"/>
<path d="M10.261 63.4702H10.705C11.177 63.4702 11.521 63.1782 11.737 62.5942L14.317 55.3102H14.617L17.221 62.9422C17.301 63.1422 17.397 63.2822 17.509 63.3622C17.621 63.4342 17.765 63.4702 17.941 63.4702H18.613V63.8542H14.893V63.4702H15.685C15.805 63.4702 15.905 63.4422 15.985 63.3862C16.065 63.3222 16.105 63.2502 16.105 63.1702C16.105 63.0662 16.089 62.9782 16.057 62.9062L15.493 61.3102H12.685L12.397 62.1142C12.285 62.4342 12.229 62.6662 12.229 62.8102C12.229 62.9862 12.273 63.1422 12.361 63.2782C12.449 63.4062 12.601 63.4702 12.817 63.4702H13.549V63.8542H10.261V63.4702ZM12.817 60.9262H15.361L14.113 57.2662L12.817 60.9262Z" fill="black"/>
<rect x="26.7859" y="47.3542" width="25.1538" height="24" fill="#E8F5E9" stroke="#81C784"/>
<path d="M37.2388 63.4702H38.3908C38.6068 63.4702 38.7148 63.3622 38.7148 63.1462V55.9822C38.7148 55.8702 38.6908 55.7902 38.6428 55.7422C38.5948 55.6862 38.5108 55.6582 38.3908 55.6582H37.9588C37.4548 55.6582 37.0188 55.9142 36.6508 56.4262C36.4188 56.7542 36.2628 57.1662 36.1828 57.6622C36.1028 58.1502 36.0628 58.5102 36.0628 58.7422H35.7268L35.8228 55.3102H42.7108L42.8068 58.7422H42.4708C42.4708 58.5102 42.4308 58.1502 42.3508 57.6622C42.2708 57.1662 42.1148 56.7542 41.8828 56.4262C41.5148 55.9142 41.0788 55.6582 40.5748 55.6582H40.1428C40.0228 55.6582 39.9388 55.6862 39.8908 55.7422C39.8428 55.7902 39.8188 55.8702 39.8188 55.9822V63.1462C39.8188 63.3622 39.9268 63.4702 40.1428 63.4702H41.2948V63.8542H37.2388V63.4702Z" fill="black"/>
<path d="M127.401 47.3542V71.3542H102.247V47.3542H127.401Z" fill="#E8F5E9" stroke="#81C784"/>
<path d="M114.716 64.0702C113.972 64.0702 113.332 63.8542 112.796 63.4222C112.26 62.9902 111.852 62.4262 111.572 61.7302C111.3 61.0262 111.164 60.2862 111.164 59.5102C111.164 58.7022 111.3 57.9622 111.572 57.2902C111.844 56.6182 112.232 56.0862 112.736 55.6942C113.24 55.2942 113.828 55.0942 114.5 55.0942C114.852 55.0942 115.184 55.1742 115.496 55.3342C115.808 55.4942 116.064 55.6662 116.264 55.8502C116.456 56.0262 116.584 56.1142 116.648 56.1142C116.712 56.1142 116.756 56.0942 116.78 56.0542C116.812 56.0142 116.844 55.9502 116.876 55.8622L117.104 55.1902H117.404L117.452 58.9102H117.116C116.94 58.1502 116.712 57.5142 116.432 57.0022C116.152 56.4822 115.844 56.0982 115.508 55.8502C115.18 55.6022 114.852 55.4782 114.524 55.4782C113.764 55.4782 113.224 55.8222 112.904 56.5102C112.592 57.1982 112.436 58.1982 112.436 59.5102C112.436 60.8622 112.6 61.8982 112.928 62.6182C113.256 63.3302 113.852 63.6862 114.716 63.6862C115.484 63.6862 116.068 63.4022 116.468 62.8342C116.876 62.2582 117.108 61.5622 117.164 60.7462H117.596C117.572 61.2182 117.472 61.7062 117.296 62.2102C117.128 62.7142 116.832 63.1502 116.408 63.5182C115.984 63.8862 115.42 64.0702 114.716 64.0702Z" fill="black"/>
<rect x="51.9397" y="47.3542" width="25.1538" height="24" fill="#E8F5E9" stroke="#81C784"/>
<path d="M64.3317 64.0702C63.5877 64.0702 62.9477 63.8542 62.4117 63.4222C61.8757 62.9902 61.4677 62.4262 61.1877 61.7302C60.9157 61.0262 60.7797 60.2862 60.7797 59.5102C60.7797 58.7022 60.9157 57.9622 61.1877 57.2902C61.4597 56.6182 61.8477 56.0862 62.3517 55.6942C62.8557 55.2942 63.4437 55.0942 64.1157 55.0942C64.4677 55.0942 64.7997 55.1742 65.1117 55.3342C65.4237 55.4942 65.6797 55.6662 65.8797 55.8502C66.0717 56.0262 66.1997 56.1142 66.2637 56.1142C66.3277 56.1142 66.3717 56.0942 66.3957 56.0542C66.4277 56.0142 66.4597 55.9502 66.4917 55.8622L66.7197 55.1902H67.0197L67.0677 58.9102H66.7317C66.5557 58.1502 66.3277 57.5142 66.0477 57.0022C65.7677 56.4822 65.4597 56.0982 65.1237 55.8502C64.7957 55.6022 64.4677 55.4782 64.1397 55.4782C63.3797 55.4782 62.8397 55.8222 62.5197 56.5102C62.2077 57.1982 62.0517 58.1982 62.0517 59.5102C62.0517 60.8622 62.2157 61.8982 62.5437 62.6182C62.8717 63.3302 63.4677 63.6862 64.3317 63.6862C65.0997 63.6862 65.6837 63.4022 66.0837 62.8342C66.4917 62.2582 66.7237 61.5622 66.7797 60.7462H67.2117C67.1877 61.2182 67.0877 61.7062 66.9117 62.2102C66.7437 62.7142 66.4477 63.1502 66.0237 63.5182C65.5997 63.8862 65.0357 64.0702 64.3317 64.0702Z" fill="black"/>
<rect x="77.0935" y="47.3542" width="25.1538" height="24" fill="#E8F5E9" stroke="#81C784"/>
<path d="M89.3704 64.0702C88.6824 64.0702 88.0824 63.8702 87.5704 63.4702C87.0664 63.0622 86.6784 62.5142 86.4064 61.8262C86.1424 61.1302 86.0104 60.3582 86.0104 59.5102C86.0104 58.7022 86.1464 57.9622 86.4184 57.2902C86.6904 56.6182 87.0784 56.0862 87.5824 55.6942C88.0864 55.2942 88.6744 55.0942 89.3464 55.0942C89.6984 55.0942 90.0304 55.1742 90.3424 55.3342C90.6544 55.4942 90.9104 55.6662 91.1104 55.8502C91.3024 56.0262 91.4304 56.1142 91.4944 56.1142C91.5584 56.1142 91.6024 56.0942 91.6264 56.0542C91.6584 56.0142 91.6904 55.9502 91.7224 55.8622L91.9504 55.1902H92.2504L92.2984 58.9102H91.9624C91.7864 58.1502 91.5584 57.5142 91.2784 57.0022C90.9984 56.4822 90.6904 56.0982 90.3544 55.8502C90.0264 55.6022 89.6984 55.4782 89.3704 55.4782C88.8184 55.4782 88.3904 55.6462 88.0864 55.9822C87.7824 56.3102 87.5704 56.7702 87.4504 57.3622C87.3384 57.9542 87.2824 58.6942 87.2824 59.5822C87.2824 60.4702 87.3384 61.2102 87.4504 61.8022C87.5704 62.3942 87.7824 62.8582 88.0864 63.1942C88.3904 63.5222 88.8184 63.6862 89.3704 63.6862C89.6664 63.6862 89.9504 63.5822 90.2224 63.3742C90.4944 63.1582 90.7144 62.8862 90.8824 62.5582C91.0584 62.2302 91.1464 61.9062 91.1464 61.5862V60.5062C91.1464 60.3942 91.1184 60.3142 91.0624 60.2662C91.0144 60.2102 90.9344 60.1822 90.8224 60.1822H89.4904V59.7982H93.4504V60.1822H92.5744C92.4624 60.1822 92.3784 60.2102 92.3224 60.2662C92.2744 60.3142 92.2504 60.3942 92.2504 60.5062V64.0102H91.8664V62.9182C91.8664 62.7822 91.8504 62.6822 91.8184 62.6182C91.7864 62.5462 91.7344 62.5102 91.6624 62.5102C91.5744 62.5102 91.4984 62.5422 91.4344 62.6062C91.3704 62.6702 91.3064 62.7582 91.2424 62.8702C91.0584 63.1662 90.7984 63.4422 90.4624 63.6982C90.1264 63.9462 89.7624 64.0702 89.3704 64.0702Z" fill="black"/>
<path d="M1.2693 81.8705L77.7307 81.8542" stroke="black" stroke-linecap="round"/>
<path d="M51.4397 101.87L127.901 101.854" stroke="black" stroke-linecap="round"/>
<path d="M27.5573 94.7051H28.0013C28.4733 94.7051 28.8173 94.4131 29.0333 93.8291L31.6133 86.5451H31.9133L34.5173 94.1771C34.5973 94.3771 34.6933 94.5171 34.8053 94.5971C34.9173 94.6691 35.0613 94.7051 35.2373 94.7051H35.9093V95.0891H32.1893V94.7051H32.9813C33.1013 94.7051 33.2013 94.6771 33.2813 94.6211C33.3613 94.5571 33.4013 94.4851 33.4013 94.4051C33.4013 94.3011 33.3853 94.2131 33.3533 94.1411L32.7893 92.5451H29.9813L29.6933 93.3491C29.5813 93.6691 29.5253 93.9011 29.5253 94.0451C29.5253 94.2211 29.5693 94.3771 29.6573 94.5131C29.7453 94.6411 29.8973 94.7051 30.1133 94.7051H30.8453V95.0891H27.5573V94.7051ZM30.1133 92.1611H32.6573L31.4093 88.5011L30.1133 92.1611ZM37.4907 94.7051H38.6427C38.8587 94.7051 38.9667 94.5971 38.9667 94.3811V87.2171C38.9667 87.1051 38.9427 87.0251 38.8947 86.9771C38.8467 86.9211 38.7627 86.8931 38.6427 86.8931H38.2107C37.7067 86.8931 37.2707 87.1491 36.9027 87.6611C36.6707 87.9891 36.5147 88.4011 36.4347 88.8971C36.3547 89.3851 36.3147 89.7451 36.3147 89.9771H35.9787L36.0747 86.5451H42.9627L43.0587 89.9771H42.7227C42.7227 89.7451 42.6827 89.3851 42.6027 88.8971C42.5227 88.4011 42.3667 87.9891 42.1347 87.6611C41.7667 87.1491 41.3307 86.8931 40.8267 86.8931H40.3947C40.2747 86.8931 40.1907 86.9211 40.1427 86.9771C40.0947 87.0251 40.0707 87.1051 40.0707 87.2171V94.3811C40.0707 94.5971 40.1787 94.7051 40.3947 94.7051H41.5467V95.0891H37.4907V94.7051ZM48.0731 95.3051C47.3291 95.3051 46.6891 95.0891 46.1531 94.6571C45.6171 94.2251 45.2091 93.6611 44.9291 92.9651C44.6571 92.2611 44.5211 91.5211 44.5211 90.7451C44.5211 89.9371 44.6571 89.1971 44.9291 88.5251C45.2011 87.8531 45.5891 87.3211 46.0931 86.9291C46.5971 86.5291 47.1851 86.3291 47.8571 86.3291C48.2091 86.3291 48.5411 86.4091 48.8531 86.5691C49.1651 86.7291 49.4211 86.9011 49.6211 87.0851C49.8131 87.2611 49.9411 87.3491 50.0051 87.3491C50.0691 87.3491 50.1131 87.3291 50.1371 87.2891C50.1691 87.2491 50.2011 87.1851 50.2331 87.0971L50.4611 86.4251H50.7611L50.8091 90.1451H50.4731C50.2971 89.3851 50.0691 88.7491 49.7891 88.2371C49.5091 87.7171 49.2011 87.3331 48.8651 87.0851C48.5371 86.8371 48.2091 86.7131 47.8811 86.7131C47.1211 86.7131 46.5811 87.0571 46.2611 87.7451C45.9491 88.4331 45.7931 89.4331 45.7931 90.7451C45.7931 92.0971 45.9571 93.1331 46.2851 93.8531C46.6131 94.5651 47.2091 94.9211 48.0731 94.9211C48.8411 94.9211 49.4251 94.6371 49.8251 94.0691C50.2331 93.4931 50.4651 92.7971 50.5211 91.9811H50.9531C50.9291 92.4531 50.8291 92.9411 50.6531 93.4451C50.4851 93.9491 50.1891 94.3851 49.7651 94.7531C49.3411 95.1211 48.7771 95.3051 48.0731 95.3051Z" fill="black"/>
<path d="M26.2859 36.8705L102.747 36.8542" stroke="black" stroke-linecap="round"/>
<path d="M77.0331 16.8542L153.495 16.838" stroke="black" stroke-linecap="round"/>
<path d="M81.5677 115.305C80.8237 115.305 80.1837 115.089 79.6477 114.657C79.1117 114.225 78.7037 113.661 78.4237 112.965C78.1517 112.261 78.0157 111.521 78.0157 110.745C78.0157 109.937 78.1517 109.197 78.4237 108.525C78.6957 107.853 79.0837 107.321 79.5877 106.929C80.0917 106.529 80.6797 106.329 81.3517 106.329C81.7037 106.329 82.0357 106.409 82.3477 106.569C82.6597 106.729 82.9157 106.901 83.1157 107.085C83.3077 107.261 83.4357 107.349 83.4997 107.349C83.5637 107.349 83.6077 107.329 83.6317 107.289C83.6637 107.249 83.6957 107.185 83.7277 107.097L83.9557 106.425H84.2557L84.3037 110.145H83.9677C83.7917 109.385 83.5637 108.749 83.2837 108.237C83.0037 107.717 82.6957 107.333 82.3597 107.085C82.0317 106.837 81.7037 106.713 81.3757 106.713C80.6157 106.713 80.0757 107.057 79.7557 107.745C79.4437 108.433 79.2877 109.433 79.2877 110.745C79.2877 112.097 79.4517 113.133 79.7797 113.853C80.1077 114.565 80.7037 114.921 81.5677 114.921C82.3357 114.921 82.9197 114.637 83.3197 114.069C83.7277 113.493 83.9597 112.797 84.0157 111.981H84.4477C84.4237 112.453 84.3237 112.941 84.1477 113.445C83.9797 113.949 83.6837 114.385 83.2597 114.753C82.8357 115.121 82.2717 115.305 81.5677 115.305ZM89.4148 115.305C88.7268 115.305 88.1268 115.105 87.6148 114.705C87.1108 114.297 86.7228 113.749 86.4508 113.061C86.1868 112.365 86.0548 111.593 86.0548 110.745C86.0548 109.937 86.1908 109.197 86.4628 108.525C86.7348 107.853 87.1228 107.321 87.6268 106.929C88.1308 106.529 88.7188 106.329 89.3908 106.329C89.7428 106.329 90.0748 106.409 90.3868 106.569C90.6988 106.729 90.9548 106.901 91.1548 107.085C91.3468 107.261 91.4748 107.349 91.5388 107.349C91.6028 107.349 91.6468 107.329 91.6708 107.289C91.7028 107.249 91.7348 107.185 91.7668 107.097L91.9948 106.425H92.2948L92.3428 110.145H92.0068C91.8308 109.385 91.6028 108.749 91.3228 108.237C91.0428 107.717 90.7348 107.333 90.3988 107.085C90.0708 106.837 89.7428 106.713 89.4148 106.713C88.8628 106.713 88.4348 106.881 88.1308 107.217C87.8268 107.545 87.6148 108.005 87.4948 108.597C87.3828 109.189 87.3268 109.929 87.3268 110.817C87.3268 111.705 87.3828 112.445 87.4948 113.037C87.6148 113.629 87.8268 114.093 88.1308 114.429C88.4348 114.757 88.8628 114.921 89.4148 114.921C89.7108 114.921 89.9948 114.817 90.2668 114.609C90.5388 114.393 90.7588 114.121 90.9268 113.793C91.1028 113.465 91.1908 113.141 91.1908 112.821V111.741C91.1908 111.629 91.1628 111.549 91.1068 111.501C91.0588 111.445 90.9788 111.417 90.8668 111.417H89.5348V111.033H93.4948V111.417H92.6188C92.5068 111.417 92.4228 111.445 92.3668 111.501C92.3188 111.549 92.2948 111.629 92.2948 111.741V115.245H91.9108V114.153C91.9108 114.017 91.8948 113.917 91.8628 113.853C91.8308 113.781 91.7788 113.745 91.7068 113.745C91.6188 113.745 91.5428 113.777 91.4788 113.841C91.4148 113.905 91.3508 113.993 91.2868 114.105C91.1028 114.401 90.8428 114.677 90.5068 114.933C90.1708 115.181 89.8068 115.305 89.4148 115.305ZM98.2435 115.305C97.4995 115.305 96.8595 115.089 96.3235 114.657C95.7875 114.225 95.3795 113.661 95.0995 112.965C94.8275 112.261 94.6915 111.521 94.6915 110.745C94.6915 109.937 94.8275 109.197 95.0995 108.525C95.3715 107.853 95.7595 107.321 96.2635 106.929C96.7675 106.529 97.3555 106.329 98.0275 106.329C98.3795 106.329 98.7115 106.409 99.0235 106.569C99.3355 106.729 99.5915 106.901 99.7915 107.085C99.9835 107.261 100.112 107.349 100.176 107.349C100.24 107.349 100.284 107.329 100.308 107.289C100.34 107.249 100.372 107.185 100.404 107.097L100.632 106.425H100.932L100.98 110.145H100.644C100.468 109.385 100.24 108.749 99.9595 108.237C99.6795 107.717 99.3715 107.333 99.0355 107.085C98.7075 106.837 98.3795 106.713 98.0515 106.713C97.2915 106.713 96.7515 107.057 96.4315 107.745C96.1195 108.433 95.9635 109.433 95.9635 110.745C95.9635 112.097 96.1275 113.133 96.4555 113.853C96.7835 114.565 97.3795 114.921 98.2435 114.921C99.0115 114.921 99.5955 114.637 99.9955 114.069C100.404 113.493 100.636 112.797 100.692 111.981H101.124C101.1 112.453 101 112.941 100.824 113.445C100.656 113.949 100.36 114.385 99.9355 114.753C99.5115 115.121 98.9475 115.305 98.2435 115.305Z" fill="black"/>
<path d="M54.1946 31.4702H55.3466C55.5626 31.4702 55.6706 31.3622 55.6706 31.1462V23.9822C55.6706 23.8702 55.6466 23.7902 55.5986 23.7422C55.5506 23.6862 55.4666 23.6582 55.3466 23.6582H54.9146C54.4106 23.6582 53.9746 23.9142 53.6066 24.4262C53.3746 24.7542 53.2186 25.1662 53.1386 25.6622C53.0586 26.1502 53.0186 26.5102 53.0186 26.7422H52.6826L52.7786 23.3102H59.6666L59.7626 26.7422H59.4266C59.4266 26.5102 59.3866 26.1502 59.3066 25.6622C59.2266 25.1662 59.0706 24.7542 58.8386 24.4262C58.4706 23.9142 58.0346 23.6582 57.5306 23.6582H57.0986C56.9786 23.6582 56.8946 23.6862 56.8466 23.7422C56.7986 23.7902 56.7746 23.8702 56.7746 23.9822V31.1462C56.7746 31.3622 56.8826 31.4702 57.0986 31.4702H58.2506V31.8542H54.1946V31.4702ZM64.777 32.0702C64.033 32.0702 63.393 31.8542 62.857 31.4222C62.321 30.9902 61.913 30.4262 61.633 29.7302C61.361 29.0262 61.225 28.2862 61.225 27.5102C61.225 26.7022 61.361 25.9622 61.633 25.2902C61.905 24.6182 62.293 24.0862 62.797 23.6942C63.301 23.2942 63.889 23.0942 64.561 23.0942C64.913 23.0942 65.245 23.1742 65.557 23.3342C65.869 23.4942 66.125 23.6662 66.325 23.8502C66.517 24.0262 66.645 24.1142 66.709 24.1142C66.773 24.1142 66.817 24.0942 66.841 24.0542C66.873 24.0142 66.905 23.9502 66.937 23.8622L67.165 23.1902H67.465L67.513 26.9102H67.177C67.001 26.1502 66.773 25.5142 66.493 25.0022C66.213 24.4822 65.905 24.0982 65.569 23.8502C65.241 23.6022 64.913 23.4782 64.585 23.4782C63.825 23.4782 63.285 23.8222 62.965 24.5102C62.653 25.1982 62.497 26.1982 62.497 27.5102C62.497 28.8622 62.661 29.8982 62.989 30.6182C63.317 31.3302 63.913 31.6862 64.777 31.6862C65.545 31.6862 66.129 31.4022 66.529 30.8342C66.937 30.2582 67.169 29.5622 67.225 28.7462H67.657C67.633 29.2182 67.533 29.7062 67.357 30.2102C67.189 30.7142 66.893 31.1502 66.469 31.5182C66.045 31.8862 65.481 32.0702 64.777 32.0702ZM72.624 32.0702C71.936 32.0702 71.336 31.8702 70.824 31.4702C70.32 31.0622 69.932 30.5142 69.66 29.8262C69.396 29.1302 69.264 28.3582 69.264 27.5102C69.264 26.7022 69.4 25.9622 69.672 25.2902C69.944 24.6182 70.332 24.0862 70.836 23.6942C71.34 23.2942 71.928 23.0942 72.6 23.0942C72.952 23.0942 73.284 23.1742 73.596 23.3342C73.908 23.4942 74.164 23.6662 74.364 23.8502C74.556 24.0262 74.684 24.1142 74.748 24.1142C74.812 24.1142 74.856 24.0942 74.88 24.0542C74.912 24.0142 74.944 23.9502 74.976 23.8622L75.204 23.1902H75.504L75.552 26.9102H75.216C75.04 26.1502 74.812 25.5142 74.532 25.0022C74.252 24.4822 73.944 24.0982 73.608 23.8502C73.28 23.6022 72.952 23.4782 72.624 23.4782C72.072 23.4782 71.644 23.6462 71.34 23.9822C71.036 24.3102 70.824 24.7702 70.704 25.3622C70.592 25.9542 70.536 26.6942 70.536 27.5822C70.536 28.4702 70.592 29.2102 70.704 29.8022C70.824 30.3942 71.036 30.8582 71.34 31.1942C71.644 31.5222 72.072 31.6862 72.624 31.6862C72.92 31.6862 73.204 31.5822 73.476 31.3742C73.748 31.1582 73.968 30.8862 74.136 30.5582C74.312 30.2302 74.4 29.9062 74.4 29.5862V28.5062C74.4 28.3942 74.372 28.3142 74.316 28.2662C74.268 28.2102 74.188 28.1822 74.076 28.1822H72.744V27.7982H76.704V28.1822H75.828C75.716 28.1822 75.632 28.2102 75.576 28.2662C75.528 28.3142 75.504 28.3942 75.504 28.5062V32.0102H75.12V30.9182C75.12 30.7822 75.104 30.6822 75.072 30.6182C75.04 30.5462 74.988 30.5102 74.916 30.5102C74.828 30.5102 74.752 30.5422 74.688 30.6062C74.624 30.6702 74.56 30.7582 74.496 30.8702C74.312 31.1662 74.052 31.4422 73.716 31.6982C73.38 31.9462 73.016 32.0702 72.624 32.0702Z" fill="black"/>
<path d="M106.778 12.054C106.09 12.054 105.49 11.854 104.978 11.454C104.474 11.046 104.086 10.498 103.814 9.81001C103.55 9.11401 103.418 8.34201 103.418 7.49401C103.418 6.68601 103.554 5.94601 103.826 5.27401C104.098 4.60201 104.486 4.07001 104.99 3.67801C105.494 3.27801 106.082 3.07801 106.754 3.07801C107.106 3.07801 107.438 3.15801 107.75 3.31801C108.062 3.47801 108.318 3.65001 108.518 3.83401C108.71 4.01001 108.838 4.09801 108.902 4.09801C108.966 4.09801 109.01 4.07801 109.034 4.03801C109.066 3.99801 109.098 3.93401 109.13 3.84601L109.358 3.17401H109.658L109.706 6.89401H109.37C109.194 6.13401 108.966 5.49801 108.686 4.98601C108.406 4.46601 108.098 4.08201 107.762 3.83401C107.434 3.58601 107.106 3.46201 106.778 3.46201C106.226 3.46201 105.798 3.63001 105.494 3.96601C105.19 4.29401 104.978 4.75401 104.858 5.34601C104.746 5.93801 104.69 6.67801 104.69 7.56601C104.69 8.45401 104.746 9.19401 104.858 9.78601C104.978 10.378 105.19 10.842 105.494 11.178C105.798 11.506 106.226 11.67 106.778 11.67C107.074 11.67 107.358 11.566 107.63 11.358C107.902 11.142 108.122 10.87 108.29 10.542C108.466 10.214 108.554 9.89001 108.554 9.57001V8.49001C108.554 8.37801 108.526 8.29801 108.47 8.25001C108.422 8.19401 108.342 8.16601 108.23 8.16601H106.898V7.78201H110.858V8.16601H109.982C109.87 8.16601 109.786 8.19401 109.73 8.25001C109.682 8.29801 109.658 8.37801 109.658 8.49001V11.994H109.274V10.902C109.274 10.766 109.258 10.666 109.226 10.602C109.194 10.53 109.142 10.494 109.07 10.494C108.982 10.494 108.906 10.526 108.842 10.59C108.778 10.654 108.714 10.742 108.65 10.854C108.466 11.15 108.206 11.426 107.87 11.682C107.534 11.93 107.17 12.054 106.778 12.054ZM115.606 12.054C114.862 12.054 114.222 11.838 113.686 11.406C113.15 10.974 112.742 10.41 112.462 9.71401C112.19 9.01001 112.054 8.27001 112.054 7.49401C112.054 6.68601 112.19 5.94601 112.462 5.27401C112.734 4.60201 113.122 4.07001 113.626 3.67801C114.13 3.27801 114.718 3.07801 115.39 3.07801C115.742 3.07801 116.074 3.15801 116.386 3.31801C116.698 3.47801 116.954 3.65001 117.154 3.83401C117.346 4.01001 117.474 4.09801 117.538 4.09801C117.602 4.09801 117.646 4.07801 117.67 4.03801C117.702 3.99801 117.734 3.93401 117.766 3.84601L117.994 3.17401H118.294L118.342 6.89401H118.006C117.83 6.13401 117.602 5.49801 117.322 4.98601C117.042 4.46601 116.734 4.08201 116.398 3.83401C116.07 3.58601 115.742 3.46201 115.414 3.46201C114.654 3.46201 114.114 3.80601 113.794 4.49401C113.482 5.18201 113.326 6.18201 113.326 7.49401C113.326 8.84601 113.49 9.88201 113.818 10.602C114.146 11.314 114.742 11.67 115.606 11.67C116.374 11.67 116.958 11.386 117.358 10.818C117.766 10.242 117.998 9.54601 118.054 8.73001H118.486C118.462 9.20201 118.362 9.69001 118.186 10.194C118.018 10.698 117.722 11.134 117.298 11.502C116.874 11.87 116.31 12.054 115.606 12.054ZM119.184 11.454H119.628C120.1 11.454 120.444 11.162 120.66 10.578L123.24 3.29401H123.54L126.144 10.926C126.224 11.126 126.32 11.266 126.432 11.346C126.544 11.418 126.688 11.454 126.864 11.454H127.536V11.838H123.816V11.454H124.608C124.728 11.454 124.828 11.426 124.908 11.37C124.988 11.306 125.028 11.234 125.028 11.154C125.028 11.05 125.012 10.962 124.98 10.89L124.416 9.29401H121.608L121.32 10.098C121.208 10.418 121.152 10.65 121.152 10.794C121.152 10.97 121.196 11.126 121.284 11.262C121.372 11.39 121.524 11.454 121.74 11.454H122.472V11.838H119.184V11.454ZM121.74 8.91001H124.284L123.036 5.25001L121.74 8.91001Z" fill="black"/>
</svg>
