<svg width="329" height="91" viewBox="0 0 329 91" fill="none" xmlns="http://www.w3.org/2000/svg">
<rect x="176.708" y="0.701965" width="25.1538" height="24" fill="#E8F5E9" stroke="#81C784"/>
<path d="M321.131 65.702C324.721 65.702 327.631 68.6121 327.631 72.202V83.202C327.631 86.7918 324.721 89.702 321.131 89.702H302.478V65.702H321.131Z" fill="#E8F5E9" stroke="#81C784"/>
<path d="M311.107 81.818H311.551C312.023 81.818 312.367 81.526 312.583 80.942L315.163 73.658H315.463L318.067 81.29C318.147 81.49 318.243 81.63 318.355 81.71C318.467 81.782 318.611 81.818 318.787 81.818H319.459V82.202H315.739V81.818H316.531C316.651 81.818 316.751 81.79 316.831 81.734C316.911 81.67 316.951 81.598 316.951 81.518C316.951 81.414 316.935 81.326 316.903 81.254L316.339 79.658H313.531L313.243 80.462C313.131 80.782 313.075 81.014 313.075 81.158C313.075 81.334 313.119 81.49 313.207 81.626C313.295 81.754 313.447 81.818 313.663 81.818H314.395V82.202H311.107V81.818ZM313.663 79.274H316.207L314.959 75.614L313.663 79.274Z" fill="black"/>
<path d="M7.13166 0.701965H25.785V24.702H7.13166C3.54181 24.702 0.63166 21.7918 0.63166 18.202V7.20197C0.63166 3.61211 3.54181 0.701965 7.13166 0.701965Z" fill="#E8F5E9" stroke="#81C784"/>
<path d="M9.26056 16.818H9.70456C10.1766 16.818 10.5206 16.526 10.7366 15.942L13.3166 8.65803H13.6166L16.2206 16.29C16.3006 16.49 16.3966 16.63 16.5086 16.71C16.6206 16.782 16.7646 16.818 16.9406 16.818H17.6126V17.202H13.8926V16.818H14.6846C14.8046 16.818 14.9046 16.79 14.9846 16.734C15.0646 16.67 15.1046 16.598 15.1046 16.518C15.1046 16.414 15.0886 16.326 15.0566 16.254L14.4926 14.658H11.6846L11.3966 15.462C11.2846 15.782 11.2286 16.014 11.2286 16.158C11.2286 16.334 11.2726 16.49 11.3606 16.626C11.4486 16.754 11.6006 16.818 11.8166 16.818H12.5486V17.202H9.26056V16.818ZM11.8166 14.274H14.3606L13.1126 10.614L11.8166 14.274Z" fill="black"/>
<path d="M132.901 65.702H151.554V89.702H132.901C129.311 89.702 126.401 86.7918 126.401 83.202V72.202C126.401 68.6121 129.311 65.702 132.901 65.702Z" fill="#E8F5E9" stroke="#81C784"/>
<rect x="201.862" y="0.701965" width="25.1538" height="24" fill="#E8F5E9" stroke="#81C784"/>
<rect x="151.555" y="0.701965" width="25.1538" height="24" fill="#E8F5E9" stroke="#81C784"/>
<rect x="277.324" y="65.702" width="25.1538" height="24" fill="#E8F5E9" stroke="#81C784"/>
<path d="M285.953 81.818H286.397C286.869 81.818 287.213 81.526 287.429 80.942L290.009 73.658H290.309L292.913 81.29C292.993 81.49 293.089 81.63 293.201 81.71C293.313 81.782 293.457 81.818 293.633 81.818H294.305V82.202H290.585V81.818H291.377C291.497 81.818 291.597 81.79 291.677 81.734C291.757 81.67 291.797 81.598 291.797 81.518C291.797 81.414 291.781 81.326 291.749 81.254L291.185 79.658H288.377L288.089 80.462C287.977 80.782 287.921 81.014 287.921 81.158C287.921 81.334 287.965 81.49 288.053 81.626C288.141 81.754 288.293 81.818 288.509 81.818H289.241V82.202H285.953V81.818ZM288.509 79.274H291.053L289.805 75.614L288.509 79.274Z" fill="black"/>
<rect x="25.7855" y="0.701965" width="25.1538" height="24" fill="#E8F5E9" stroke="#81C784"/>
<path d="M36.2384 16.818H37.3904C37.6064 16.818 37.7144 16.71 37.7144 16.494V9.33003C37.7144 9.21803 37.6904 9.13803 37.6424 9.09003C37.5944 9.03403 37.5104 9.00603 37.3904 9.00603H36.9584C36.4544 9.00603 36.0184 9.26203 35.6504 9.77403C35.4184 10.102 35.2624 10.514 35.1824 11.01C35.1024 11.498 35.0624 11.858 35.0624 12.09H34.7264L34.8224 8.65803H41.7104L41.8064 12.09H41.4704C41.4704 11.858 41.4304 11.498 41.3504 11.01C41.2704 10.514 41.1144 10.102 40.8824 9.77403C40.5144 9.26203 40.0784 9.00603 39.5744 9.00603H39.1424C39.0224 9.00603 38.9384 9.03403 38.8904 9.09003C38.8424 9.13803 38.8184 9.21803 38.8184 9.33003V16.494C38.8184 16.71 38.9264 16.818 39.1424 16.818H40.2944V17.202H36.2384V16.818Z" fill="black"/>
<rect x="151.555" y="65.702" width="25.1538" height="24" fill="#E8F5E9" stroke="#81C784"/>
<rect x="101.247" y="0.701965" width="25.1538" height="24" fill="#E8F5E9" stroke="#81C784"/>
<path d="M113.716 17.418C112.972 17.418 112.332 17.202 111.796 16.77C111.26 16.338 110.852 15.774 110.572 15.078C110.3 14.374 110.164 13.634 110.164 12.858C110.164 12.05 110.3 11.31 110.572 10.638C110.844 9.96603 111.232 9.43403 111.736 9.04203C112.24 8.64203 112.828 8.44203 113.5 8.44203C113.852 8.44203 114.184 8.52203 114.496 8.68203C114.808 8.84203 115.064 9.01403 115.264 9.19803C115.456 9.37403 115.584 9.46203 115.648 9.46203C115.712 9.46203 115.756 9.44203 115.78 9.40203C115.812 9.36203 115.844 9.29803 115.876 9.21003L116.104 8.53803H116.404L116.452 12.258H116.116C115.94 11.498 115.712 10.862 115.432 10.35C115.152 9.83003 114.844 9.44603 114.508 9.19803C114.18 8.95003 113.852 8.82603 113.524 8.82603C112.764 8.82603 112.224 9.17003 111.904 9.85803C111.592 10.546 111.436 11.546 111.436 12.858C111.436 14.21 111.6 15.246 111.928 15.966C112.256 16.678 112.852 17.034 113.716 17.034C114.484 17.034 115.068 16.75 115.468 16.182C115.876 15.606 116.108 14.91 116.164 14.094H116.596C116.572 14.566 116.472 15.054 116.296 15.558C116.128 16.062 115.832 16.498 115.408 16.866C114.984 17.234 114.42 17.418 113.716 17.418Z" fill="black"/>
<rect x="227.016" y="65.702" width="25.1538" height="24" fill="#E8F5E9" stroke="#81C784"/>
<rect x="50.9393" y="0.701965" width="25.1538" height="24" fill="#E8F5E9" stroke="#81C784"/>
<path d="M63.4082 17.418C62.6642 17.418 62.0242 17.202 61.4882 16.77C60.9522 16.338 60.5442 15.774 60.2642 15.078C59.9922 14.374 59.8562 13.634 59.8562 12.858C59.8562 12.05 59.9922 11.31 60.2642 10.638C60.5362 9.96603 60.9242 9.43403 61.4282 9.04203C61.9322 8.64203 62.5202 8.44203 63.1922 8.44203C63.5442 8.44203 63.8762 8.52203 64.1882 8.68203C64.5002 8.84203 64.7562 9.01403 64.9562 9.19803C65.1482 9.37403 65.2762 9.46203 65.3402 9.46203C65.4042 9.46203 65.4482 9.44203 65.4722 9.40203C65.5042 9.36203 65.5362 9.29803 65.5682 9.21003L65.7962 8.53803H66.0962L66.1442 12.258H65.8082C65.6322 11.498 65.4042 10.862 65.1242 10.35C64.8442 9.83003 64.5362 9.44603 64.2002 9.19803C63.8722 8.95003 63.5442 8.82603 63.2162 8.82603C62.4562 8.82603 61.9162 9.17003 61.5962 9.85803C61.2842 10.546 61.1282 11.546 61.1282 12.858C61.1282 14.21 61.2922 15.246 61.6202 15.966C61.9482 16.678 62.5442 17.034 63.4082 17.034C64.1762 17.034 64.7602 16.75 65.1602 16.182C65.5682 15.606 65.8002 14.91 65.8562 14.094H66.2882C66.2642 14.566 66.1642 15.054 65.9882 15.558C65.8202 16.062 65.5242 16.498 65.1002 16.866C64.6762 17.234 64.1122 17.418 63.4082 17.418Z" fill="black"/>
<rect x="176.708" y="65.702" width="25.1538" height="24" fill="#E8F5E9" stroke="#81C784"/>
<path d="M245.67 0.701965C249.259 0.701965 252.17 3.61211 252.17 7.20197V18.202C252.17 21.7918 249.259 24.702 245.67 24.702H227.016V0.701965H245.67Z" fill="#E8F5E9" stroke="#81C784"/>
<rect x="126.401" y="0.701965" width="25.1538" height="24" fill="#E8F5E9" stroke="#81C784"/>
<rect x="252.17" y="65.702" width="25.1538" height="24" fill="#E8F5E9" stroke="#81C784"/>
<path d="M264.639 82.418C263.895 82.418 263.255 82.202 262.719 81.77C262.183 81.338 261.775 80.774 261.495 80.078C261.223 79.374 261.087 78.634 261.087 77.858C261.087 77.05 261.223 76.31 261.495 75.638C261.767 74.966 262.155 74.434 262.659 74.042C263.163 73.642 263.751 73.442 264.423 73.442C264.775 73.442 265.107 73.522 265.419 73.682C265.731 73.842 265.987 74.014 266.187 74.198C266.379 74.374 266.507 74.462 266.571 74.462C266.635 74.462 266.679 74.442 266.703 74.402C266.735 74.362 266.767 74.298 266.799 74.21L267.027 73.538H267.327L267.375 77.258H267.039C266.863 76.498 266.635 75.862 266.355 75.35C266.075 74.83 265.767 74.446 265.431 74.198C265.103 73.95 264.775 73.826 264.447 73.826C263.687 73.826 263.147 74.17 262.827 74.858C262.515 75.546 262.359 76.546 262.359 77.858C262.359 79.21 262.523 80.246 262.851 80.966C263.179 81.678 263.775 82.034 264.639 82.034C265.407 82.034 265.991 81.75 266.391 81.182C266.799 80.606 267.031 79.91 267.087 79.094H267.519C267.495 79.566 267.395 80.054 267.219 80.558C267.051 81.062 266.755 81.498 266.331 81.866C265.907 82.234 265.343 82.418 264.639 82.418Z" fill="black"/>
<rect x="76.0931" y="0.701965" width="25.1538" height="24" fill="#E8F5E9" stroke="#81C784"/>
<path d="M88.37 17.418C87.682 17.418 87.082 17.218 86.57 16.818C86.066 16.41 85.678 15.862 85.406 15.174C85.142 14.478 85.01 13.706 85.01 12.858C85.01 12.05 85.146 11.31 85.418 10.638C85.69 9.96603 86.078 9.43403 86.582 9.04203C87.086 8.64203 87.674 8.44203 88.346 8.44203C88.698 8.44203 89.03 8.52203 89.342 8.68203C89.654 8.84203 89.91 9.01403 90.11 9.19803C90.302 9.37403 90.43 9.46203 90.494 9.46203C90.558 9.46203 90.602 9.44203 90.626 9.40203C90.658 9.36203 90.69 9.29803 90.722 9.21003L90.95 8.53803H91.25L91.298 12.258H90.962C90.786 11.498 90.558 10.862 90.278 10.35C89.998 9.83003 89.69 9.44603 89.354 9.19803C89.026 8.95003 88.698 8.82603 88.37 8.82603C87.818 8.82603 87.39 8.99403 87.086 9.33003C86.782 9.65803 86.57 10.118 86.45 10.71C86.338 11.302 86.282 12.042 86.282 12.93C86.282 13.818 86.338 14.558 86.45 15.15C86.57 15.742 86.782 16.206 87.086 16.542C87.39 16.87 87.818 17.034 88.37 17.034C88.666 17.034 88.95 16.93 89.222 16.722C89.494 16.506 89.714 16.234 89.882 15.906C90.058 15.578 90.146 15.254 90.146 14.934V13.854C90.146 13.742 90.118 13.662 90.062 13.614C90.014 13.558 89.934 13.53 89.822 13.53H88.49V13.146H92.45V13.53H91.574C91.462 13.53 91.378 13.558 91.322 13.614C91.274 13.662 91.25 13.742 91.25 13.854V17.358H90.866V16.266C90.866 16.13 90.85 16.03 90.818 15.966C90.786 15.894 90.734 15.858 90.662 15.858C90.574 15.858 90.498 15.89 90.434 15.954C90.37 16.018 90.306 16.106 90.242 16.218C90.058 16.514 89.798 16.79 89.462 17.046C89.126 17.294 88.762 17.418 88.37 17.418Z" fill="black"/>
<rect x="201.862" y="65.702" width="25.1538" height="24" fill="#E8F5E9" stroke="#81C784"/>
<path d="M245.67 0.701965C249.259 0.701965 252.17 3.61211 252.17 7.20197V89.702H132.901C129.311 89.702 126.401 86.7918 126.401 83.202V0.701965H245.67Z" fill="#FFF8E1" fill-opacity="0.6" stroke="#FFD54F"/>
<path d="M185.337 16.818H185.781C186.253 16.818 186.597 16.526 186.813 15.942L189.393 8.65803H189.693L192.297 16.29C192.377 16.49 192.473 16.63 192.585 16.71C192.697 16.782 192.841 16.818 193.017 16.818H193.689V17.202H189.969V16.818H190.761C190.881 16.818 190.981 16.79 191.061 16.734C191.141 16.67 191.181 16.598 191.181 16.518C191.181 16.414 191.165 16.326 191.133 16.254L190.569 14.658H187.761L187.473 15.462C187.361 15.782 187.305 16.014 187.305 16.158C187.305 16.334 187.349 16.49 187.437 16.626C187.525 16.754 187.677 16.818 187.893 16.818H188.625V17.202H185.337V16.818ZM187.893 14.274H190.437L189.189 10.614L187.893 14.274Z" fill="black"/>
<path d="M138.678 82.418C137.99 82.418 137.39 82.218 136.878 81.818C136.374 81.41 135.986 80.862 135.714 80.174C135.45 79.478 135.318 78.706 135.318 77.858C135.318 77.05 135.454 76.31 135.726 75.638C135.998 74.966 136.386 74.434 136.89 74.042C137.394 73.642 137.982 73.442 138.654 73.442C139.006 73.442 139.338 73.522 139.65 73.682C139.962 73.842 140.218 74.014 140.418 74.198C140.61 74.374 140.738 74.462 140.802 74.462C140.866 74.462 140.91 74.442 140.934 74.402C140.966 74.362 140.998 74.298 141.03 74.21L141.258 73.538H141.558L141.606 77.258H141.27C141.094 76.498 140.866 75.862 140.586 75.35C140.306 74.83 139.998 74.446 139.662 74.198C139.334 73.95 139.006 73.826 138.678 73.826C138.126 73.826 137.698 73.994 137.394 74.33C137.09 74.658 136.878 75.118 136.758 75.71C136.646 76.302 136.59 77.042 136.59 77.93C136.59 78.818 136.646 79.558 136.758 80.15C136.878 80.742 137.09 81.206 137.394 81.542C137.698 81.87 138.126 82.034 138.678 82.034C138.974 82.034 139.258 81.93 139.53 81.722C139.802 81.506 140.022 81.234 140.19 80.906C140.366 80.578 140.454 80.254 140.454 79.934V78.854C140.454 78.742 140.426 78.662 140.37 78.614C140.322 78.558 140.242 78.53 140.13 78.53H138.798V78.146H142.758V78.53H141.882C141.77 78.53 141.686 78.558 141.63 78.614C141.582 78.662 141.558 78.742 141.558 78.854V82.358H141.174V81.266C141.174 81.13 141.158 81.03 141.126 80.966C141.094 80.894 141.042 80.858 140.97 80.858C140.882 80.858 140.806 80.89 140.742 80.954C140.678 81.018 140.614 81.106 140.55 81.218C140.366 81.514 140.106 81.79 139.77 82.046C139.434 82.294 139.07 82.418 138.678 82.418Z" fill="black"/>
<path d="M212.315 16.818H213.467C213.683 16.818 213.791 16.71 213.791 16.494V9.33003C213.791 9.21803 213.767 9.13803 213.719 9.09003C213.671 9.03403 213.587 9.00603 213.467 9.00603H213.035C212.531 9.00603 212.095 9.26203 211.727 9.77403C211.495 10.102 211.339 10.514 211.259 11.01C211.179 11.498 211.139 11.858 211.139 12.09H210.803L210.899 8.65803H217.787L217.883 12.09H217.547C217.547 11.858 217.507 11.498 217.427 11.01C217.347 10.514 217.191 10.102 216.959 9.77403C216.591 9.26203 216.155 9.00603 215.651 9.00603H215.219C215.099 9.00603 215.015 9.03403 214.967 9.09003C214.919 9.13803 214.895 9.21803 214.895 9.33003V16.494C214.895 16.71 215.003 16.818 215.219 16.818H216.371V17.202H212.315V16.818Z" fill="black"/>
<path d="M162.008 16.818H163.16C163.376 16.818 163.484 16.71 163.484 16.494V9.33003C163.484 9.21803 163.46 9.13803 163.412 9.09003C163.364 9.03403 163.28 9.00603 163.16 9.00603H162.728C162.224 9.00603 161.788 9.26203 161.42 9.77403C161.188 10.102 161.032 10.514 160.952 11.01C160.872 11.498 160.832 11.858 160.832 12.09H160.496L160.592 8.65803H167.48L167.576 12.09H167.24C167.24 11.858 167.2 11.498 167.12 11.01C167.04 10.514 166.884 10.102 166.652 9.77403C166.284 9.26203 165.848 9.00603 165.344 9.00603H164.912C164.792 9.00603 164.708 9.03403 164.66 9.09003C164.612 9.13803 164.588 9.21803 164.588 9.33003V16.494C164.588 16.71 164.696 16.818 164.912 16.818H166.064V17.202H162.008V16.818Z" fill="black"/>
<path d="M162.008 81.818H163.16C163.376 81.818 163.484 81.71 163.484 81.494V74.33C163.484 74.218 163.46 74.138 163.412 74.09C163.364 74.034 163.28 74.006 163.16 74.006H162.728C162.224 74.006 161.788 74.262 161.42 74.774C161.188 75.102 161.032 75.514 160.952 76.01C160.872 76.498 160.832 76.858 160.832 77.09H160.496L160.592 73.658H167.48L167.576 77.09H167.24C167.24 76.858 167.2 76.498 167.12 76.01C167.04 75.514 166.884 75.102 166.652 74.774C166.284 74.262 165.848 74.006 165.344 74.006H164.912C164.792 74.006 164.708 74.034 164.66 74.09C164.612 74.138 164.588 74.218 164.588 74.33V81.494C164.588 81.71 164.696 81.818 164.912 81.818H166.064V82.202H162.008V81.818Z" fill="black"/>
<path d="M239.293 82.418C238.605 82.418 238.005 82.218 237.493 81.818C236.989 81.41 236.601 80.862 236.329 80.174C236.065 79.478 235.933 78.706 235.933 77.858C235.933 77.05 236.069 76.31 236.341 75.638C236.613 74.966 237.001 74.434 237.505 74.042C238.009 73.642 238.597 73.442 239.269 73.442C239.621 73.442 239.953 73.522 240.265 73.682C240.577 73.842 240.833 74.014 241.033 74.198C241.225 74.374 241.353 74.462 241.417 74.462C241.481 74.462 241.525 74.442 241.549 74.402C241.581 74.362 241.613 74.298 241.645 74.21L241.873 73.538H242.173L242.221 77.258H241.885C241.709 76.498 241.481 75.862 241.201 75.35C240.921 74.83 240.613 74.446 240.277 74.198C239.949 73.95 239.621 73.826 239.293 73.826C238.741 73.826 238.313 73.994 238.009 74.33C237.705 74.658 237.493 75.118 237.373 75.71C237.261 76.302 237.205 77.042 237.205 77.93C237.205 78.818 237.261 79.558 237.373 80.15C237.493 80.742 237.705 81.206 238.009 81.542C238.313 81.87 238.741 82.034 239.293 82.034C239.589 82.034 239.873 81.93 240.145 81.722C240.417 81.506 240.637 81.234 240.805 80.906C240.981 80.578 241.069 80.254 241.069 79.934V78.854C241.069 78.742 241.041 78.662 240.985 78.614C240.937 78.558 240.857 78.53 240.745 78.53H239.413V78.146H243.373V78.53H242.497C242.385 78.53 242.301 78.558 242.245 78.614C242.197 78.662 242.173 78.742 242.173 78.854V82.358H241.789V81.266C241.789 81.13 241.773 81.03 241.741 80.966C241.709 80.894 241.657 80.858 241.585 80.858C241.497 80.858 241.421 80.89 241.357 80.954C241.293 81.018 241.229 81.106 241.165 81.218C240.981 81.514 240.721 81.79 240.385 82.046C240.049 82.294 239.685 82.418 239.293 82.418Z" fill="black"/>
<path d="M185.337 81.818H185.781C186.253 81.818 186.597 81.526 186.813 80.942L189.393 73.658H189.693L192.297 81.29C192.377 81.49 192.473 81.63 192.585 81.71C192.697 81.782 192.841 81.818 193.017 81.818H193.689V82.202H189.969V81.818H190.761C190.881 81.818 190.981 81.79 191.061 81.734C191.141 81.67 191.181 81.598 191.181 81.518C191.181 81.414 191.165 81.326 191.133 81.254L190.569 79.658H187.761L187.473 80.462C187.361 80.782 187.305 81.014 187.305 81.158C187.305 81.334 187.349 81.49 187.437 81.626C187.525 81.754 187.677 81.818 187.893 81.818H188.625V82.202H185.337V81.818ZM187.893 79.274H190.437L189.189 75.614L187.893 79.274Z" fill="black"/>
<path d="M239.293 17.418C238.605 17.418 238.005 17.218 237.493 16.818C236.989 16.41 236.601 15.862 236.329 15.174C236.065 14.478 235.933 13.706 235.933 12.858C235.933 12.05 236.069 11.31 236.341 10.638C236.613 9.96603 237.001 9.43403 237.505 9.04203C238.009 8.64203 238.597 8.44203 239.269 8.44203C239.621 8.44203 239.953 8.52203 240.265 8.68203C240.577 8.84203 240.833 9.01403 241.033 9.19803C241.225 9.37403 241.353 9.46203 241.417 9.46203C241.481 9.46203 241.525 9.44203 241.549 9.40203C241.581 9.36203 241.613 9.29803 241.645 9.21003L241.873 8.53803H242.173L242.221 12.258H241.885C241.709 11.498 241.481 10.862 241.201 10.35C240.921 9.83003 240.613 9.44603 240.277 9.19803C239.949 8.95003 239.621 8.82603 239.293 8.82603C238.741 8.82603 238.313 8.99403 238.009 9.33003C237.705 9.65803 237.493 10.118 237.373 10.71C237.261 11.302 237.205 12.042 237.205 12.93C237.205 13.818 237.261 14.558 237.373 15.15C237.493 15.742 237.705 16.206 238.009 16.542C238.313 16.87 238.741 17.034 239.293 17.034C239.589 17.034 239.873 16.93 240.145 16.722C240.417 16.506 240.637 16.234 240.805 15.906C240.981 15.578 241.069 15.254 241.069 14.934V13.854C241.069 13.742 241.041 13.662 240.985 13.614C240.937 13.558 240.857 13.53 240.745 13.53H239.413V13.146H243.373V13.53H242.497C242.385 13.53 242.301 13.558 242.245 13.614C242.197 13.662 242.173 13.742 242.173 13.854V17.358H241.789V16.266C241.789 16.13 241.773 16.03 241.741 15.966C241.709 15.894 241.657 15.858 241.585 15.858C241.497 15.858 241.421 15.89 241.357 15.954C241.293 16.018 241.229 16.106 241.165 16.218C240.981 16.514 240.721 16.79 240.385 17.046C240.049 17.294 239.685 17.418 239.293 17.418Z" fill="black"/>
<path d="M138.678 17.418C137.99 17.418 137.39 17.218 136.878 16.818C136.374 16.41 135.986 15.862 135.714 15.174C135.45 14.478 135.318 13.706 135.318 12.858C135.318 12.05 135.454 11.31 135.726 10.638C135.998 9.96603 136.386 9.43403 136.89 9.04203C137.394 8.64203 137.982 8.44203 138.654 8.44203C139.006 8.44203 139.338 8.52203 139.65 8.68203C139.962 8.84203 140.218 9.01403 140.418 9.19803C140.61 9.37403 140.738 9.46203 140.802 9.46203C140.866 9.46203 140.91 9.44203 140.934 9.40203C140.966 9.36203 140.998 9.29803 141.03 9.21003L141.258 8.53803H141.558L141.606 12.258H141.27C141.094 11.498 140.866 10.862 140.586 10.35C140.306 9.83003 139.998 9.44603 139.662 9.19803C139.334 8.95003 139.006 8.82603 138.678 8.82603C138.126 8.82603 137.698 8.99403 137.394 9.33003C137.09 9.65803 136.878 10.118 136.758 10.71C136.646 11.302 136.59 12.042 136.59 12.93C136.59 13.818 136.646 14.558 136.758 15.15C136.878 15.742 137.09 16.206 137.394 16.542C137.698 16.87 138.126 17.034 138.678 17.034C138.974 17.034 139.258 16.93 139.53 16.722C139.802 16.506 140.022 16.234 140.19 15.906C140.366 15.578 140.454 15.254 140.454 14.934V13.854C140.454 13.742 140.426 13.662 140.37 13.614C140.322 13.558 140.242 13.53 140.13 13.53H138.798V13.146H142.758V13.53H141.882C141.77 13.53 141.686 13.558 141.63 13.614C141.582 13.662 141.558 13.742 141.558 13.854V17.358H141.174V16.266C141.174 16.13 141.158 16.03 141.126 15.966C141.094 15.894 141.042 15.858 140.97 15.858C140.882 15.858 140.806 15.89 140.742 15.954C140.678 16.018 140.614 16.106 140.55 16.218C140.366 16.514 140.106 16.79 139.77 17.046C139.434 17.294 139.07 17.418 138.678 17.418Z" fill="black"/>
<path d="M212.315 81.818H213.467C213.683 81.818 213.791 81.71 213.791 81.494V74.33C213.791 74.218 213.767 74.138 213.719 74.09C213.671 74.034 213.587 74.006 213.467 74.006H213.035C212.531 74.006 212.095 74.262 211.727 74.774C211.495 75.102 211.339 75.514 211.259 76.01C211.179 76.498 211.139 76.858 211.139 77.09H210.803L210.899 73.658H217.787L217.883 77.09H217.547C217.547 76.858 217.507 76.498 217.427 76.01C217.347 75.514 217.191 75.102 216.959 74.774C216.591 74.262 216.155 74.006 215.651 74.006H215.219C215.099 74.006 215.015 74.034 214.967 74.09C214.919 74.138 214.895 74.218 214.895 74.33V81.494C214.895 81.71 215.003 81.818 215.219 81.818H216.371V82.202H212.315V81.818Z" fill="black"/>
<path d="M173.605 48.918C172.933 48.918 172.333 48.706 171.805 48.282C171.277 47.858 170.865 47.302 170.569 46.614C170.273 45.918 170.125 45.19 170.125 44.43C170.125 43.67 170.273 42.946 170.569 42.258C170.865 41.562 171.277 41.002 171.805 40.578C172.333 40.154 172.933 39.942 173.605 39.942C174.277 39.942 174.877 40.154 175.405 40.578C175.933 41.002 176.345 41.562 176.641 42.258C176.937 42.946 177.085 43.67 177.085 44.43C177.085 45.19 176.937 45.918 176.641 46.614C176.345 47.302 175.933 47.858 175.405 48.282C174.877 48.706 174.277 48.918 173.605 48.918ZM173.605 48.534C174.389 48.534 174.953 48.178 175.297 47.466C175.641 46.746 175.813 45.734 175.813 44.43C175.813 43.118 175.641 42.106 175.297 41.394C174.953 40.682 174.389 40.326 173.605 40.326C172.821 40.326 172.257 40.682 171.913 41.394C171.569 42.106 171.397 43.118 171.397 44.43C171.397 45.734 171.569 46.746 171.913 47.466C172.257 48.178 172.821 48.534 173.605 48.534ZM178.876 44.118C178.796 43.91 178.712 43.758 178.624 43.662C178.544 43.566 178.42 43.518 178.252 43.518H177.904V43.23H180.496V43.518H180.16C180.064 43.518 179.976 43.546 179.896 43.602C179.816 43.65 179.776 43.718 179.776 43.806C179.776 43.942 179.8 44.074 179.848 44.202L181.192 47.442L182.164 44.598C182.196 44.502 182.224 44.394 182.248 44.274C182.28 44.154 182.296 44.058 182.296 43.986C182.296 43.85 182.256 43.738 182.176 43.65C182.096 43.562 181.992 43.518 181.864 43.518H181.576V43.23H183.76V43.518H183.484C183.308 43.518 183.144 43.578 182.992 43.698C182.848 43.81 182.736 43.986 182.656 44.226L181.072 48.846H180.856L178.876 44.118ZM186.525 48.846C185.781 48.846 185.181 48.594 184.725 48.09C184.277 47.586 184.053 46.886 184.053 45.99C184.053 45.478 184.153 45.002 184.353 44.562C184.553 44.114 184.829 43.758 185.181 43.494C185.541 43.222 185.941 43.086 186.381 43.086C186.869 43.086 187.269 43.218 187.581 43.482C187.893 43.746 188.117 44.082 188.253 44.49C188.397 44.89 188.469 45.302 188.469 45.726C188.469 45.814 188.441 45.874 188.385 45.906C188.329 45.93 188.233 45.942 188.097 45.942H185.109C185.109 46.742 185.221 47.378 185.445 47.85C185.677 48.322 186.053 48.558 186.573 48.558C186.941 48.558 187.285 48.418 187.605 48.138C187.933 47.858 188.141 47.422 188.229 46.83H188.517C188.469 47.414 188.265 47.898 187.905 48.282C187.553 48.658 187.093 48.846 186.525 48.846ZM187.437 45.654C187.437 45.014 187.353 44.474 187.185 44.034C187.017 43.594 186.741 43.374 186.357 43.374C185.949 43.374 185.637 43.598 185.421 44.046C185.213 44.486 185.109 45.022 185.109 45.654H187.437ZM189.452 48.414H189.956C190.052 48.414 190.12 48.394 190.16 48.354C190.2 48.314 190.22 48.246 190.22 48.15V43.782C190.22 43.686 190.2 43.618 190.16 43.578C190.12 43.538 190.052 43.518 189.956 43.518H189.452V43.23H191.084V44.43L191.132 44.442C191.3 44.026 191.516 43.698 191.78 43.458C192.052 43.21 192.34 43.086 192.644 43.086C192.948 43.086 193.196 43.174 193.388 43.35C193.58 43.526 193.676 43.766 193.676 44.07C193.676 44.246 193.612 44.418 193.484 44.586C193.364 44.754 193.208 44.838 193.016 44.838C192.864 44.838 192.736 44.798 192.632 44.718C192.528 44.638 192.476 44.526 192.476 44.382C192.476 44.214 192.556 44.07 192.716 43.95C192.788 43.902 192.84 43.858 192.872 43.818C192.912 43.778 192.932 43.726 192.932 43.662C192.932 43.59 192.896 43.534 192.824 43.494C192.76 43.446 192.668 43.422 192.548 43.422C192.3 43.422 192.06 43.542 191.828 43.782C191.604 44.022 191.424 44.334 191.288 44.718C191.152 45.102 191.084 45.502 191.084 45.918V48.15C191.084 48.246 191.104 48.314 191.144 48.354C191.184 48.394 191.252 48.414 191.348 48.414H191.852V48.702H189.452V48.414ZM194.254 48.414H194.878C194.974 48.414 195.042 48.394 195.082 48.354C195.122 48.314 195.142 48.246 195.142 48.15V40.71C195.142 40.614 195.122 40.546 195.082 40.506C195.042 40.466 194.974 40.446 194.878 40.446H194.254V40.158H196.006V48.15C196.006 48.246 196.026 48.314 196.066 48.354C196.106 48.394 196.174 48.414 196.27 48.414H196.894V48.702H194.254V48.414ZM199.265 48.846C198.841 48.846 198.473 48.742 198.161 48.534C197.857 48.326 197.705 47.958 197.705 47.43C197.705 47.022 197.809 46.702 198.017 46.47C198.225 46.238 198.465 46.074 198.737 45.978C199.017 45.874 199.353 45.786 199.745 45.714L200.849 45.51V44.49C200.849 43.746 200.477 43.374 199.733 43.374C199.461 43.374 199.213 43.446 198.989 43.59C198.765 43.726 198.653 43.882 198.653 44.058C198.653 44.138 198.665 44.198 198.689 44.238C198.705 44.262 198.729 44.286 198.761 44.31C198.801 44.334 198.837 44.35 198.869 44.358C199.013 44.398 199.121 44.454 199.193 44.526C199.273 44.598 199.313 44.698 199.313 44.826C199.313 44.994 199.261 45.114 199.157 45.186C199.061 45.258 198.937 45.294 198.785 45.294C198.609 45.294 198.449 45.226 198.305 45.09C198.161 44.954 198.089 44.758 198.089 44.502C198.089 44.206 198.169 43.95 198.329 43.734C198.497 43.518 198.709 43.358 198.965 43.254C199.229 43.142 199.497 43.086 199.769 43.086C200.297 43.086 200.753 43.226 201.137 43.506C201.521 43.778 201.713 44.206 201.713 44.79V47.742C201.713 48.142 201.837 48.342 202.085 48.342C202.285 48.342 202.429 48.226 202.517 47.994C202.605 47.762 202.649 47.478 202.649 47.142H202.865C202.865 47.622 202.793 48.026 202.649 48.354C202.513 48.682 202.265 48.846 201.905 48.846C201.561 48.846 201.301 48.746 201.125 48.546C200.957 48.338 200.865 48.054 200.849 47.694L200.789 47.67C200.669 47.95 200.473 48.218 200.201 48.474C199.937 48.722 199.625 48.846 199.265 48.846ZM199.457 48.414C199.817 48.414 200.097 48.274 200.297 47.994C200.505 47.706 200.689 47.342 200.849 46.902V45.762L199.805 45.99C199.421 46.07 199.141 46.23 198.965 46.47C198.797 46.702 198.713 47.034 198.713 47.466C198.713 47.834 198.789 48.086 198.941 48.222C199.093 48.35 199.265 48.414 199.457 48.414ZM203.418 51.174H204.042C204.138 51.174 204.206 51.154 204.246 51.114C204.286 51.074 204.306 51.006 204.306 50.91V43.782C204.306 43.686 204.286 43.618 204.246 43.578C204.206 43.538 204.138 43.518 204.042 43.518H203.418V43.23H205.17V44.118L205.218 44.13C205.37 43.81 205.562 43.558 205.794 43.374C206.034 43.182 206.306 43.086 206.61 43.086C206.986 43.086 207.334 43.214 207.654 43.47C207.982 43.718 208.242 44.062 208.434 44.502C208.626 44.942 208.722 45.43 208.722 45.966C208.722 46.502 208.626 46.99 208.434 47.43C208.242 47.87 207.982 48.218 207.654 48.474C207.334 48.722 206.986 48.846 206.61 48.846C206.298 48.846 206.018 48.746 205.77 48.546C205.522 48.338 205.338 48.09 205.218 47.802L205.17 47.814V50.91C205.17 51.006 205.19 51.074 205.23 51.114C205.27 51.154 205.338 51.174 205.434 51.174H206.058V51.462H203.418V51.174ZM206.478 48.51C206.87 48.51 207.166 48.29 207.366 47.85C207.566 47.41 207.666 46.782 207.666 45.966C207.666 45.15 207.566 44.522 207.366 44.082C207.166 43.642 206.87 43.422 206.478 43.422C206.238 43.422 206.018 43.51 205.818 43.686C205.618 43.862 205.458 44.106 205.338 44.418C205.226 44.722 205.17 45.054 205.17 45.414V46.518C205.17 46.878 205.226 47.214 205.338 47.526C205.458 47.83 205.618 48.07 205.818 48.246C206.018 48.422 206.238 48.51 206.478 48.51Z" fill="black"/>
</svg>
