<svg width="166" height="246" viewBox="0 0 166 246" fill="none" xmlns="http://www.w3.org/2000/svg">
<path d="M14.2688 31.5636C14.2688 31.2875 14.0449 31.0636 13.7688 31.0636C13.4927 31.0636 13.2688 31.2875 13.2688 31.5636L14.2688 31.5636ZM13.4153 214.967C13.6105 215.163 13.9271 215.163 14.1224 214.967L17.3043 211.785C17.4996 211.59 17.4996 211.274 17.3043 211.078C17.1091 210.883 16.7925 210.883 16.5972 211.078L13.7688 213.907L10.9404 211.078C10.7451 210.883 10.4285 210.883 10.2333 211.078C10.038 211.274 10.038 211.59 10.2333 211.785L13.4153 214.967ZM13.7688 31.5636L13.2688 31.5636L13.2688 214.614L13.7688 214.614L14.2688 214.614L14.2688 31.5636L13.7688 31.5636Z" fill="black"/>
<path d="M106.576 31.5636C106.576 31.2875 106.353 31.0636 106.076 31.0636C105.8 31.0636 105.576 31.2875 105.576 31.5636L106.576 31.5636ZM105.723 214.967C105.918 215.163 106.235 215.163 106.43 214.967L109.612 211.785C109.807 211.59 109.807 211.274 109.612 211.078C109.417 210.883 109.1 210.883 108.905 211.078L106.076 213.907L103.248 211.078C103.053 210.883 102.736 210.883 102.541 211.078C102.346 211.274 102.346 211.59 102.541 211.785L105.723 214.967ZM106.076 31.5636L105.576 31.5636L105.576 214.614L106.076 214.614L106.576 214.614L106.576 31.5636L106.076 31.5636Z" fill="black"/>
<path d="M60.4226 31.5636C60.4226 31.2875 60.1987 31.0636 59.9226 31.0636C59.6465 31.0636 59.4226 31.2875 59.4226 31.5636L60.4226 31.5636ZM59.5691 214.967C59.7643 215.163 60.0809 215.163 60.2762 214.967L63.4581 211.785C63.6534 211.59 63.6534 211.274 63.4581 211.078C63.2629 210.883 62.9463 210.883 62.751 211.078L59.9226 213.907L57.0942 211.078C56.8989 210.883 56.5823 210.883 56.3871 211.078C56.1918 211.274 56.1918 211.59 56.3871 211.785L59.5691 214.967ZM59.9226 31.5636L59.4226 31.5636L59.4226 214.614L59.9226 214.614L60.4226 214.614L60.4226 31.5636L59.9226 31.5636Z" fill="black"/>
<path d="M152.73 31.5636C152.73 31.2875 152.506 31.0636 152.23 31.0636C151.954 31.0636 151.73 31.2875 151.73 31.5636L152.73 31.5636ZM151.877 214.967C152.072 215.163 152.389 215.163 152.584 214.967L155.766 211.785C155.961 211.59 155.961 211.274 155.766 211.078C155.571 210.883 155.254 210.883 155.059 211.078L152.23 213.907L149.402 211.078C149.207 210.883 148.89 210.883 148.695 211.078C148.499 211.274 148.499 211.59 148.695 211.785L151.877 214.967ZM152.23 31.5636L151.73 31.5636L151.73 214.614L152.23 214.614L152.73 214.614L152.73 31.5636L152.23 31.5636Z" fill="black"/>
<rect x="1.19189" y="0.537052" width="25.1538" height="24" rx="6.5" fill="#E0F2F1" stroke="#4DB6AC"/>
<rect x="93.4995" y="0.537052" width="25.1538" height="24" rx="6.5" fill="#E0F2F1" stroke="#4DB6AC"/>
<rect x="47.3457" y="0.537052" width="25.1538" height="24" rx="6.5" fill="#E0F2F1" stroke="#4DB6AC"/>
<rect x="139.654" y="0.537052" width="25.1538" height="24" rx="6.5" fill="#E0F2F1" stroke="#4DB6AC"/>
<path d="M8.55961 15.4991H8.87161C9.06361 15.4991 9.22361 15.4431 9.35161 15.3311C9.47961 15.2111 9.61161 15.0471 9.74761 14.8391L10.8396 13.2071L9.37561 10.8671C9.31161 10.7711 9.24761 10.7031 9.18361 10.6631C9.12761 10.6231 9.03161 10.6031 8.89561 10.6031H8.60761V10.3151H10.9836V10.6031H10.6956C10.5356 10.6031 10.4556 10.6831 10.4556 10.8431C10.4556 10.9311 10.4796 11.0151 10.5276 11.0951L11.3556 12.4391L12.1476 11.2631C12.2196 11.1591 12.2556 11.0311 12.2556 10.8791C12.2556 10.7911 12.2236 10.7231 12.1596 10.6751C12.1036 10.6271 12.0396 10.6031 11.9676 10.6031H11.6796V10.3151H13.7676V10.6031H13.4676C13.2996 10.6031 13.1516 10.6431 13.0236 10.7231C12.8956 10.8031 12.7676 10.9391 12.6396 11.1311L11.5476 12.7391L13.0716 15.1871C13.1436 15.2991 13.2156 15.3791 13.2876 15.4271C13.3596 15.4751 13.4836 15.4991 13.6596 15.4991H13.9356V15.7871H11.4396V15.4991H11.7996C11.8876 15.4991 11.9556 15.4831 12.0036 15.4511C12.0516 15.4111 12.0756 15.3591 12.0756 15.2951C12.0756 15.2551 12.0676 15.2151 12.0516 15.1751C12.0356 15.1271 12.0156 15.0831 11.9916 15.0431L11.0316 13.5071L10.2156 14.7191C10.0956 14.9111 10.0356 15.0511 10.0356 15.1391C10.0356 15.3791 10.1356 15.4991 10.3356 15.4991H10.5516V15.7871H8.55961V15.4991Z" fill="black"/>
<path d="M100.867 15.4991H101.179C101.371 15.4991 101.531 15.4431 101.659 15.3311C101.787 15.2111 101.919 15.0471 102.055 14.8391L103.147 13.2071L101.683 10.8671C101.619 10.7711 101.555 10.7031 101.491 10.6631C101.435 10.6231 101.339 10.6031 101.203 10.6031H100.915V10.3151H103.291V10.6031H103.003C102.843 10.6031 102.763 10.6831 102.763 10.8431C102.763 10.9311 102.787 11.0151 102.835 11.0951L103.663 12.4391L104.455 11.2631C104.527 11.1591 104.563 11.0311 104.563 10.8791C104.563 10.7911 104.531 10.7231 104.467 10.6751C104.411 10.6271 104.347 10.6031 104.275 10.6031H103.987V10.3151H106.075V10.6031H105.775C105.607 10.6031 105.459 10.6431 105.331 10.7231C105.203 10.8031 105.075 10.9391 104.947 11.1311L103.855 12.7391L105.379 15.1871C105.451 15.2991 105.523 15.3791 105.595 15.4271C105.667 15.4751 105.791 15.4991 105.967 15.4991H106.243V15.7871H103.747V15.4991H104.107C104.195 15.4991 104.263 15.4831 104.311 15.4511C104.359 15.4111 104.383 15.3591 104.383 15.2951C104.383 15.2551 104.375 15.2151 104.359 15.1751C104.343 15.1271 104.323 15.0831 104.299 15.0431L103.339 13.5071L102.523 14.7191C102.403 14.9111 102.343 15.0511 102.343 15.1391C102.343 15.3791 102.443 15.4991 102.643 15.4991H102.859V15.7871H100.867V15.4991Z" fill="black"/>
<path d="M54.7134 15.4991H55.0254C55.2174 15.4991 55.3774 15.4431 55.5054 15.3311C55.6334 15.2111 55.7654 15.0471 55.9014 14.8391L56.9934 13.2071L55.5294 10.8671C55.4654 10.7711 55.4014 10.7031 55.3374 10.6631C55.2814 10.6231 55.1854 10.6031 55.0494 10.6031H54.7614V10.3151H57.1374V10.6031H56.8494C56.6894 10.6031 56.6094 10.6831 56.6094 10.8431C56.6094 10.9311 56.6334 11.0151 56.6814 11.0951L57.5094 12.4391L58.3014 11.2631C58.3734 11.1591 58.4094 11.0311 58.4094 10.8791C58.4094 10.7911 58.3774 10.7231 58.3134 10.6751C58.2574 10.6271 58.1934 10.6031 58.1214 10.6031H57.8334V10.3151H59.9214V10.6031H59.6214C59.4534 10.6031 59.3054 10.6431 59.1774 10.7231C59.0494 10.8031 58.9214 10.9391 58.7934 11.1311L57.7014 12.7391L59.2254 15.1871C59.2974 15.2991 59.3694 15.3791 59.4414 15.4271C59.5134 15.4751 59.6374 15.4991 59.8134 15.4991H60.0894V15.7871H57.5934V15.4991H57.9534C58.0414 15.4991 58.1094 15.4831 58.1574 15.4511C58.2054 15.4111 58.2294 15.3591 58.2294 15.2951C58.2294 15.2551 58.2214 15.2151 58.2054 15.1751C58.1894 15.1271 58.1694 15.0831 58.1454 15.0431L57.1854 13.5071L56.3694 14.7191C56.2494 14.9111 56.1894 15.0511 56.1894 15.1391C56.1894 15.3791 56.2894 15.4991 56.4894 15.4991H56.7054V15.7871H54.7134V15.4991Z" fill="black"/>
<path d="M147.021 15.4991H147.333C147.525 15.4991 147.685 15.4431 147.813 15.3311C147.941 15.2111 148.073 15.0471 148.209 14.8391L149.301 13.2071L147.837 10.8671C147.773 10.7711 147.709 10.7031 147.645 10.6631C147.589 10.6231 147.493 10.6031 147.357 10.6031H147.069V10.3151H149.445V10.6031H149.157C148.997 10.6031 148.917 10.6831 148.917 10.8431C148.917 10.9311 148.941 11.0151 148.989 11.0951L149.817 12.4391L150.609 11.2631C150.681 11.1591 150.717 11.0311 150.717 10.8791C150.717 10.7911 150.685 10.7231 150.621 10.6751C150.565 10.6271 150.501 10.6031 150.429 10.6031H150.141V10.3151H152.229V10.6031H151.929C151.761 10.6031 151.613 10.6431 151.485 10.7231C151.357 10.8031 151.229 10.9391 151.101 11.1311L150.009 12.7391L151.533 15.1871C151.605 15.2991 151.677 15.3791 151.749 15.4271C151.821 15.4751 151.945 15.4991 152.121 15.4991H152.397V15.7871H149.901V15.4991H150.261C150.349 15.4991 150.417 15.4831 150.465 15.4511C150.513 15.4111 150.537 15.3591 150.537 15.2951C150.537 15.2551 150.529 15.2151 150.513 15.1751C150.497 15.1271 150.477 15.0831 150.453 15.0431L149.493 13.5071L148.677 14.7191C148.557 14.9111 148.497 15.0511 148.497 15.1391C148.497 15.3791 148.597 15.4991 148.797 15.4991H149.013V15.7871H147.021V15.4991Z" fill="black"/>
<path d="M16.7988 17.3991C16.4675 17.3991 16.1735 17.2801 15.9168 17.0421C15.6601 16.8041 15.4595 16.4937 15.3148 16.1111C15.1748 15.7237 15.1048 15.3177 15.1048 14.8931C15.1048 14.4684 15.1748 14.0647 15.3148 13.6821C15.4595 13.2947 15.6601 12.9821 15.9168 12.7441C16.1735 12.5061 16.4675 12.3871 16.7988 12.3871C17.1255 12.3871 17.4171 12.5061 17.6738 12.7441C17.9351 12.9821 18.1358 13.2947 18.2758 13.6821C18.4205 14.0647 18.4928 14.4684 18.4928 14.8931C18.4928 15.3177 18.4205 15.7237 18.2758 16.1111C18.1358 16.4937 17.9351 16.8041 17.6738 17.0421C17.4171 17.2801 17.1255 17.3991 16.7988 17.3991ZM16.7988 17.1751C17.1861 17.1751 17.4405 16.9557 17.5618 16.5171C17.6878 16.0784 17.7508 15.5371 17.7508 14.8931C17.7508 14.2491 17.6878 13.7077 17.5618 13.2691C17.4405 12.8304 17.1861 12.6111 16.7988 12.6111C16.4115 12.6111 16.1548 12.8304 16.0288 13.2691C15.9075 13.7031 15.8468 14.2444 15.8468 14.8931C15.8468 15.5417 15.9075 16.0854 16.0288 16.5241C16.1548 16.9581 16.4115 17.1751 16.7988 17.1751Z" fill="black"/>
<path d="M107.657 17.2871C107.657 17.0304 107.706 16.7761 107.804 16.5241C107.902 16.2721 108.122 16.0014 108.462 15.7121L109.134 15.1381C109.354 14.9561 109.519 14.7554 109.631 14.5361C109.748 14.3167 109.806 14.0647 109.806 13.7801C109.806 13.4161 109.718 13.1361 109.54 12.9401C109.363 12.7394 109.111 12.6391 108.784 12.6391C108.635 12.6391 108.49 12.6741 108.35 12.7441C108.215 12.8141 108.103 12.9074 108.014 13.0241C107.93 13.1361 107.888 13.2527 107.888 13.3741C107.888 13.4861 107.914 13.5701 107.965 13.6261C108.017 13.6774 108.087 13.7101 108.175 13.7241C108.325 13.7474 108.434 13.7987 108.504 13.8781C108.579 13.9527 108.616 14.0437 108.616 14.1511C108.616 14.2397 108.584 14.3144 108.518 14.3751C108.458 14.4357 108.371 14.4661 108.259 14.4661C108.068 14.4661 107.909 14.3914 107.783 14.2421C107.657 14.0881 107.594 13.8874 107.594 13.6401C107.594 13.4021 107.653 13.1874 107.769 12.9961C107.891 12.8047 108.056 12.6554 108.266 12.5481C108.481 12.4407 108.719 12.3871 108.98 12.3871C109.279 12.3871 109.547 12.4431 109.785 12.5551C110.023 12.6671 110.21 12.8281 110.345 13.0381C110.481 13.2481 110.548 13.4954 110.548 13.7801C110.548 14.0647 110.448 14.3214 110.247 14.5501C110.047 14.7787 109.783 15.0097 109.456 15.2431L108.77 15.7751C108.574 15.9104 108.423 16.0411 108.315 16.1671C108.213 16.2884 108.161 16.4144 108.161 16.5451C108.161 16.6571 108.234 16.7131 108.378 16.7131H109.701C109.888 16.7131 110.019 16.6734 110.093 16.5941C110.173 16.5101 110.226 16.3934 110.254 16.2441L110.331 15.8311H110.485L110.387 17.2871H107.657Z" fill="black"/>
<path d="M61.7626 17.0631H62.4346C62.5046 17.0631 62.5536 17.0491 62.5816 17.0211C62.6143 16.9931 62.6306 16.9464 62.6306 16.8811V13.4441H61.7626V13.1921H62.1476C62.3996 13.1921 62.6026 13.1244 62.7566 12.9891C62.9153 12.8537 63.0133 12.6904 63.0506 12.4991H63.2746V16.8811C63.2746 16.9464 63.2886 16.9931 63.3166 17.0211C63.3493 17.0491 63.4006 17.0631 63.4706 17.0631H64.1426V17.2871H61.7626V17.0631Z" fill="black"/>
<path d="M155.022 17.3991C154.649 17.3991 154.341 17.3197 154.098 17.1611C153.856 16.9977 153.734 16.7621 153.734 16.4541C153.734 16.2861 153.783 16.1437 153.881 16.0271C153.979 15.9057 154.108 15.8451 154.266 15.8451C154.402 15.8451 154.507 15.8824 154.581 15.9571C154.661 16.0271 154.7 16.1251 154.7 16.2511C154.7 16.3491 154.67 16.4354 154.609 16.5101C154.553 16.5801 154.479 16.6151 154.385 16.6151C154.222 16.6151 154.14 16.6547 154.14 16.7341C154.14 17.0281 154.434 17.1751 155.022 17.1751C155.363 17.1751 155.608 17.0584 155.757 16.8251C155.911 16.5917 155.988 16.3117 155.988 15.9851C155.988 15.6117 155.907 15.3317 155.743 15.1451C155.585 14.9584 155.389 14.8651 155.155 14.8651C155.085 14.8651 155.027 14.8697 154.98 14.8791C154.938 14.8884 154.885 14.9047 154.819 14.9281C154.665 14.9794 154.546 15.0051 154.462 15.0051C154.392 15.0051 154.329 14.9887 154.273 14.9561C154.222 14.9234 154.196 14.8744 154.196 14.8091C154.196 14.7437 154.222 14.6947 154.273 14.6621C154.325 14.6294 154.388 14.6131 154.462 14.6131C154.542 14.6131 154.651 14.6247 154.791 14.6481C154.885 14.6621 155.013 14.6691 155.176 14.6691C155.4 14.6691 155.571 14.5687 155.687 14.3681C155.809 14.1627 155.869 13.9294 155.869 13.6681C155.869 13.3647 155.799 13.1127 155.659 12.9121C155.519 12.7114 155.316 12.6111 155.05 12.6111C154.775 12.6111 154.579 12.6554 154.462 12.7441C154.35 12.8327 154.294 12.9331 154.294 13.0451C154.294 13.0871 154.311 13.1314 154.343 13.1781C154.376 13.2201 154.42 13.2551 154.476 13.2831C154.644 13.3531 154.728 13.4674 154.728 13.6261C154.728 13.7241 154.696 13.8057 154.63 13.8711C154.565 13.9317 154.472 13.9621 154.35 13.9621C154.215 13.9621 154.096 13.9061 153.993 13.7941C153.895 13.6774 153.846 13.5491 153.846 13.4091C153.846 13.0824 153.97 12.8304 154.217 12.6531C154.469 12.4757 154.773 12.3871 155.127 12.3871C155.552 12.3871 155.893 12.5014 156.149 12.7301C156.411 12.9541 156.541 13.2504 156.541 13.6191C156.541 13.8151 156.495 13.9901 156.401 14.1441C156.313 14.2934 156.198 14.4171 156.058 14.5151C155.923 14.6084 155.785 14.6714 155.645 14.7041V14.7601C155.799 14.7881 155.96 14.8557 156.128 14.9631C156.296 15.0657 156.439 15.2057 156.555 15.3831C156.672 15.5604 156.73 15.7634 156.73 15.9921C156.73 16.2767 156.653 16.5264 156.499 16.7411C156.345 16.9511 156.138 17.1144 155.876 17.2311C155.62 17.3431 155.335 17.3991 155.022 17.3991Z" fill="black"/>
<rect x="1.19189" y="45.537" width="25.1538" height="24" rx="6.5" fill="#E8F5E9" stroke="#81C784"/>
<path d="M10.6087 62.3743H11.4727C11.6887 62.3743 11.7967 62.2663 11.7967 62.0503V54.9223C11.7967 54.8103 11.7687 54.7303 11.7127 54.6823C11.6647 54.6263 11.5847 54.5983 11.4727 54.5983H10.6087V54.2143H14.5207C14.9927 54.2143 15.4327 54.3023 15.8407 54.4783C16.2567 54.6543 16.5887 54.8983 16.8367 55.2103C17.0847 55.5143 17.2087 55.8623 17.2087 56.2543C17.2087 56.7983 17.0247 57.2463 16.6567 57.5983C16.2887 57.9503 15.8607 58.1783 15.3727 58.2823V58.3303C15.7007 58.3543 16.0247 58.4583 16.3447 58.6423C16.6727 58.8183 16.9407 59.0623 17.1487 59.3743C17.3647 59.6863 17.4727 60.0383 17.4727 60.4303C17.4727 60.9183 17.3447 61.3383 17.0887 61.6903C16.8327 62.0423 16.4887 62.3103 16.0567 62.4943C15.6327 62.6703 15.1647 62.7583 14.6527 62.7583H10.6087V62.3743ZM14.4727 58.1023C15.1207 58.1023 15.5607 57.9383 15.7927 57.6103C16.0327 57.2743 16.1527 56.8223 16.1527 56.2543C16.1527 55.7743 16.0007 55.3783 15.6967 55.0663C15.3927 54.7543 15.0167 54.5983 14.5687 54.5983H13.2247C13.1127 54.5983 13.0287 54.6263 12.9727 54.6823C12.9247 54.7303 12.9007 54.8103 12.9007 54.9223V58.1023H14.4727ZM14.5207 62.3743C15.0087 62.3743 15.4087 62.2303 15.7207 61.9423C16.0407 61.6463 16.2007 61.1423 16.2007 60.4303C16.2007 59.7183 16.0407 59.2183 15.7207 58.9303C15.4087 58.6343 15.0087 58.4863 14.5207 58.4863H12.9007V62.0503C12.9007 62.2663 13.0087 62.3743 13.2247 62.3743H14.5207Z" fill="black"/>
<path d="M11.269 51.7583H16.269" stroke="black" stroke-linecap="round"/>
<rect x="93.4995" y="45.537" width="25.1538" height="24" rx="6.5" fill="#E8F5E9" stroke="#81C784"/>
<path d="M102.916 62.3743H103.78C103.996 62.3743 104.104 62.2663 104.104 62.0503V54.9223C104.104 54.8103 104.076 54.7303 104.02 54.6823C103.972 54.6263 103.892 54.5983 103.78 54.5983H102.916V54.2143H106.828C107.3 54.2143 107.74 54.3023 108.148 54.4783C108.564 54.6543 108.896 54.8983 109.144 55.2103C109.392 55.5143 109.516 55.8623 109.516 56.2543C109.516 56.7983 109.332 57.2463 108.964 57.5983C108.596 57.9503 108.168 58.1783 107.68 58.2823V58.3303C108.008 58.3543 108.332 58.4583 108.652 58.6423C108.98 58.8183 109.248 59.0623 109.456 59.3743C109.672 59.6863 109.78 60.0383 109.78 60.4303C109.78 60.9183 109.652 61.3383 109.396 61.6903C109.14 62.0423 108.796 62.3103 108.364 62.4943C107.94 62.6703 107.472 62.7583 106.96 62.7583H102.916V62.3743ZM106.78 58.1023C107.428 58.1023 107.868 57.9383 108.1 57.6103C108.34 57.2743 108.46 56.8223 108.46 56.2543C108.46 55.7743 108.308 55.3783 108.004 55.0663C107.7 54.7543 107.324 54.5983 106.876 54.5983H105.532C105.42 54.5983 105.336 54.6263 105.28 54.6823C105.232 54.7303 105.208 54.8103 105.208 54.9223V58.1023H106.78ZM106.828 62.3743C107.316 62.3743 107.716 62.2303 108.028 61.9423C108.348 61.6463 108.508 61.1423 108.508 60.4303C108.508 59.7183 108.348 59.2183 108.028 58.9303C107.716 58.6343 107.316 58.4863 106.828 58.4863H105.208V62.0503C105.208 62.2663 105.316 62.3743 105.532 62.3743H106.828Z" fill="black"/>
<path d="M103.577 51.7583H108.577" stroke="black" stroke-linecap="round"/>
<rect x="47.3457" y="45.537" width="25.1538" height="24" rx="6.5" fill="#E8F5E9" stroke="#81C784"/>
<path d="M56.7626 62.3743H57.6266C57.8426 62.3743 57.9506 62.2663 57.9506 62.0503V54.9223C57.9506 54.8103 57.9226 54.7303 57.8666 54.6823C57.8186 54.6263 57.7386 54.5983 57.6266 54.5983H56.7626V54.2143H60.6746C61.1466 54.2143 61.5866 54.3023 61.9946 54.4783C62.4106 54.6543 62.7426 54.8983 62.9906 55.2103C63.2386 55.5143 63.3626 55.8623 63.3626 56.2543C63.3626 56.7983 63.1786 57.2463 62.8106 57.5983C62.4426 57.9503 62.0146 58.1783 61.5266 58.2823V58.3303C61.8546 58.3543 62.1786 58.4583 62.4986 58.6423C62.8266 58.8183 63.0946 59.0623 63.3026 59.3743C63.5186 59.6863 63.6266 60.0383 63.6266 60.4303C63.6266 60.9183 63.4986 61.3383 63.2426 61.6903C62.9866 62.0423 62.6426 62.3103 62.2106 62.4943C61.7866 62.6703 61.3186 62.7583 60.8066 62.7583H56.7626V62.3743ZM60.6266 58.1023C61.2746 58.1023 61.7146 57.9383 61.9466 57.6103C62.1866 57.2743 62.3066 56.8223 62.3066 56.2543C62.3066 55.7743 62.1546 55.3783 61.8506 55.0663C61.5466 54.7543 61.1706 54.5983 60.7226 54.5983H59.3786C59.2666 54.5983 59.1826 54.6263 59.1266 54.6823C59.0786 54.7303 59.0546 54.8103 59.0546 54.9223V58.1023H60.6266ZM60.6746 62.3743C61.1626 62.3743 61.5626 62.2303 61.8746 61.9423C62.1946 61.6463 62.3546 61.1423 62.3546 60.4303C62.3546 59.7183 62.1946 59.2183 61.8746 58.9303C61.5626 58.6343 61.1626 58.4863 60.6746 58.4863H59.0546V62.0503C59.0546 62.2663 59.1626 62.3743 59.3786 62.3743H60.6746Z" fill="black"/>
<path d="M57.4229 51.7583H62.4229" stroke="black" stroke-linecap="round"/>
<rect x="139.654" y="45.537" width="25.1538" height="24" rx="6.5" fill="#E8F5E9" stroke="#81C784"/>
<path d="M149.07 62.3743H149.934C150.15 62.3743 150.258 62.2663 150.258 62.0503V54.9223C150.258 54.8103 150.23 54.7303 150.174 54.6823C150.126 54.6263 150.046 54.5983 149.934 54.5983H149.07V54.2143H152.982C153.454 54.2143 153.894 54.3023 154.302 54.4783C154.718 54.6543 155.05 54.8983 155.298 55.2103C155.546 55.5143 155.67 55.8623 155.67 56.2543C155.67 56.7983 155.486 57.2463 155.118 57.5983C154.75 57.9503 154.322 58.1783 153.834 58.2823V58.3303C154.162 58.3543 154.486 58.4583 154.806 58.6423C155.134 58.8183 155.402 59.0623 155.61 59.3743C155.826 59.6863 155.934 60.0383 155.934 60.4303C155.934 60.9183 155.806 61.3383 155.55 61.6903C155.294 62.0423 154.95 62.3103 154.518 62.4943C154.094 62.6703 153.626 62.7583 153.114 62.7583H149.07V62.3743ZM152.934 58.1023C153.582 58.1023 154.022 57.9383 154.254 57.6103C154.494 57.2743 154.614 56.8223 154.614 56.2543C154.614 55.7743 154.462 55.3783 154.158 55.0663C153.854 54.7543 153.478 54.5983 153.03 54.5983H151.686C151.574 54.5983 151.49 54.6263 151.434 54.6823C151.386 54.7303 151.362 54.8103 151.362 54.9223V58.1023H152.934ZM152.982 62.3743C153.47 62.3743 153.87 62.2303 154.182 61.9423C154.502 61.6463 154.662 61.1423 154.662 60.4303C154.662 59.7183 154.502 59.2183 154.182 58.9303C153.87 58.6343 153.47 58.4863 152.982 58.4863H151.362V62.0503C151.362 62.2663 151.47 62.3743 151.686 62.3743H152.982Z" fill="black"/>
<path d="M149.73 51.7583H154.73" stroke="black" stroke-linecap="round"/>
<rect x="1.19189" y="220.537" width="25.1538" height="24" rx="6.5" fill="#FAFAFA" stroke="#9E9E9E"/>
<path d="M9.49176 235.499H10.1638C10.2598 235.499 10.3278 235.479 10.3678 235.439C10.4078 235.399 10.4278 235.331 10.4278 235.235V227.795C10.4278 227.699 10.4078 227.631 10.3678 227.591C10.3278 227.551 10.2598 227.531 10.1638 227.531H9.49176V227.243H11.2918V231.299L11.3398 231.311C11.5238 230.927 11.7518 230.643 12.0238 230.459C12.2958 230.267 12.5958 230.171 12.9238 230.171C13.5078 230.171 13.9198 230.351 14.1598 230.711C14.4078 231.071 14.5318 231.503 14.5318 232.007V235.235C14.5318 235.331 14.5518 235.399 14.5918 235.439C14.6318 235.479 14.6998 235.499 14.7958 235.499H15.2998V235.787H12.8998V235.499H13.4038C13.4998 235.499 13.5678 235.479 13.6078 235.439C13.6478 235.399 13.6678 235.331 13.6678 235.235V231.779C13.6678 231.427 13.5958 231.127 13.4518 230.879C13.3158 230.631 13.0798 230.507 12.7438 230.507C12.4638 230.507 12.2118 230.607 11.9878 230.807C11.7718 230.999 11.5998 231.267 11.4718 231.611C11.3518 231.947 11.2918 232.323 11.2918 232.739V235.235C11.2918 235.331 11.3118 235.399 11.3518 235.439C11.3918 235.479 11.4598 235.499 11.5558 235.499H12.0598V235.787H9.49176V235.499Z" fill="black"/>
<path d="M18.383 238.399C18.0517 238.399 17.7577 238.28 17.501 238.042C17.2444 237.804 17.0437 237.494 16.899 237.111C16.759 236.724 16.689 236.318 16.689 235.893C16.689 235.468 16.759 235.065 16.899 234.682C17.0437 234.295 17.2444 233.982 17.501 233.744C17.7577 233.506 18.0517 233.387 18.383 233.387C18.7097 233.387 19.0014 233.506 19.258 233.744C19.5194 233.982 19.72 234.295 19.86 234.682C20.0047 235.065 20.077 235.468 20.077 235.893C20.077 236.318 20.0047 236.724 19.86 237.111C19.72 237.494 19.5194 237.804 19.258 238.042C19.0014 238.28 18.7097 238.399 18.383 238.399ZM18.383 238.175C18.7704 238.175 19.0247 237.956 19.146 237.517C19.272 237.078 19.335 236.537 19.335 235.893C19.335 235.249 19.272 234.708 19.146 234.269C19.0247 233.83 18.7704 233.611 18.383 233.611C17.9957 233.611 17.739 233.83 17.613 234.269C17.4917 234.703 17.431 235.244 17.431 235.893C17.431 236.542 17.4917 237.085 17.613 237.524C17.739 237.958 17.9957 238.175 18.383 238.175Z" fill="black"/>
<rect x="93.4995" y="220.537" width="25.1538" height="24" rx="6.5" fill="#FAFAFA" stroke="#9E9E9E"/>
<path d="M101.799 235.499H102.471C102.567 235.499 102.635 235.479 102.675 235.439C102.715 235.399 102.735 235.331 102.735 235.235V227.795C102.735 227.699 102.715 227.631 102.675 227.591C102.635 227.551 102.567 227.531 102.471 227.531H101.799V227.243H103.599V231.299L103.647 231.311C103.831 230.927 104.059 230.643 104.331 230.459C104.603 230.267 104.903 230.171 105.231 230.171C105.815 230.171 106.227 230.351 106.467 230.711C106.715 231.071 106.839 231.503 106.839 232.007V235.235C106.839 235.331 106.859 235.399 106.899 235.439C106.939 235.479 107.007 235.499 107.103 235.499H107.607V235.787H105.207V235.499H105.711C105.807 235.499 105.875 235.479 105.915 235.439C105.955 235.399 105.975 235.331 105.975 235.235V231.779C105.975 231.427 105.903 231.127 105.759 230.879C105.623 230.631 105.387 230.507 105.051 230.507C104.771 230.507 104.519 230.607 104.295 230.807C104.079 230.999 103.907 231.267 103.779 231.611C103.659 231.947 103.599 232.323 103.599 232.739V235.235C103.599 235.331 103.619 235.399 103.659 235.439C103.699 235.479 103.767 235.499 103.863 235.499H104.367V235.787H101.799V235.499Z" fill="black"/>
<path d="M109.242 238.287C109.242 238.03 109.291 237.776 109.389 237.524C109.487 237.272 109.706 237.001 110.047 236.712L110.719 236.138C110.938 235.956 111.104 235.755 111.216 235.536C111.332 235.317 111.391 235.065 111.391 234.78C111.391 234.416 111.302 234.136 111.125 233.94C110.947 233.739 110.695 233.639 110.369 233.639C110.219 233.639 110.075 233.674 109.935 233.744C109.799 233.814 109.687 233.907 109.599 234.024C109.515 234.136 109.473 234.253 109.473 234.374C109.473 234.486 109.498 234.57 109.55 234.626C109.601 234.677 109.671 234.71 109.76 234.724C109.909 234.747 110.019 234.799 110.089 234.878C110.163 234.953 110.201 235.044 110.201 235.151C110.201 235.24 110.168 235.314 110.103 235.375C110.042 235.436 109.956 235.466 109.844 235.466C109.652 235.466 109.494 235.391 109.368 235.242C109.242 235.088 109.179 234.887 109.179 234.64C109.179 234.402 109.237 234.187 109.354 233.996C109.475 233.805 109.641 233.655 109.851 233.548C110.065 233.441 110.303 233.387 110.565 233.387C110.863 233.387 111.132 233.443 111.37 233.555C111.608 233.667 111.794 233.828 111.93 234.038C112.065 234.248 112.133 234.495 112.133 234.78C112.133 235.065 112.032 235.321 111.832 235.55C111.631 235.779 111.367 236.01 111.041 236.243L110.355 236.775C110.159 236.91 110.007 237.041 109.9 237.167C109.797 237.288 109.746 237.414 109.746 237.545C109.746 237.657 109.818 237.713 109.963 237.713H111.286C111.472 237.713 111.603 237.673 111.678 237.594C111.757 237.51 111.811 237.393 111.839 237.244L111.916 236.831H112.07L111.972 238.287H109.242Z" fill="black"/>
<rect x="47.3457" y="220.537" width="25.1538" height="24" rx="6.5" fill="#FAFAFA" stroke="#9E9E9E"/>
<path d="M55.6456 235.499H56.3176C56.4136 235.499 56.4816 235.479 56.5216 235.439C56.5616 235.399 56.5816 235.331 56.5816 235.235V227.795C56.5816 227.699 56.5616 227.631 56.5216 227.591C56.4816 227.551 56.4136 227.531 56.3176 227.531H55.6456V227.243H57.4456V231.299L57.4936 231.311C57.6776 230.927 57.9056 230.643 58.1776 230.459C58.4496 230.267 58.7496 230.171 59.0776 230.171C59.6616 230.171 60.0736 230.351 60.3136 230.711C60.5616 231.071 60.6856 231.503 60.6856 232.007V235.235C60.6856 235.331 60.7056 235.399 60.7456 235.439C60.7856 235.479 60.8536 235.499 60.9496 235.499H61.4536V235.787H59.0536V235.499H59.5576C59.6536 235.499 59.7216 235.479 59.7616 235.439C59.8016 235.399 59.8216 235.331 59.8216 235.235V231.779C59.8216 231.427 59.7496 231.127 59.6056 230.879C59.4696 230.631 59.2336 230.507 58.8976 230.507C58.6176 230.507 58.3656 230.607 58.1416 230.807C57.9256 230.999 57.7536 231.267 57.6256 231.611C57.5056 231.947 57.4456 232.323 57.4456 232.739V235.235C57.4456 235.331 57.4656 235.399 57.5056 235.439C57.5456 235.479 57.6136 235.499 57.7096 235.499H58.2136V235.787H55.6456V235.499Z" fill="black"/>
<path d="M63.3468 238.063H64.0188C64.0888 238.063 64.1378 238.049 64.1658 238.021C64.1985 237.993 64.2148 237.946 64.2148 237.881V234.444H63.3468V234.192H63.7318C63.9838 234.192 64.1868 234.124 64.3408 233.989C64.4995 233.854 64.5975 233.69 64.6348 233.499H64.8588V237.881C64.8588 237.946 64.8728 237.993 64.9008 238.021C64.9335 238.049 64.9848 238.063 65.0548 238.063H65.7268V238.287H63.3468V238.063Z" fill="black"/>
<rect x="139.654" y="220.537" width="25.1538" height="24" rx="6.5" fill="#FAFAFA" stroke="#9E9E9E"/>
<path d="M147.954 235.499H148.626C148.722 235.499 148.79 235.479 148.83 235.439C148.87 235.399 148.89 235.331 148.89 235.235V227.795C148.89 227.699 148.87 227.631 148.83 227.591C148.79 227.551 148.722 227.531 148.626 227.531H147.954V227.243H149.754V231.299L149.802 231.311C149.986 230.927 150.214 230.643 150.486 230.459C150.758 230.267 151.058 230.171 151.386 230.171C151.97 230.171 152.382 230.351 152.622 230.711C152.87 231.071 152.994 231.503 152.994 232.007V235.235C152.994 235.331 153.014 235.399 153.054 235.439C153.094 235.479 153.162 235.499 153.258 235.499H153.762V235.787H151.362V235.499H151.866C151.962 235.499 152.03 235.479 152.07 235.439C152.11 235.399 152.13 235.331 152.13 235.235V231.779C152.13 231.427 152.058 231.127 151.914 230.879C151.778 230.631 151.542 230.507 151.206 230.507C150.926 230.507 150.674 230.607 150.45 230.807C150.234 230.999 150.062 231.267 149.934 231.611C149.814 231.947 149.754 232.323 149.754 232.739V235.235C149.754 235.331 149.774 235.399 149.814 235.439C149.854 235.479 149.922 235.499 150.018 235.499H150.522V235.787H147.954V235.499Z" fill="black"/>
<path d="M156.607 238.399C156.234 238.399 155.926 238.32 155.683 238.161C155.44 237.998 155.319 237.762 155.319 237.454C155.319 237.286 155.368 237.144 155.466 237.027C155.564 236.906 155.692 236.845 155.851 236.845C155.986 236.845 156.091 236.882 156.166 236.957C156.245 237.027 156.285 237.125 156.285 237.251C156.285 237.349 156.255 237.435 156.194 237.51C156.138 237.58 156.063 237.615 155.97 237.615C155.807 237.615 155.725 237.655 155.725 237.734C155.725 238.028 156.019 238.175 156.607 238.175C156.948 238.175 157.193 238.058 157.342 237.825C157.496 237.592 157.573 237.312 157.573 236.985C157.573 236.612 157.491 236.332 157.328 236.145C157.169 235.958 156.973 235.865 156.74 235.865C156.67 235.865 156.612 235.87 156.565 235.879C156.523 235.888 156.469 235.905 156.404 235.928C156.25 235.979 156.131 236.005 156.047 236.005C155.977 236.005 155.914 235.989 155.858 235.956C155.807 235.923 155.781 235.874 155.781 235.809C155.781 235.744 155.807 235.695 155.858 235.662C155.909 235.629 155.972 235.613 156.047 235.613C156.126 235.613 156.236 235.625 156.376 235.648C156.469 235.662 156.598 235.669 156.761 235.669C156.985 235.669 157.155 235.569 157.272 235.368C157.393 235.163 157.454 234.929 157.454 234.668C157.454 234.365 157.384 234.113 157.244 233.912C157.104 233.711 156.901 233.611 156.635 233.611C156.36 233.611 156.164 233.655 156.047 233.744C155.935 233.833 155.879 233.933 155.879 234.045C155.879 234.087 155.895 234.131 155.928 234.178C155.961 234.22 156.005 234.255 156.061 234.283C156.229 234.353 156.313 234.467 156.313 234.626C156.313 234.724 156.28 234.806 156.215 234.871C156.15 234.932 156.056 234.962 155.935 234.962C155.8 234.962 155.681 234.906 155.578 234.794C155.48 234.677 155.431 234.549 155.431 234.409C155.431 234.082 155.555 233.83 155.802 233.653C156.054 233.476 156.357 233.387 156.712 233.387C157.137 233.387 157.477 233.501 157.734 233.73C157.995 233.954 158.126 234.25 158.126 234.619C158.126 234.815 158.079 234.99 157.986 235.144C157.897 235.293 157.783 235.417 157.643 235.515C157.508 235.608 157.37 235.671 157.23 235.704V235.76C157.384 235.788 157.545 235.856 157.713 235.963C157.881 236.066 158.023 236.206 158.14 236.383C158.257 236.56 158.315 236.763 158.315 236.992C158.315 237.277 158.238 237.526 158.084 237.741C157.93 237.951 157.722 238.114 157.461 238.231C157.204 238.343 156.92 238.399 156.607 238.399Z" fill="black"/>
<rect x="139.653" y="175.537" width="25.1538" height="24" rx="6.5" fill="#FFF3E0" stroke="#FFB74D"/>
<path d="M147.782 192.374H148.226C148.698 192.374 149.042 192.082 149.258 191.498L151.838 184.214H152.138L154.742 191.846C154.822 192.046 154.918 192.186 155.03 192.266C155.142 192.338 155.286 192.374 155.462 192.374H156.134V192.758H152.414V192.374H153.206C153.326 192.374 153.426 192.346 153.506 192.29C153.586 192.226 153.626 192.154 153.626 192.074C153.626 191.97 153.61 191.882 153.578 191.81L153.014 190.214H150.206L149.918 191.018C149.806 191.338 149.75 191.57 149.75 191.714C149.75 191.89 149.794 192.046 149.882 192.182C149.97 192.31 150.122 192.374 150.338 192.374H151.07V192.758H147.782V192.374ZM150.338 189.83H152.882L151.634 186.17L150.338 189.83Z" fill="black"/>
<path d="M149.419 181.758H154.419" stroke="black" stroke-linecap="round"/>
<rect x="93.4995" y="175.537" width="25.1538" height="24" rx="6.5" fill="#FFF3E0" stroke="#FFB74D"/>
<path d="M101.628 192.374H102.072C102.544 192.374 102.888 192.082 103.104 191.498L105.684 184.214H105.984L108.588 191.846C108.668 192.046 108.764 192.186 108.876 192.266C108.988 192.338 109.132 192.374 109.308 192.374H109.98V192.758H106.26V192.374H107.052C107.172 192.374 107.272 192.346 107.352 192.29C107.432 192.226 107.472 192.154 107.472 192.074C107.472 191.97 107.456 191.882 107.424 191.81L106.86 190.214H104.052L103.764 191.018C103.652 191.338 103.596 191.57 103.596 191.714C103.596 191.89 103.64 192.046 103.728 192.182C103.816 192.31 103.968 192.374 104.184 192.374H104.916V192.758H101.628V192.374ZM104.184 189.83H106.728L105.48 186.17L104.184 189.83Z" fill="black"/>
<path d="M103.266 181.758H108.266" stroke="black" stroke-linecap="round"/>
<rect x="139.653" y="110.537" width="25.1538" height="24" rx="6.5" fill="#FFF3E0" stroke="#FFB74D"/>
<path d="M147.782 127.374H148.226C148.698 127.374 149.042 127.082 149.258 126.498L151.838 119.214H152.138L154.742 126.846C154.822 127.046 154.918 127.186 155.03 127.266C155.142 127.338 155.286 127.374 155.462 127.374H156.134V127.758H152.414V127.374H153.206C153.326 127.374 153.426 127.346 153.506 127.29C153.586 127.226 153.626 127.154 153.626 127.074C153.626 126.97 153.61 126.882 153.578 126.81L153.014 125.214H150.206L149.918 126.018C149.806 126.338 149.75 126.57 149.75 126.714C149.75 126.89 149.794 127.046 149.882 127.182C149.97 127.31 150.122 127.374 150.338 127.374H151.07V127.758H147.782V127.374ZM150.338 124.83H152.882L151.634 121.17L150.338 124.83Z" fill="black"/>
<path d="M149.419 116.758H154.419" stroke="black" stroke-linecap="round"/>
<rect x="47.3455" y="110.537" width="25.1538" height="24" rx="6.5" fill="#FFF3E0" stroke="#FFB74D"/>
<path d="M55.4744 127.374H55.9184C56.3904 127.374 56.7344 127.082 56.9504 126.498L59.5304 119.214H59.8304L62.4344 126.846C62.5144 127.046 62.6104 127.186 62.7224 127.266C62.8344 127.338 62.9784 127.374 63.1544 127.374H63.8264V127.758H60.1064V127.374H60.8984C61.0184 127.374 61.1184 127.346 61.1984 127.29C61.2784 127.226 61.3184 127.154 61.3184 127.074C61.3184 126.97 61.3024 126.882 61.2704 126.81L60.7064 125.214H57.8984L57.6104 126.018C57.4984 126.338 57.4424 126.57 57.4424 126.714C57.4424 126.89 57.4864 127.046 57.5744 127.182C57.6624 127.31 57.8144 127.374 58.0304 127.374H58.7624V127.758H55.4744V127.374ZM58.0304 124.83H60.5744L59.3264 121.17L58.0304 124.83Z" fill="black"/>
<path d="M57.1113 116.758H62.1113" stroke="black" stroke-linecap="round"/>
<circle cx="152.23" cy="90.037" r="9.5" fill="#E0F7FA" stroke="#4DD0E1"/>
<path d="M152.23 85.0371V95.0371" stroke="black" stroke-linecap="round"/>
<path d="M157.23 90.0371L147.23 90.0371" stroke="black" stroke-linecap="round"/>
<circle cx="152.23" cy="155.037" r="9.5" fill="#E0F7FA" stroke="#4DD0E1"/>
<path d="M152.23 150.037V160.037" stroke="black" stroke-linecap="round"/>
<path d="M157.23 155.037L147.23 155.037" stroke="black" stroke-linecap="round"/>
<circle cx="106.076" cy="155.037" r="9.5" fill="#E0F7FA" stroke="#4DD0E1"/>
<path d="M106.076 150.037V160.037" stroke="black" stroke-linecap="round"/>
<path d="M111.076 155.037L101.076 155.037" stroke="black" stroke-linecap="round"/>
<circle cx="59.9226" cy="90.037" r="9.5" fill="#E0F7FA" stroke="#4DD0E1"/>
<path d="M59.9226 85.0371V95.0371" stroke="black" stroke-linecap="round"/>
<path d="M64.9226 90.0371L54.9226 90.0371" stroke="black" stroke-linecap="round"/>
<path d="M66.7477 155.037L66.2978 155.255L66.4346 155.537H66.7477V155.037ZM93.4362 155.391C93.6315 155.195 93.6315 154.879 93.4362 154.683L90.2542 151.502C90.059 151.306 89.7424 151.306 89.5471 151.502C89.3518 151.697 89.3518 152.013 89.5471 152.209L92.3755 155.037L89.5471 157.865C89.3518 158.061 89.3518 158.377 89.5471 158.573C89.7424 158.768 90.059 158.768 90.2542 158.573L93.4362 155.391ZM59.9226 140.976L59.4728 141.194L66.2978 155.255L66.7477 155.037L67.1975 154.819L60.3724 140.758L59.9226 140.976ZM66.7477 155.037V155.537H93.0826V155.037V154.537H66.7477V155.037Z" fill="black"/>
<path d="M112.901 90.0371L112.452 90.2554L112.588 90.5371H112.901V90.0371ZM139.59 90.3906C139.785 90.1953 139.785 89.8788 139.59 89.6835L136.408 86.5015C136.213 86.3063 135.896 86.3063 135.701 86.5015C135.506 86.6968 135.506 87.0134 135.701 87.2086L138.529 90.0371L135.701 92.8655C135.506 93.0607 135.506 93.3773 135.701 93.5726C135.896 93.7678 136.213 93.7678 136.408 93.5726L139.59 90.3906ZM106.076 75.9759L105.627 76.1943L112.452 90.2554L112.901 90.0371L113.351 89.8187L106.526 75.7576L106.076 75.9759ZM112.901 90.0371V90.5371H139.236V90.0371V89.5371H112.901V90.0371Z" fill="black"/>
<path d="M20.5106 90.0371L20.0608 90.2554L20.1975 90.5371H20.5106V90.0371ZM47.1991 90.3906C47.3944 90.1953 47.3944 89.8788 47.1991 89.6835L44.0172 86.5015C43.8219 86.3063 43.5053 86.3063 43.31 86.5015C43.1148 86.6968 43.1148 87.0134 43.31 87.2086L46.1385 90.0371L43.31 92.8655C43.1148 93.0607 43.1148 93.3773 43.31 93.5726C43.5053 93.7678 43.8219 93.7678 44.0172 93.5726L47.1991 90.3906ZM13.6855 75.9759L13.2357 76.1943L20.0608 90.2554L20.5106 90.0371L20.9604 89.8187L14.1354 75.7576L13.6855 75.9759ZM20.5106 90.0371V90.5371H46.8456V90.0371V89.5371H20.5106V90.0371Z" fill="black"/>
<path d="M137.675 140.866L138 140.486L137.86 140.366H137.675V140.866ZM143.497 146.309C143.772 146.288 143.978 146.047 143.956 145.772L143.606 141.285C143.584 141.01 143.344 140.804 143.068 140.826C142.793 140.847 142.587 141.088 142.609 141.363L142.92 145.351L138.932 145.663C138.657 145.684 138.451 145.925 138.473 146.2C138.494 146.475 138.735 146.681 139.01 146.66L143.497 146.309ZM60.3596 140.866V141.366H137.675V140.866V140.366H60.3596V140.866ZM137.675 140.866L137.35 141.246L143.133 146.191L143.458 145.811L143.783 145.431L138 140.486L137.675 140.866Z" fill="black"/>
</svg>
