<svg width="267" height="116" viewBox="0 0 267 116" fill="none" xmlns="http://www.w3.org/2000/svg">
<path d="M0.724976 102.178C0.448833 102.178 0.224976 102.402 0.224976 102.678C0.224976 102.954 0.448833 103.178 0.724976 103.178L0.724976 102.178ZM266.854 103.032C267.049 102.836 267.049 102.52 266.854 102.324L263.672 99.1425C263.476 98.9472 263.16 98.9472 262.964 99.1425C262.769 99.3378 262.769 99.6543 262.964 99.8496L265.793 102.678L262.964 105.506C262.769 105.702 262.769 106.018 262.964 106.214C263.16 106.409 263.476 106.409 263.672 106.214L266.854 103.032ZM0.724976 102.678L0.724976 103.178L266.5 103.178L266.5 102.678L266.5 102.178L0.724976 102.178L0.724976 102.678Z" fill="black"/>
<path d="M25.651 31.5636C25.651 31.2875 25.4271 31.0636 25.151 31.0636C24.8749 31.0636 24.651 31.2875 24.651 31.5636L25.651 31.5636ZM24.7974 84.9713C24.9927 85.1666 25.3093 85.1666 25.5046 84.9713L28.6865 81.7894C28.8818 81.5941 28.8818 81.2775 28.6865 81.0822C28.4913 80.887 28.1747 80.887 27.9794 81.0822L25.151 83.9107L22.3226 81.0822C22.1273 80.887 21.8107 80.887 21.6155 81.0822C21.4202 81.2775 21.4202 81.5941 21.6155 81.7894L24.7974 84.9713ZM25.151 31.5636L24.651 31.5636L24.651 84.6178L25.151 84.6178L25.651 84.6178L25.651 31.5636L25.151 31.5636Z" fill="black"/>
<path d="M170.266 31.5636C170.266 31.2875 170.042 31.0636 169.766 31.0636C169.49 31.0636 169.266 31.2875 169.266 31.5636L170.266 31.5636ZM169.413 84.9713C169.608 85.1666 169.925 85.1666 170.12 84.9713L173.302 81.7894C173.497 81.5941 173.497 81.2775 173.302 81.0822C173.107 80.887 172.79 80.887 172.595 81.0822L169.766 83.9107L166.938 81.0822C166.743 80.887 166.426 80.887 166.231 81.0822C166.036 81.2775 166.036 81.5941 166.231 81.7894L169.413 84.9713ZM169.766 31.5636L169.266 31.5636L169.266 84.6178L169.766 84.6178L170.266 84.6178L170.266 31.5636L169.766 31.5636Z" fill="black"/>
<path d="M97.9585 31.5636C97.9585 31.2875 97.7346 31.0636 97.4585 31.0636C97.1824 31.0636 96.9585 31.2875 96.9585 31.5636L97.9585 31.5636ZM97.1049 84.9713C97.3002 85.1666 97.6168 85.1666 97.8121 84.9713L100.994 81.7894C101.189 81.5941 101.189 81.2775 100.994 81.0822C100.799 80.887 100.482 80.887 100.287 81.0822L97.4585 83.9107L94.6301 81.0822C94.4348 80.887 94.1182 80.887 93.923 81.0822C93.7277 81.2775 93.7277 81.5941 93.923 81.7894L97.1049 84.9713ZM97.4585 31.5636L96.9585 31.5636L96.9585 84.6178L97.4585 84.6178L97.9585 84.6178L97.9585 31.5636L97.4585 31.5636Z" fill="black"/>
<path d="M242.574 31.5636C242.574 31.2875 242.35 31.0636 242.074 31.0636C241.798 31.0636 241.574 31.2875 241.574 31.5636L242.574 31.5636ZM241.72 84.9713C241.915 85.1666 242.232 85.1666 242.427 84.9713L245.609 81.7894C245.805 81.5941 245.805 81.2775 245.609 81.0822C245.414 80.887 245.097 80.887 244.902 81.0822L242.074 83.9107L239.245 81.0822C239.05 80.887 238.733 80.887 238.538 81.0822C238.343 81.2775 238.343 81.5941 238.538 81.7894L241.72 84.9713ZM242.074 31.5636L241.574 31.5636L241.574 84.6178L242.074 84.6178L242.574 84.6178L242.574 31.5636L242.074 31.5636Z" fill="black"/>
<rect x="12.5741" y="0.537052" width="25.1538" height="24" rx="6.5" fill="#E0F2F1" stroke="#4DB6AC"/>
<rect x="157.189" y="0.537052" width="25.1538" height="24" rx="6.5" fill="#E0F2F1" stroke="#4DB6AC"/>
<rect x="84.8817" y="0.537052" width="25.1538" height="24" rx="6.5" fill="#E0F2F1" stroke="#4DB6AC"/>
<rect x="229.497" y="0.537052" width="25.1538" height="24" rx="6.5" fill="#E0F2F1" stroke="#4DB6AC"/>
<path d="M19.9418 15.4991H20.2538C20.4458 15.4991 20.6058 15.4431 20.7338 15.3311C20.8618 15.2111 20.9938 15.0471 21.1298 14.8391L22.2218 13.2071L20.7578 10.8671C20.6938 10.7711 20.6298 10.7031 20.5658 10.6631C20.5098 10.6231 20.4138 10.6031 20.2778 10.6031H19.9898V10.3151H22.3658V10.6031H22.0778C21.9178 10.6031 21.8378 10.6831 21.8378 10.8431C21.8378 10.9311 21.8618 11.0151 21.9098 11.0951L22.7378 12.4391L23.5298 11.2631C23.6018 11.1591 23.6378 11.0311 23.6378 10.8791C23.6378 10.7911 23.6058 10.7231 23.5418 10.6751C23.4858 10.6271 23.4218 10.6031 23.3498 10.6031H23.0618V10.3151H25.1498V10.6031H24.8498C24.6818 10.6031 24.5338 10.6431 24.4058 10.7231C24.2778 10.8031 24.1498 10.9391 24.0218 11.1311L22.9298 12.7391L24.4538 15.1871C24.5258 15.2991 24.5978 15.3791 24.6698 15.4271C24.7418 15.4751 24.8658 15.4991 25.0418 15.4991H25.3178V15.7871H22.8218V15.4991H23.1818C23.2698 15.4991 23.3378 15.4831 23.3858 15.4511C23.4338 15.4111 23.4578 15.3591 23.4578 15.2951C23.4578 15.2551 23.4498 15.2151 23.4338 15.1751C23.4178 15.1271 23.3978 15.0831 23.3738 15.0431L22.4138 13.5071L21.5978 14.7191C21.4778 14.9111 21.4178 15.0511 21.4178 15.1391C21.4178 15.3791 21.5178 15.4991 21.7178 15.4991H21.9338V15.7871H19.9418V15.4991Z" fill="black"/>
<path d="M164.557 15.4991H164.869C165.061 15.4991 165.221 15.4431 165.349 15.3311C165.477 15.2111 165.609 15.0471 165.745 14.8391L166.837 13.2071L165.373 10.8671C165.309 10.7711 165.245 10.7031 165.181 10.6631C165.125 10.6231 165.029 10.6031 164.893 10.6031H164.605V10.3151H166.981V10.6031H166.693C166.533 10.6031 166.453 10.6831 166.453 10.8431C166.453 10.9311 166.477 11.0151 166.525 11.0951L167.353 12.4391L168.145 11.2631C168.217 11.1591 168.253 11.0311 168.253 10.8791C168.253 10.7911 168.221 10.7231 168.157 10.6751C168.101 10.6271 168.037 10.6031 167.965 10.6031H167.677V10.3151H169.765V10.6031H169.465C169.297 10.6031 169.149 10.6431 169.021 10.7231C168.893 10.8031 168.765 10.9391 168.637 11.1311L167.545 12.7391L169.069 15.1871C169.141 15.2991 169.213 15.3791 169.285 15.4271C169.357 15.4751 169.481 15.4991 169.657 15.4991H169.933V15.7871H167.437V15.4991H167.797C167.885 15.4991 167.953 15.4831 168.001 15.4511C168.049 15.4111 168.073 15.3591 168.073 15.2951C168.073 15.2551 168.065 15.2151 168.049 15.1751C168.033 15.1271 168.013 15.0831 167.989 15.0431L167.029 13.5071L166.213 14.7191C166.093 14.9111 166.033 15.0511 166.033 15.1391C166.033 15.3791 166.133 15.4991 166.333 15.4991H166.549V15.7871H164.557V15.4991Z" fill="black"/>
<path d="M92.2494 15.4991H92.5614C92.7534 15.4991 92.9134 15.4431 93.0414 15.3311C93.1694 15.2111 93.3014 15.0471 93.4374 14.8391L94.5294 13.2071L93.0654 10.8671C93.0014 10.7711 92.9374 10.7031 92.8734 10.6631C92.8174 10.6231 92.7214 10.6031 92.5854 10.6031H92.2974V10.3151H94.6734V10.6031H94.3854C94.2254 10.6031 94.1454 10.6831 94.1454 10.8431C94.1454 10.9311 94.1694 11.0151 94.2174 11.0951L95.0454 12.4391L95.8374 11.2631C95.9094 11.1591 95.9454 11.0311 95.9454 10.8791C95.9454 10.7911 95.9134 10.7231 95.8494 10.6751C95.7934 10.6271 95.7294 10.6031 95.6574 10.6031H95.3694V10.3151H97.4574V10.6031H97.1574C96.9894 10.6031 96.8414 10.6431 96.7134 10.7231C96.5854 10.8031 96.4574 10.9391 96.3294 11.1311L95.2374 12.7391L96.7614 15.1871C96.8334 15.2991 96.9054 15.3791 96.9774 15.4271C97.0494 15.4751 97.1734 15.4991 97.3494 15.4991H97.6254V15.7871H95.1294V15.4991H95.4894C95.5774 15.4991 95.6454 15.4831 95.6934 15.4511C95.7414 15.4111 95.7654 15.3591 95.7654 15.2951C95.7654 15.2551 95.7574 15.2151 95.7414 15.1751C95.7254 15.1271 95.7054 15.0831 95.6814 15.0431L94.7214 13.5071L93.9054 14.7191C93.7854 14.9111 93.7254 15.0511 93.7254 15.1391C93.7254 15.3791 93.8254 15.4991 94.0254 15.4991H94.2414V15.7871H92.2494V15.4991Z" fill="black"/>
<path d="M236.865 15.4991H237.177C237.369 15.4991 237.529 15.4431 237.657 15.3311C237.785 15.2111 237.917 15.0471 238.053 14.8391L239.145 13.2071L237.681 10.8671C237.617 10.7711 237.553 10.7031 237.489 10.6631C237.433 10.6231 237.337 10.6031 237.201 10.6031H236.913V10.3151H239.289V10.6031H239.001C238.841 10.6031 238.761 10.6831 238.761 10.8431C238.761 10.9311 238.785 11.0151 238.833 11.0951L239.661 12.4391L240.453 11.2631C240.525 11.1591 240.561 11.0311 240.561 10.8791C240.561 10.7911 240.529 10.7231 240.465 10.6751C240.409 10.6271 240.345 10.6031 240.273 10.6031H239.985V10.3151H242.073V10.6031H241.773C241.605 10.6031 241.457 10.6431 241.329 10.7231C241.201 10.8031 241.073 10.9391 240.945 11.1311L239.853 12.7391L241.377 15.1871C241.449 15.2991 241.521 15.3791 241.593 15.4271C241.665 15.4751 241.789 15.4991 241.965 15.4991H242.241V15.7871H239.745V15.4991H240.105C240.193 15.4991 240.261 15.4831 240.309 15.4511C240.357 15.4111 240.381 15.3591 240.381 15.2951C240.381 15.2551 240.373 15.2151 240.357 15.1751C240.341 15.1271 240.321 15.0831 240.297 15.0431L239.337 13.5071L238.521 14.7191C238.401 14.9111 238.341 15.0511 238.341 15.1391C238.341 15.3791 238.441 15.4991 238.641 15.4991H238.857V15.7871H236.865V15.4991Z" fill="black"/>
<path d="M28.181 17.3991C27.8497 17.3991 27.5557 17.2801 27.299 17.0421C27.0423 16.8041 26.8417 16.4937 26.697 16.1111C26.557 15.7237 26.487 15.3177 26.487 14.8931C26.487 14.4684 26.557 14.0647 26.697 13.6821C26.8417 13.2947 27.0423 12.9821 27.299 12.7441C27.5557 12.5061 27.8497 12.3871 28.181 12.3871C28.5077 12.3871 28.7993 12.5061 29.056 12.7441C29.3173 12.9821 29.518 13.2947 29.658 13.6821C29.8027 14.0647 29.875 14.4684 29.875 14.8931C29.875 15.3177 29.8027 15.7237 29.658 16.1111C29.518 16.4937 29.3173 16.8041 29.056 17.0421C28.7993 17.2801 28.5077 17.3991 28.181 17.3991ZM28.181 17.1751C28.5683 17.1751 28.8227 16.9557 28.944 16.5171C29.07 16.0784 29.133 15.5371 29.133 14.8931C29.133 14.2491 29.07 13.7077 28.944 13.2691C28.8227 12.8304 28.5683 12.6111 28.181 12.6111C27.7937 12.6111 27.537 12.8304 27.411 13.2691C27.2897 13.7031 27.229 14.2444 27.229 14.8931C27.229 15.5417 27.2897 16.0854 27.411 16.5241C27.537 16.9581 27.7937 17.1751 28.181 17.1751Z" fill="black"/>
<path d="M171.347 17.2871C171.347 17.0304 171.396 16.7761 171.494 16.5241C171.592 16.2721 171.812 16.0014 172.152 15.7121L172.824 15.1381C173.044 14.9561 173.209 14.7554 173.321 14.5361C173.438 14.3167 173.496 14.0647 173.496 13.7801C173.496 13.4161 173.408 13.1361 173.23 12.9401C173.053 12.7394 172.801 12.6391 172.474 12.6391C172.325 12.6391 172.18 12.6741 172.04 12.7441C171.905 12.8141 171.793 12.9074 171.704 13.0241C171.62 13.1361 171.578 13.2527 171.578 13.3741C171.578 13.4861 171.604 13.5701 171.655 13.6261C171.707 13.6774 171.777 13.7101 171.865 13.7241C172.015 13.7474 172.124 13.7987 172.194 13.8781C172.269 13.9527 172.306 14.0437 172.306 14.1511C172.306 14.2397 172.274 14.3144 172.208 14.3751C172.148 14.4357 172.061 14.4661 171.949 14.4661C171.758 14.4661 171.599 14.3914 171.473 14.2421C171.347 14.0881 171.284 13.8874 171.284 13.6401C171.284 13.4021 171.343 13.1874 171.459 12.9961C171.581 12.8047 171.746 12.6554 171.956 12.5481C172.171 12.4407 172.409 12.3871 172.67 12.3871C172.969 12.3871 173.237 12.4431 173.475 12.5551C173.713 12.6671 173.9 12.8281 174.035 13.0381C174.171 13.2481 174.238 13.4954 174.238 13.7801C174.238 14.0647 174.138 14.3214 173.937 14.5501C173.737 14.7787 173.473 15.0097 173.146 15.2431L172.46 15.7751C172.264 15.9104 172.113 16.0411 172.005 16.1671C171.903 16.2884 171.851 16.4144 171.851 16.5451C171.851 16.6571 171.924 16.7131 172.068 16.7131H173.391C173.578 16.7131 173.709 16.6734 173.783 16.5941C173.863 16.5101 173.916 16.3934 173.944 16.2441L174.021 15.8311H174.175L174.077 17.2871H171.347Z" fill="black"/>
<path d="M99.2985 17.0631H99.9705C100.04 17.0631 100.089 17.0491 100.117 17.0211C100.15 16.9931 100.166 16.9464 100.166 16.8811V13.4441H99.2985V13.1921H99.6835C99.9355 13.1921 100.138 13.1244 100.292 12.9891C100.451 12.8537 100.549 12.6904 100.586 12.4991H100.81V16.8811C100.81 16.9464 100.824 16.9931 100.852 17.0211C100.885 17.0491 100.936 17.0631 101.006 17.0631H101.678V17.2871H99.2985V17.0631Z" fill="black"/>
<path d="M244.866 17.3991C244.492 17.3991 244.184 17.3197 243.942 17.1611C243.699 16.9977 243.578 16.7621 243.578 16.4541C243.578 16.2861 243.627 16.1437 243.725 16.0271C243.823 15.9057 243.951 15.8451 244.11 15.8451C244.245 15.8451 244.35 15.8824 244.425 15.9571C244.504 16.0271 244.544 16.1251 244.544 16.2511C244.544 16.3491 244.513 16.4354 244.453 16.5101C244.397 16.5801 244.322 16.6151 244.229 16.6151C244.065 16.6151 243.984 16.6547 243.984 16.7341C243.984 17.0281 244.278 17.1751 244.866 17.1751C245.206 17.1751 245.451 17.0584 245.601 16.8251C245.755 16.5917 245.832 16.3117 245.832 15.9851C245.832 15.6117 245.75 15.3317 245.587 15.1451C245.428 14.9584 245.232 14.8651 244.999 14.8651C244.929 14.8651 244.87 14.8697 244.824 14.8791C244.782 14.8884 244.728 14.9047 244.663 14.9281C244.509 14.9794 244.39 15.0051 244.306 15.0051C244.236 15.0051 244.173 14.9887 244.117 14.9561C244.065 14.9234 244.04 14.8744 244.04 14.8091C244.04 14.7437 244.065 14.6947 244.117 14.6621C244.168 14.6294 244.231 14.6131 244.306 14.6131C244.385 14.6131 244.495 14.6247 244.635 14.6481C244.728 14.6621 244.856 14.6691 245.02 14.6691C245.244 14.6691 245.414 14.5687 245.531 14.3681C245.652 14.1627 245.713 13.9294 245.713 13.6681C245.713 13.3647 245.643 13.1127 245.503 12.9121C245.363 12.7114 245.16 12.6111 244.894 12.6111C244.618 12.6111 244.422 12.6554 244.306 12.7441C244.194 12.8327 244.138 12.9331 244.138 13.0451C244.138 13.0871 244.154 13.1314 244.187 13.1781C244.219 13.2201 244.264 13.2551 244.32 13.2831C244.488 13.3531 244.572 13.4674 244.572 13.6261C244.572 13.7241 244.539 13.8057 244.474 13.8711C244.408 13.9317 244.315 13.9621 244.194 13.9621C244.058 13.9621 243.939 13.9061 243.837 13.7941C243.739 13.6774 243.69 13.5491 243.69 13.4091C243.69 13.0824 243.813 12.8304 244.061 12.6531C244.313 12.4757 244.616 12.3871 244.971 12.3871C245.395 12.3871 245.736 12.5014 245.993 12.7301C246.254 12.9541 246.385 13.2504 246.385 13.6191C246.385 13.8151 246.338 13.9901 246.245 14.1441C246.156 14.2934 246.042 14.4171 245.902 14.5151C245.766 14.6084 245.629 14.6714 245.489 14.7041V14.7601C245.643 14.7881 245.804 14.8557 245.972 14.9631C246.14 15.0657 246.282 15.2057 246.399 15.3831C246.515 15.5604 246.574 15.7634 246.574 15.9921C246.574 16.2767 246.497 16.5264 246.343 16.7411C246.189 16.9511 245.981 17.1144 245.72 17.2311C245.463 17.3431 245.178 17.3991 244.866 17.3991Z" fill="black"/>
<rect x="12.5741" y="45.5371" width="25.1538" height="24" rx="6.5" fill="#E8F5E9" stroke="#81C784"/>
<path d="M21.9908 62.3743H22.8548C23.0708 62.3743 23.1788 62.2663 23.1788 62.0503V54.9223C23.1788 54.8103 23.1508 54.7303 23.0948 54.6823C23.0468 54.6263 22.9668 54.5983 22.8548 54.5983H21.9908V54.2143H25.9028C26.3748 54.2143 26.8148 54.3023 27.2228 54.4783C27.6388 54.6543 27.9708 54.8983 28.2188 55.2103C28.4668 55.5143 28.5908 55.8623 28.5908 56.2543C28.5908 56.7983 28.4068 57.2463 28.0388 57.5983C27.6708 57.9503 27.2428 58.1783 26.7548 58.2823V58.3303C27.0828 58.3543 27.4068 58.4583 27.7268 58.6423C28.0548 58.8183 28.3228 59.0623 28.5308 59.3743C28.7468 59.6863 28.8548 60.0383 28.8548 60.4303C28.8548 60.9183 28.7268 61.3383 28.4708 61.6903C28.2148 62.0423 27.8708 62.3103 27.4388 62.4943C27.0148 62.6703 26.5468 62.7583 26.0348 62.7583H21.9908V62.3743ZM25.8548 58.1023C26.5028 58.1023 26.9428 57.9383 27.1748 57.6103C27.4148 57.2743 27.5348 56.8223 27.5348 56.2543C27.5348 55.7743 27.3828 55.3783 27.0788 55.0663C26.7748 54.7543 26.3988 54.5983 25.9508 54.5983H24.6068C24.4948 54.5983 24.4108 54.6263 24.3548 54.6823C24.3068 54.7303 24.2828 54.8103 24.2828 54.9223V58.1023H25.8548ZM25.9028 62.3743C26.3908 62.3743 26.7908 62.2303 27.1028 61.9423C27.4228 61.6463 27.5828 61.1423 27.5828 60.4303C27.5828 59.7183 27.4228 59.2183 27.1028 58.9303C26.7908 58.6343 26.3908 58.4863 25.9028 58.4863H24.2828V62.0503C24.2828 62.2663 24.3908 62.3743 24.6068 62.3743H25.9028Z" fill="black"/>
<path d="M22.651 51.7583H27.651" stroke="black" stroke-linecap="round"/>
<rect x="157.189" y="45.5371" width="25.1538" height="24" rx="6.5" fill="#E8F5E9" stroke="#81C784"/>
<path d="M166.606 62.3743H167.47C167.686 62.3743 167.794 62.2663 167.794 62.0503V54.9223C167.794 54.8103 167.766 54.7303 167.71 54.6823C167.662 54.6263 167.582 54.5983 167.47 54.5983H166.606V54.2143H170.518C170.99 54.2143 171.43 54.3023 171.838 54.4783C172.254 54.6543 172.586 54.8983 172.834 55.2103C173.082 55.5143 173.206 55.8623 173.206 56.2543C173.206 56.7983 173.022 57.2463 172.654 57.5983C172.286 57.9503 171.858 58.1783 171.37 58.2823V58.3303C171.698 58.3543 172.022 58.4583 172.342 58.6423C172.67 58.8183 172.938 59.0623 173.146 59.3743C173.362 59.6863 173.47 60.0383 173.47 60.4303C173.47 60.9183 173.342 61.3383 173.086 61.6903C172.83 62.0423 172.486 62.3103 172.054 62.4943C171.63 62.6703 171.162 62.7583 170.65 62.7583H166.606V62.3743ZM170.47 58.1023C171.118 58.1023 171.558 57.9383 171.79 57.6103C172.03 57.2743 172.15 56.8223 172.15 56.2543C172.15 55.7743 171.998 55.3783 171.694 55.0663C171.39 54.7543 171.014 54.5983 170.566 54.5983H169.222C169.11 54.5983 169.026 54.6263 168.97 54.6823C168.922 54.7303 168.898 54.8103 168.898 54.9223V58.1023H170.47ZM170.518 62.3743C171.006 62.3743 171.406 62.2303 171.718 61.9423C172.038 61.6463 172.198 61.1423 172.198 60.4303C172.198 59.7183 172.038 59.2183 171.718 58.9303C171.406 58.6343 171.006 58.4863 170.518 58.4863H168.898V62.0503C168.898 62.2663 169.006 62.3743 169.222 62.3743H170.518Z" fill="black"/>
<path d="M167.266 51.7583H172.266" stroke="black" stroke-linecap="round"/>
<rect x="84.8817" y="45.5371" width="25.1538" height="24" rx="6.5" fill="#E8F5E9" stroke="#81C784"/>
<path d="M94.2984 62.3743H95.1624C95.3784 62.3743 95.4864 62.2663 95.4864 62.0503V54.9223C95.4864 54.8103 95.4584 54.7303 95.4024 54.6823C95.3544 54.6263 95.2744 54.5983 95.1624 54.5983H94.2984V54.2143H98.2104C98.6824 54.2143 99.1224 54.3023 99.5304 54.4783C99.9464 54.6543 100.278 54.8983 100.526 55.2103C100.774 55.5143 100.898 55.8623 100.898 56.2543C100.898 56.7983 100.714 57.2463 100.346 57.5983C99.9784 57.9503 99.5504 58.1783 99.0624 58.2823V58.3303C99.3904 58.3543 99.7144 58.4583 100.034 58.6423C100.362 58.8183 100.63 59.0623 100.838 59.3743C101.054 59.6863 101.162 60.0383 101.162 60.4303C101.162 60.9183 101.034 61.3383 100.778 61.6903C100.522 62.0423 100.178 62.3103 99.7464 62.4943C99.3224 62.6703 98.8544 62.7583 98.3424 62.7583H94.2984V62.3743ZM98.1624 58.1023C98.8104 58.1023 99.2504 57.9383 99.4824 57.6103C99.7224 57.2743 99.8424 56.8223 99.8424 56.2543C99.8424 55.7743 99.6904 55.3783 99.3864 55.0663C99.0824 54.7543 98.7064 54.5983 98.2584 54.5983H96.9144C96.8024 54.5983 96.7184 54.6263 96.6624 54.6823C96.6144 54.7303 96.5904 54.8103 96.5904 54.9223V58.1023H98.1624ZM98.2104 62.3743C98.6984 62.3743 99.0984 62.2303 99.4104 61.9423C99.7304 61.6463 99.8904 61.1423 99.8904 60.4303C99.8904 59.7183 99.7304 59.2183 99.4104 58.9303C99.0984 58.6343 98.6984 58.4863 98.2104 58.4863H96.5904V62.0503C96.5904 62.2663 96.6984 62.3743 96.9144 62.3743H98.2104Z" fill="black"/>
<path d="M94.9586 51.7583H99.9586" stroke="black" stroke-linecap="round"/>
<rect x="229.497" y="45.5371" width="25.1538" height="24" rx="6.5" fill="#E8F5E9" stroke="#81C784"/>
<path d="M238.914 62.3743H239.778C239.994 62.3743 240.102 62.2663 240.102 62.0503V54.9223C240.102 54.8103 240.074 54.7303 240.018 54.6823C239.97 54.6263 239.89 54.5983 239.778 54.5983H238.914V54.2143H242.826C243.298 54.2143 243.738 54.3023 244.146 54.4783C244.562 54.6543 244.894 54.8983 245.142 55.2103C245.39 55.5143 245.514 55.8623 245.514 56.2543C245.514 56.7983 245.33 57.2463 244.962 57.5983C244.594 57.9503 244.166 58.1783 243.678 58.2823V58.3303C244.006 58.3543 244.33 58.4583 244.65 58.6423C244.978 58.8183 245.246 59.0623 245.454 59.3743C245.67 59.6863 245.778 60.0383 245.778 60.4303C245.778 60.9183 245.65 61.3383 245.394 61.6903C245.138 62.0423 244.794 62.3103 244.362 62.4943C243.938 62.6703 243.47 62.7583 242.958 62.7583H238.914V62.3743ZM242.778 58.1023C243.426 58.1023 243.866 57.9383 244.098 57.6103C244.338 57.2743 244.458 56.8223 244.458 56.2543C244.458 55.7743 244.306 55.3783 244.002 55.0663C243.698 54.7543 243.322 54.5983 242.874 54.5983H241.53C241.418 54.5983 241.334 54.6263 241.278 54.6823C241.23 54.7303 241.206 54.8103 241.206 54.9223V58.1023H242.778ZM242.826 62.3743C243.314 62.3743 243.714 62.2303 244.026 61.9423C244.346 61.6463 244.506 61.1423 244.506 60.4303C244.506 59.7183 244.346 59.2183 244.026 58.9303C243.714 58.6343 243.314 58.4863 242.826 58.4863H241.206V62.0503C241.206 62.2663 241.314 62.3743 241.53 62.3743H242.826Z" fill="black"/>
<path d="M239.574 51.7583H244.574" stroke="black" stroke-linecap="round"/>
<rect x="12.5741" y="90.5371" width="25.1538" height="24" rx="6.5" fill="#FAFAFA" stroke="#9E9E9E"/>
<path d="M20.8741 105.499H21.5461C21.6421 105.499 21.7101 105.479 21.7501 105.439C21.7901 105.399 21.8101 105.331 21.8101 105.235V97.7951C21.8101 97.6991 21.7901 97.6311 21.7501 97.5911C21.7101 97.5511 21.6421 97.5311 21.5461 97.5311H20.8741V97.2431H22.6741V101.299L22.7221 101.311C22.9061 100.927 23.1341 100.643 23.4061 100.459C23.6781 100.267 23.9781 100.171 24.3061 100.171C24.8901 100.171 25.3021 100.351 25.5421 100.711C25.7901 101.071 25.9141 101.503 25.9141 102.007V105.235C25.9141 105.331 25.9341 105.399 25.9741 105.439C26.0141 105.479 26.0821 105.499 26.1781 105.499H26.6821V105.787H24.2821V105.499H24.7861C24.8821 105.499 24.9501 105.479 24.9901 105.439C25.0301 105.399 25.0501 105.331 25.0501 105.235V101.779C25.0501 101.427 24.9781 101.127 24.8341 100.879C24.6981 100.631 24.4621 100.507 24.1261 100.507C23.8461 100.507 23.5941 100.607 23.3701 100.807C23.1541 100.999 22.9821 101.267 22.8541 101.611C22.7341 101.947 22.6741 102.323 22.6741 102.739V105.235C22.6741 105.331 22.6941 105.399 22.7341 105.439C22.7741 105.479 22.8421 105.499 22.9381 105.499H23.4421V105.787H20.8741V105.499Z" fill="black"/>
<path d="M29.7654 108.399C29.434 108.399 29.14 108.28 28.8834 108.042C28.6267 107.804 28.426 107.494 28.2814 107.111C28.1414 106.724 28.0714 106.318 28.0714 105.893C28.0714 105.468 28.1414 105.065 28.2814 104.682C28.426 104.295 28.6267 103.982 28.8834 103.744C29.14 103.506 29.434 103.387 29.7654 103.387C30.092 103.387 30.3837 103.506 30.6404 103.744C30.9017 103.982 31.1024 104.295 31.2424 104.682C31.387 105.065 31.4594 105.468 31.4594 105.893C31.4594 106.318 31.387 106.724 31.2424 107.111C31.1024 107.494 30.9017 107.804 30.6404 108.042C30.3837 108.28 30.092 108.399 29.7654 108.399ZM29.7654 108.175C30.1527 108.175 30.407 107.956 30.5284 107.517C30.6544 107.078 30.7174 106.537 30.7174 105.893C30.7174 105.249 30.6544 104.708 30.5284 104.269C30.407 103.83 30.1527 103.611 29.7654 103.611C29.378 103.611 29.1214 103.83 28.9954 104.269C28.874 104.703 28.8134 105.244 28.8134 105.893C28.8134 106.542 28.874 107.085 28.9954 107.524C29.1214 107.958 29.378 108.175 29.7654 108.175Z" fill="black"/>
<rect x="157.189" y="90.5371" width="25.1538" height="24" rx="6.5" fill="#FAFAFA" stroke="#9E9E9E"/>
<path d="M165.489 105.499H166.161C166.257 105.499 166.325 105.479 166.365 105.439C166.405 105.399 166.425 105.331 166.425 105.235V97.7951C166.425 97.6991 166.405 97.6311 166.365 97.5911C166.325 97.5511 166.257 97.5311 166.161 97.5311H165.489V97.2431H167.289V101.299L167.337 101.311C167.521 100.927 167.749 100.643 168.021 100.459C168.293 100.267 168.593 100.171 168.921 100.171C169.505 100.171 169.917 100.351 170.157 100.711C170.405 101.071 170.529 101.503 170.529 102.007V105.235C170.529 105.331 170.549 105.399 170.589 105.439C170.629 105.479 170.697 105.499 170.793 105.499H171.297V105.787H168.897V105.499H169.401C169.497 105.499 169.565 105.479 169.605 105.439C169.645 105.399 169.665 105.331 169.665 105.235V101.779C169.665 101.427 169.593 101.127 169.449 100.879C169.313 100.631 169.077 100.507 168.741 100.507C168.461 100.507 168.209 100.607 167.985 100.807C167.769 100.999 167.597 101.267 167.469 101.611C167.349 101.947 167.289 102.323 167.289 102.739V105.235C167.289 105.331 167.309 105.399 167.349 105.439C167.389 105.479 167.457 105.499 167.553 105.499H168.057V105.787H165.489V105.499Z" fill="black"/>
<path d="M172.932 108.287C172.932 108.03 172.981 107.776 173.079 107.524C173.177 107.272 173.396 107.001 173.737 106.712L174.409 106.138C174.628 105.956 174.794 105.755 174.906 105.536C175.022 105.317 175.081 105.065 175.081 104.78C175.081 104.416 174.992 104.136 174.815 103.94C174.637 103.739 174.385 103.639 174.059 103.639C173.909 103.639 173.765 103.674 173.625 103.744C173.489 103.814 173.377 103.907 173.289 104.024C173.205 104.136 173.163 104.253 173.163 104.374C173.163 104.486 173.188 104.57 173.24 104.626C173.291 104.677 173.361 104.71 173.45 104.724C173.599 104.747 173.709 104.799 173.779 104.878C173.853 104.953 173.891 105.044 173.891 105.151C173.891 105.24 173.858 105.314 173.793 105.375C173.732 105.436 173.646 105.466 173.534 105.466C173.342 105.466 173.184 105.391 173.058 105.242C172.932 105.088 172.869 104.887 172.869 104.64C172.869 104.402 172.927 104.187 173.044 103.996C173.165 103.805 173.331 103.655 173.541 103.548C173.755 103.441 173.993 103.387 174.255 103.387C174.553 103.387 174.822 103.443 175.06 103.555C175.298 103.667 175.484 103.828 175.62 104.038C175.755 104.248 175.823 104.495 175.823 104.78C175.823 105.065 175.722 105.321 175.522 105.55C175.321 105.779 175.057 106.01 174.731 106.243L174.045 106.775C173.849 106.91 173.697 107.041 173.59 107.167C173.487 107.288 173.436 107.414 173.436 107.545C173.436 107.657 173.508 107.713 173.653 107.713H174.976C175.162 107.713 175.293 107.673 175.368 107.594C175.447 107.51 175.501 107.393 175.529 107.244L175.606 106.831H175.76L175.662 108.287H172.932Z" fill="black"/>
<rect x="84.8817" y="90.5371" width="25.1538" height="24" rx="6.5" fill="#FAFAFA" stroke="#9E9E9E"/>
<path d="M93.1817 105.499H93.8537C93.9497 105.499 94.0177 105.479 94.0577 105.439C94.0977 105.399 94.1177 105.331 94.1177 105.235V97.7951C94.1177 97.6991 94.0977 97.6311 94.0577 97.5911C94.0177 97.5511 93.9497 97.5311 93.8537 97.5311H93.1817V97.2431H94.9817V101.299L95.0297 101.311C95.2137 100.927 95.4417 100.643 95.7137 100.459C95.9857 100.267 96.2857 100.171 96.6137 100.171C97.1977 100.171 97.6097 100.351 97.8497 100.711C98.0977 101.071 98.2217 101.503 98.2217 102.007V105.235C98.2217 105.331 98.2417 105.399 98.2817 105.439C98.3217 105.479 98.3897 105.499 98.4857 105.499H98.9897V105.787H96.5897V105.499H97.0937C97.1897 105.499 97.2577 105.479 97.2977 105.439C97.3377 105.399 97.3577 105.331 97.3577 105.235V101.779C97.3577 101.427 97.2857 101.127 97.1417 100.879C97.0057 100.631 96.7697 100.507 96.4337 100.507C96.1537 100.507 95.9017 100.607 95.6777 100.807C95.4617 100.999 95.2897 101.267 95.1617 101.611C95.0417 101.947 94.9817 102.323 94.9817 102.739V105.235C94.9817 105.331 95.0017 105.399 95.0417 105.439C95.0817 105.479 95.1497 105.499 95.2457 105.499H95.7497V105.787H93.1817V105.499Z" fill="black"/>
<path d="M100.883 108.063H101.555C101.625 108.063 101.674 108.049 101.702 108.021C101.735 107.993 101.751 107.946 101.751 107.881V104.444H100.883V104.192H101.268C101.52 104.192 101.723 104.124 101.877 103.989C102.036 103.854 102.134 103.69 102.171 103.499H102.395V107.881C102.395 107.946 102.409 107.993 102.437 108.021C102.47 108.049 102.521 108.063 102.591 108.063H103.263V108.287H100.883V108.063Z" fill="black"/>
<rect x="229.497" y="90.5371" width="25.1538" height="24" rx="6.5" fill="#FAFAFA" stroke="#9E9E9E"/>
<path d="M237.797 105.499H238.469C238.565 105.499 238.633 105.479 238.673 105.439C238.713 105.399 238.733 105.331 238.733 105.235V97.7951C238.733 97.6991 238.713 97.6311 238.673 97.5911C238.633 97.5511 238.565 97.5311 238.469 97.5311H237.797V97.2431H239.597V101.299L239.645 101.311C239.829 100.927 240.057 100.643 240.329 100.459C240.601 100.267 240.901 100.171 241.229 100.171C241.813 100.171 242.225 100.351 242.465 100.711C242.713 101.071 242.837 101.503 242.837 102.007V105.235C242.837 105.331 242.857 105.399 242.897 105.439C242.937 105.479 243.005 105.499 243.101 105.499H243.605V105.787H241.205V105.499H241.709C241.805 105.499 241.873 105.479 241.913 105.439C241.953 105.399 241.973 105.331 241.973 105.235V101.779C241.973 101.427 241.901 101.127 241.757 100.879C241.621 100.631 241.385 100.507 241.049 100.507C240.769 100.507 240.517 100.607 240.293 100.807C240.077 100.999 239.905 101.267 239.777 101.611C239.657 101.947 239.597 102.323 239.597 102.739V105.235C239.597 105.331 239.617 105.399 239.657 105.439C239.697 105.479 239.765 105.499 239.861 105.499H240.365V105.787H237.797V105.499Z" fill="black"/>
<path d="M246.45 108.399C246.077 108.399 245.769 108.32 245.526 108.161C245.284 107.998 245.162 107.762 245.162 107.454C245.162 107.286 245.211 107.144 245.309 107.027C245.407 106.906 245.536 106.845 245.694 106.845C245.83 106.845 245.935 106.882 246.009 106.957C246.089 107.027 246.128 107.125 246.128 107.251C246.128 107.349 246.098 107.435 246.037 107.51C245.981 107.58 245.907 107.615 245.813 107.615C245.65 107.615 245.568 107.655 245.568 107.734C245.568 108.028 245.862 108.175 246.45 108.175C246.791 108.175 247.036 108.058 247.185 107.825C247.339 107.592 247.416 107.312 247.416 106.985C247.416 106.612 247.335 106.332 247.171 106.145C247.013 105.958 246.817 105.865 246.583 105.865C246.513 105.865 246.455 105.87 246.408 105.879C246.366 105.888 246.313 105.905 246.247 105.928C246.093 105.979 245.974 106.005 245.89 106.005C245.82 106.005 245.757 105.989 245.701 105.956C245.65 105.923 245.624 105.874 245.624 105.809C245.624 105.744 245.65 105.695 245.701 105.662C245.753 105.629 245.816 105.613 245.89 105.613C245.97 105.613 246.079 105.625 246.219 105.648C246.313 105.662 246.441 105.669 246.604 105.669C246.828 105.669 246.999 105.569 247.115 105.368C247.237 105.163 247.297 104.929 247.297 104.668C247.297 104.365 247.227 104.113 247.087 103.912C246.947 103.711 246.744 103.611 246.478 103.611C246.203 103.611 246.007 103.655 245.89 103.744C245.778 103.833 245.722 103.933 245.722 104.045C245.722 104.087 245.739 104.131 245.771 104.178C245.804 104.22 245.848 104.255 245.904 104.283C246.072 104.353 246.156 104.467 246.156 104.626C246.156 104.724 246.124 104.806 246.058 104.871C245.993 104.932 245.9 104.962 245.778 104.962C245.643 104.962 245.524 104.906 245.421 104.794C245.323 104.677 245.274 104.549 245.274 104.409C245.274 104.082 245.398 103.83 245.645 103.653C245.897 103.476 246.201 103.387 246.555 103.387C246.98 103.387 247.321 103.501 247.577 103.73C247.839 103.954 247.969 104.25 247.969 104.619C247.969 104.815 247.923 104.99 247.829 105.144C247.741 105.293 247.626 105.417 247.486 105.515C247.351 105.608 247.213 105.671 247.073 105.704V105.76C247.227 105.788 247.388 105.856 247.556 105.963C247.724 106.066 247.867 106.206 247.983 106.383C248.1 106.56 248.158 106.763 248.158 106.992C248.158 107.277 248.081 107.526 247.927 107.741C247.773 107.951 247.566 108.114 247.304 108.231C247.048 108.343 246.763 108.399 246.45 108.399Z" fill="black"/>
<rect x="48.7279" y="90.5371" width="25.1538" height="24" rx="6.5" fill="#FFF3E0" stroke="#FFB74D"/>
<path d="M56.8568 107.374H57.3008C57.7728 107.374 58.1168 107.082 58.3328 106.498L60.9128 99.2143H61.2128L63.8168 106.846C63.8968 107.046 63.9928 107.186 64.1048 107.266C64.2168 107.338 64.3608 107.374 64.5368 107.374H65.2088V107.758H61.4888V107.374H62.2808C62.4008 107.374 62.5008 107.346 62.5808 107.29C62.6608 107.226 62.7008 107.154 62.7008 107.074C62.7008 106.97 62.6848 106.882 62.6528 106.81L62.0888 105.214H59.2808L58.9928 106.018C58.8808 106.338 58.8248 106.57 58.8248 106.714C58.8248 106.89 58.8688 107.046 58.9568 107.182C59.0448 107.31 59.1968 107.374 59.4128 107.374H60.1448V107.758H56.8568V107.374ZM59.4128 104.83H61.9568L60.7088 101.17L59.4128 104.83Z" fill="black"/>
<path d="M58.4939 96.7583H63.4939" stroke="black" stroke-linecap="round"/>
<rect x="193.343" y="90.5371" width="25.1538" height="24" rx="6.5" fill="#FFF3E0" stroke="#FFB74D"/>
<path d="M201.472 107.374H201.916C202.388 107.374 202.732 107.082 202.948 106.498L205.528 99.2143H205.828L208.432 106.846C208.512 107.046 208.608 107.186 208.72 107.266C208.832 107.338 208.976 107.374 209.152 107.374H209.824V107.758H206.104V107.374H206.896C207.016 107.374 207.116 107.346 207.196 107.29C207.276 107.226 207.316 107.154 207.316 107.074C207.316 106.97 207.3 106.882 207.268 106.81L206.704 105.214H203.896L203.608 106.018C203.496 106.338 203.44 106.57 203.44 106.714C203.44 106.89 203.484 107.046 203.572 107.182C203.66 107.31 203.812 107.374 204.028 107.374H204.76V107.758H201.472V107.374ZM204.028 104.83H206.572L205.324 101.17L204.028 104.83Z" fill="black"/>
<path d="M203.109 96.7583H208.109" stroke="black" stroke-linecap="round"/>
<rect x="121.036" y="90.5371" width="25.1538" height="24" rx="6.5" fill="#FFF3E0" stroke="#FFB74D"/>
<path d="M129.165 107.374H129.609C130.081 107.374 130.425 107.082 130.641 106.498L133.221 99.2143H133.521L136.125 106.846C136.205 107.046 136.301 107.186 136.413 107.266C136.525 107.338 136.669 107.374 136.845 107.374H137.517V107.758H133.797V107.374H134.589C134.709 107.374 134.809 107.346 134.889 107.29C134.969 107.226 135.009 107.154 135.009 107.074C135.009 106.97 134.993 106.882 134.961 106.81L134.397 105.214H131.589L131.301 106.018C131.189 106.338 131.133 106.57 131.133 106.714C131.133 106.89 131.177 107.046 131.265 107.182C131.353 107.31 131.505 107.374 131.721 107.374H132.453V107.758H129.165V107.374ZM131.721 104.83H134.265L133.017 101.17L131.721 104.83Z" fill="black"/>
<path d="M130.802 96.7583H135.802" stroke="black" stroke-linecap="round"/>
</svg>
