<svg width="64" height="186" viewBox="0 0 64 186" fill="none" xmlns="http://www.w3.org/2000/svg">
<path d="M49.7231 74.9433H50.2231V74.4433H49.7231V74.9433ZM49.7231 109.553V110.053H50.2231V109.553H49.7231ZM20.5978 109.199C20.4026 109.395 20.4026 109.711 20.5978 109.906L23.7798 113.088C23.9751 113.284 24.2917 113.284 24.4869 113.088C24.6822 112.893 24.6822 112.577 24.4869 112.381L21.6585 109.553L24.4869 106.724C24.6822 106.529 24.6822 106.213 24.4869 106.017C24.2917 105.822 23.9751 105.822 23.7798 106.017L20.5978 109.199ZM14.1963 74.9433V75.4433H49.7231V74.9433V74.4433H14.1963V74.9433ZM49.7231 74.9433H49.2231V109.553H49.7231H50.2231V74.9433H49.7231ZM49.7231 109.553V109.053H20.9514V109.553V110.053H49.7231V109.553Z" fill="black"/>
<path d="M13.3582 150.366C13.3582 150.642 13.582 150.866 13.8582 150.866C14.1343 150.866 14.3582 150.642 14.3582 150.366L13.3582 150.366ZM14.2117 34.1251C14.0165 33.9299 13.6999 33.9299 13.5046 34.1251L10.3226 37.3071C10.1274 37.5024 10.1274 37.819 10.3226 38.0142C10.5179 38.2095 10.8345 38.2095 11.0297 38.0142L13.8582 35.1858L16.6866 38.0142C16.8818 38.2095 17.1984 38.2095 17.3937 38.0142C17.589 37.819 17.589 37.5024 17.3937 37.3071L14.2117 34.1251ZM13.8582 150.366L14.3582 150.366L14.3582 34.4787L13.8582 34.4787L13.3582 34.4787L13.3582 150.366L13.8582 150.366Z" fill="black"/>
<rect x="1.28137" y="45.5391" width="25.1538" height="24" rx="6.5" fill="#FCE4EC" stroke="#F06292"/>
<path d="M13.7503 62.9763C13.0063 62.9763 12.3663 62.7603 11.8303 62.3283C11.2943 61.8963 10.8863 61.3323 10.6063 60.6363C10.3343 59.9323 10.1983 59.1923 10.1983 58.4163C10.1983 57.6083 10.3343 56.8683 10.6063 56.1963C10.8783 55.5243 11.2663 54.9923 11.7703 54.6003C12.2743 54.2003 12.8623 54.0003 13.5343 54.0003C13.8863 54.0003 14.2183 54.0803 14.5303 54.2403C14.8423 54.4003 15.0983 54.5723 15.2983 54.7563C15.4903 54.9323 15.6183 55.0203 15.6823 55.0203C15.7463 55.0203 15.7903 55.0003 15.8143 54.9603C15.8463 54.9203 15.8783 54.8563 15.9103 54.7683L16.1383 54.0963H16.4383L16.4863 57.8163H16.1503C15.9743 57.0563 15.7463 56.4203 15.4663 55.9083C15.1863 55.3883 14.8783 55.0043 14.5423 54.7563C14.2143 54.5083 13.8863 54.3843 13.5583 54.3843C12.7983 54.3843 12.2583 54.7283 11.9383 55.4163C11.6263 56.1043 11.4703 57.1043 11.4703 58.4163C11.4703 59.7683 11.6343 60.8043 11.9623 61.5243C12.2903 62.2363 12.8863 62.5923 13.7503 62.5923C14.5183 62.5923 15.1023 62.3083 15.5023 61.7403C15.9103 61.1643 16.1423 60.4683 16.1983 59.6523H16.6303C16.6063 60.1243 16.5063 60.6123 16.3303 61.1163C16.1623 61.6203 15.8663 62.0563 15.4423 62.4243C15.0183 62.7923 14.4543 62.9763 13.7503 62.9763Z" fill="black"/>
<rect x="1.28137" y="160.539" width="25.1538" height="24" rx="6.5" fill="#E0F2F1" stroke="#4DB6AC"/>
<path d="M4.64115 175.751H4.95315C5.14515 175.751 5.30515 175.695 5.43315 175.583C5.56115 175.463 5.69315 175.299 5.82915 175.091L6.92115 173.459L5.45715 171.119C5.39315 171.023 5.32915 170.955 5.26515 170.915C5.20915 170.875 5.11315 170.855 4.97715 170.855H4.68915V170.567H7.06515V170.855H6.77715C6.61715 170.855 6.53715 170.935 6.53715 171.095C6.53715 171.183 6.56115 171.267 6.60915 171.347L7.43715 172.691L8.22915 171.515C8.30115 171.411 8.33715 171.283 8.33715 171.131C8.33715 171.043 8.30515 170.975 8.24115 170.927C8.18515 170.879 8.12115 170.855 8.04915 170.855H7.76115V170.567H9.84915V170.855H9.54915C9.38115 170.855 9.23315 170.895 9.10515 170.975C8.97715 171.055 8.84915 171.191 8.72115 171.383L7.62915 172.991L9.15315 175.439C9.22515 175.551 9.29715 175.631 9.36915 175.679C9.44115 175.727 9.56515 175.751 9.74115 175.751H10.0172V176.039H7.52115V175.751H7.88115C7.96915 175.751 8.03715 175.735 8.08515 175.703C8.13315 175.663 8.15715 175.611 8.15715 175.547C8.15715 175.507 8.14915 175.467 8.13315 175.427C8.11715 175.379 8.09715 175.335 8.07315 175.295L7.11315 173.759L6.29715 174.971C6.17715 175.163 6.11715 175.303 6.11715 175.391C6.11715 175.631 6.21715 175.751 6.41715 175.751H6.63315V176.039H4.64115V175.751ZM13.9955 178.415C13.2835 177.759 12.7115 176.951 12.2795 175.991C11.8555 175.023 11.6435 173.975 11.6435 172.847C11.6435 171.719 11.8555 170.675 12.2795 169.715C12.7115 168.747 13.2835 167.935 13.9955 167.279L14.3555 167.567C13.6435 168.311 13.1115 169.119 12.7595 169.991C12.4155 170.863 12.2435 171.815 12.2435 172.847C12.2435 173.879 12.4155 174.831 12.7595 175.703C13.1115 176.575 13.6435 177.383 14.3555 178.127L13.9955 178.415ZM17.3809 176.183C17.0209 176.183 16.7209 176.055 16.4809 175.799C16.2489 175.543 16.1329 175.195 16.1329 174.755V170.903H15.2449V170.567H15.5089C15.8689 170.567 16.1489 170.375 16.3489 169.991C16.5569 169.599 16.6609 169.167 16.6609 168.695V168.263H16.9969V170.567H18.4849V170.903H16.9969V174.815C16.9969 175.055 17.0449 175.255 17.1409 175.415C17.2369 175.575 17.4009 175.655 17.6329 175.655C18.2009 175.655 18.4849 175.175 18.4849 174.215H18.7009C18.7009 174.751 18.6209 175.215 18.4609 175.607C18.3089 175.991 17.9489 176.183 17.3809 176.183ZM19.6802 178.127C20.3922 177.383 20.9202 176.575 21.2642 175.703C21.6162 174.831 21.7922 173.879 21.7922 172.847C21.7922 171.815 21.6162 170.863 21.2642 169.991C20.9202 169.119 20.3922 168.311 19.6802 167.567L20.0402 167.279C20.7522 167.935 21.3202 168.747 21.7442 169.715C22.1762 170.675 22.3922 171.719 22.3922 172.847C22.3922 173.975 22.1762 175.023 21.7442 175.991C21.3202 176.951 20.7522 177.759 20.0402 178.415L19.6802 178.127Z" fill="black"/>
<rect x="1.28137" y="0.53907" width="25.1538" height="24" rx="6.5" fill="#F3E5F5" stroke="#BA68C8"/>
<path d="M5.84115 18.8951C5.52915 18.8951 5.27315 18.7951 5.07315 18.5951C4.96915 18.4991 4.88515 18.3831 4.82115 18.2471C4.76515 18.1191 4.73715 17.9831 4.73715 17.8391C4.73715 17.7351 4.75315 17.6351 4.78515 17.5391C4.82515 17.4511 4.87315 17.3831 4.92915 17.3351C5.04915 17.2151 5.18515 17.1551 5.33715 17.1551C5.52115 17.1551 5.65715 17.2111 5.74515 17.3231C5.84115 17.4431 5.88915 17.5911 5.88915 17.7671C5.88915 17.8631 5.85715 17.9751 5.79315 18.1031C5.74515 18.1831 5.72115 18.2591 5.72115 18.3311C5.72115 18.4511 5.80115 18.5111 5.96115 18.5111C6.20115 18.5111 6.40115 18.4151 6.56115 18.2231C6.72915 18.0391 6.85315 17.8191 6.93315 17.5631L7.25715 16.5191L5.55315 11.5631C5.45715 11.3071 5.36515 11.1271 5.27715 11.0231C5.18915 10.9111 5.04515 10.8551 4.84515 10.8551H4.44915V10.5671H7.16115V10.8551H6.77715C6.68115 10.8551 6.59315 10.8831 6.51315 10.9391C6.43315 10.9871 6.39315 11.0551 6.39315 11.1431C6.39315 11.2791 6.41715 11.4111 6.46515 11.5391L7.71315 15.2231L8.70915 11.9351C8.74115 11.8391 8.76915 11.7311 8.79315 11.6111C8.82515 11.4911 8.84115 11.3951 8.84115 11.3231C8.84115 11.1871 8.80115 11.0751 8.72115 10.9871C8.64115 10.8991 8.53715 10.8551 8.40915 10.8551H8.12115V10.5671H10.3052V10.8551H10.0292C9.85315 10.8551 9.68915 10.9151 9.53715 11.0351C9.39315 11.1471 9.28115 11.3231 9.20115 11.5631L7.26915 17.7071C7.18115 18.0031 7.01315 18.2751 6.76515 18.5231C6.51715 18.7711 6.20915 18.8951 5.84115 18.8951ZM14.1244 18.4151C13.4124 17.7591 12.8404 16.9511 12.4084 15.9911C11.9844 15.0231 11.7724 13.9751 11.7724 12.8471C11.7724 11.7191 11.9844 10.6751 12.4084 9.71507C12.8404 8.74707 13.4124 7.93507 14.1244 7.27907L14.4844 7.56707C13.7724 8.31107 13.2404 9.11907 12.8884 9.99107C12.5444 10.8631 12.3724 11.8151 12.3724 12.8471C12.3724 13.8791 12.5444 14.8311 12.8884 15.7031C13.2404 16.5751 13.7724 17.3831 14.4844 18.1271L14.1244 18.4151ZM17.5098 16.1831C17.1498 16.1831 16.8498 16.0551 16.6098 15.7991C16.3778 15.5431 16.2618 15.1951 16.2618 14.7551V10.9031H15.3738V10.5671H15.6378C15.9978 10.5671 16.2778 10.3751 16.4778 9.99107C16.6858 9.59907 16.7898 9.16707 16.7898 8.69507V8.26307H17.1258V10.5671H18.6138V10.9031H17.1258V14.8151C17.1258 15.0551 17.1738 15.2551 17.2698 15.4151C17.3658 15.5751 17.5298 15.6551 17.7618 15.6551C18.3298 15.6551 18.6138 15.1751 18.6138 14.2151H18.8298C18.8298 14.7511 18.7498 15.2151 18.5898 15.6071C18.4378 15.9911 18.0778 16.1831 17.5098 16.1831ZM19.8092 18.1271C20.5212 17.3831 21.0492 16.5751 21.3932 15.7031C21.7452 14.8311 21.9212 13.8791 21.9212 12.8471C21.9212 11.8151 21.7452 10.8631 21.3932 9.99107C21.0492 9.11907 20.5212 8.31107 19.8092 7.56707L20.1692 7.27907C20.8812 7.93507 21.4492 8.74707 21.8732 9.71507C22.3052 10.6751 22.5212 11.7191 22.5212 12.8471C22.5212 13.9751 22.3052 15.0231 21.8732 15.9911C21.4492 16.9511 20.8812 17.7591 20.1692 18.4151L19.8092 18.1271Z" fill="black"/>
<rect x="37.4351" y="80.5391" width="25.1538" height="24" rx="6.5" fill="#FFF3E0" stroke="#FFB74D"/>
<path d="M45.564 97.3763H46.008C46.48 97.3763 46.824 97.0843 47.04 96.5003L49.62 89.2163H49.92L52.524 96.8483C52.604 97.0483 52.7 97.1883 52.812 97.2683C52.924 97.3403 53.068 97.3763 53.244 97.3763H53.916V97.7603H50.196V97.3763H50.988C51.108 97.3763 51.208 97.3483 51.288 97.2923C51.368 97.2283 51.408 97.1563 51.408 97.0763C51.408 96.9723 51.392 96.8843 51.36 96.8123L50.796 95.2163H47.988L47.7 96.0203C47.588 96.3403 47.532 96.5723 47.532 96.7163C47.532 96.8923 47.576 97.0483 47.664 97.1843C47.752 97.3123 47.904 97.3763 48.12 97.3763H48.852V97.7603H45.564V97.3763ZM48.12 94.8323H50.664L49.416 91.1723L48.12 94.8323Z" fill="black"/>
<rect x="1.28137" y="115.539" width="25.1538" height="24" rx="6.5" fill="#E8F5E9" stroke="#81C784"/>
<path d="M10.6981 132.376H11.5621C11.7781 132.376 11.8861 132.268 11.8861 132.052V124.924C11.8861 124.812 11.8581 124.732 11.8021 124.684C11.7541 124.628 11.6741 124.6 11.5621 124.6H10.6981V124.216H14.6101C15.0821 124.216 15.5221 124.304 15.9301 124.48C16.3461 124.656 16.6781 124.9 16.9261 125.212C17.1741 125.516 17.2981 125.864 17.2981 126.256C17.2981 126.8 17.1141 127.248 16.7461 127.6C16.3781 127.952 15.9501 128.18 15.4621 128.284V128.332C15.7901 128.356 16.1141 128.46 16.4341 128.644C16.7621 128.82 17.0301 129.064 17.2381 129.376C17.4541 129.688 17.5621 130.04 17.5621 130.432C17.5621 130.92 17.4341 131.34 17.1781 131.692C16.9221 132.044 16.5781 132.312 16.1461 132.496C15.7221 132.672 15.2541 132.76 14.7421 132.76H10.6981V132.376ZM14.5621 128.104C15.2101 128.104 15.6501 127.94 15.8821 127.612C16.1221 127.276 16.2421 126.824 16.2421 126.256C16.2421 125.776 16.0901 125.38 15.7861 125.068C15.4821 124.756 15.1061 124.6 14.6581 124.6H13.3141C13.2021 124.6 13.1181 124.628 13.0621 124.684C13.0141 124.732 12.9901 124.812 12.9901 124.924V128.104H14.5621ZM14.6101 132.376C15.0981 132.376 15.4981 132.232 15.8101 131.944C16.1301 131.648 16.2901 131.144 16.2901 130.432C16.2901 129.72 16.1301 129.22 15.8101 128.932C15.4981 128.636 15.0981 128.488 14.6101 128.488H12.9901V132.052C12.9901 132.268 13.0981 132.376 13.3141 132.376H14.6101Z" fill="black"/>
<rect x="1.28125" y="80.5391" width="25.1538" height="24" rx="6.5" fill="#FAFAFA" stroke="#9E9E9E"/>
<path d="M11.0692 96.4343H11.7412C11.8372 96.4343 11.9052 96.4143 11.9452 96.3743C11.9852 96.3343 12.0052 96.2663 12.0052 96.1703V88.7303C12.0052 88.6343 11.9852 88.5663 11.9452 88.5263C11.9052 88.4863 11.8372 88.4663 11.7412 88.4663H11.0692V88.1783H12.8692V92.2343L12.9172 92.2463C13.1012 91.8623 13.3292 91.5783 13.6012 91.3943C13.8732 91.2023 14.1732 91.1063 14.5012 91.1063C15.0852 91.1063 15.4972 91.2863 15.7372 91.6463C15.9852 92.0063 16.1092 92.4383 16.1092 92.9423V96.1703C16.1092 96.2663 16.1292 96.3343 16.1692 96.3743C16.2092 96.4143 16.2772 96.4343 16.3732 96.4343H16.8772V96.7223H14.4772V96.4343H14.9812C15.0772 96.4343 15.1452 96.4143 15.1852 96.3743C15.2252 96.3343 15.2452 96.2663 15.2452 96.1703V92.7143C15.2452 92.3623 15.1732 92.0623 15.0292 91.8143C14.8932 91.5663 14.6572 91.4423 14.3212 91.4423C14.0412 91.4423 13.7892 91.5423 13.5652 91.7423C13.3492 91.9343 13.1772 92.2023 13.0492 92.5463C12.9292 92.8823 12.8692 93.2583 12.8692 93.6743V96.1703C12.8692 96.2663 12.8892 96.3343 12.9292 96.3743C12.9692 96.4143 13.0372 96.4343 13.1332 96.4343H13.6372V96.7223H11.0692V96.4343Z" fill="black"/>
</svg>
