<svg width="303" height="186" viewBox="0 0 303 186" fill="none" xmlns="http://www.w3.org/2000/svg">
<path d="M94.9326 150.366C94.9326 150.642 95.1565 150.866 95.4326 150.866C95.7088 150.866 95.9326 150.642 95.9326 150.366L94.9326 150.366ZM95.7862 34.1251C95.5909 33.9299 95.2743 33.9299 95.0791 34.1251L91.8971 37.3071C91.7018 37.5024 91.7018 37.819 91.8971 38.0142C92.0924 38.2095 92.4089 38.2095 92.6042 38.0142L95.4326 35.1858L98.261 38.0142C98.4563 38.2095 98.7729 38.2095 98.9682 38.0142C99.1634 37.819 99.1634 37.5024 98.9682 37.3071L95.7862 34.1251ZM95.4326 150.366L95.9326 150.366L95.9326 34.4787L95.4326 34.4787L94.9326 34.4787L94.9326 150.366L95.4326 150.366Z" fill="black"/>
<path d="M205.773 150.366C205.773 150.642 205.997 150.866 206.273 150.866C206.55 150.866 206.773 150.642 206.773 150.366L205.773 150.366ZM206.627 34.1251C206.432 33.9299 206.115 33.9299 205.92 34.1251L202.738 37.3071C202.543 37.5024 202.543 37.819 202.738 38.0142C202.933 38.2095 203.25 38.2095 203.445 38.0142L206.273 35.1858L209.102 38.0142C209.297 38.2095 209.614 38.2095 209.809 38.0142C210.004 37.819 210.004 37.5024 209.809 37.3071L206.627 34.1251ZM206.273 150.366L206.773 150.366L206.773 34.4787L206.273 34.4787L205.773 34.4787L205.773 150.366L206.273 150.366Z" fill="black"/>
<path d="M286.082 92.3258C286.278 92.1305 286.278 91.814 286.082 91.6187L282.9 88.4367C282.705 88.2415 282.388 88.2415 282.193 88.4367C281.998 88.632 281.998 88.9486 282.193 89.1438L285.022 91.9723L282.193 94.8007C281.998 94.9959 281.998 95.3125 282.193 95.5078C282.388 95.703 282.705 95.703 282.9 95.5078L286.082 92.3258ZM17.0299 91.9722L17.0299 92.4722L285.729 92.4723L285.729 91.9723L285.729 91.4723L17.0299 91.4722L17.0299 91.9722Z" fill="black"/>
<rect x="63.918" y="45.5391" width="63.4677" height="24" rx="6.5" fill="#FCE4EC" stroke="#F06292"/>
<path d="M95.5546 62.9763C94.8106 62.9763 94.1706 62.7603 93.6346 62.3283C93.0986 61.8963 92.6906 61.3323 92.4106 60.6363C92.1386 59.9323 92.0026 59.1923 92.0026 58.4163C92.0026 57.6083 92.1386 56.8683 92.4106 56.1963C92.6826 55.5243 93.0706 54.9923 93.5746 54.6003C94.0786 54.2003 94.6666 54.0003 95.3386 54.0003C95.6906 54.0003 96.0226 54.0803 96.3346 54.2403C96.6466 54.4003 96.9026 54.5723 97.1026 54.7563C97.2946 54.9323 97.4226 55.0203 97.4866 55.0203C97.5506 55.0203 97.5946 55.0003 97.6186 54.9603C97.6506 54.9203 97.6826 54.8563 97.7146 54.7683L97.9426 54.0963H98.2426L98.2906 57.8163H97.9546C97.7786 57.0563 97.5506 56.4203 97.2706 55.9083C96.9906 55.3883 96.6826 55.0043 96.3466 54.7563C96.0186 54.5083 95.6906 54.3843 95.3626 54.3843C94.6026 54.3843 94.0626 54.7283 93.7426 55.4163C93.4306 56.1043 93.2746 57.1043 93.2746 58.4163C93.2746 59.7683 93.4386 60.8043 93.7666 61.5243C94.0946 62.2363 94.6906 62.5923 95.5546 62.5923C96.3226 62.5923 96.9066 62.3083 97.3066 61.7403C97.7146 61.1643 97.9466 60.4683 98.0026 59.6523H98.4346C98.4106 60.1243 98.3106 60.6123 98.1346 61.1163C97.9666 61.6203 97.6706 62.0563 97.2466 62.4243C96.8226 62.7923 96.2586 62.9763 95.5546 62.9763Z" fill="black"/>
<rect x="63.918" y="0.53907" width="63.4677" height="24" rx="6.5" fill="#F3E5F5" stroke="#BA68C8"/>
<path d="M83.8571 20.2323H84.4811C84.5771 20.2323 84.6451 20.2123 84.6851 20.1723C84.7251 20.1323 84.7451 20.0643 84.7451 19.9683V16.8723L84.6971 16.8603C84.5771 17.1483 84.3931 17.3963 84.1451 17.6043C83.8971 17.8043 83.6171 17.9043 83.3051 17.9043C82.9291 17.9043 82.5771 17.7803 82.2491 17.5323C81.9291 17.2763 81.6731 16.9283 81.4811 16.4883C81.2891 16.0483 81.1931 15.5603 81.1931 15.0243C81.1931 14.4883 81.2891 14.0003 81.4811 13.5603C81.6731 13.1203 81.9291 12.7763 82.2491 12.5283C82.5771 12.2723 82.9291 12.1443 83.3051 12.1443C83.6251 12.1443 83.9211 12.2523 84.1931 12.4683C84.4651 12.6843 84.6811 12.9683 84.8411 13.3203H84.8891L85.3931 12.2883H85.6091V19.9683C85.6091 20.0643 85.6291 20.1323 85.6691 20.1723C85.7091 20.2123 85.7771 20.2323 85.8731 20.2323H86.4971V20.5203H83.8571V20.2323ZM83.4371 17.5683C83.6771 17.5683 83.8971 17.4803 84.0971 17.3043C84.2971 17.1283 84.4531 16.8883 84.5651 16.5843C84.6851 16.2723 84.7451 15.9363 84.7451 15.5763V14.4723C84.7451 14.1123 84.6851 13.7803 84.5651 13.4763C84.4531 13.1643 84.2971 12.9203 84.0971 12.7443C83.8971 12.5683 83.6771 12.4803 83.4371 12.4803C83.0451 12.4803 82.7491 12.7003 82.5491 13.1403C82.3491 13.5803 82.2491 14.2083 82.2491 15.0243C82.2491 15.8403 82.3491 16.4683 82.5491 16.9083C82.7491 17.3483 83.0451 17.5683 83.4371 17.5683ZM89.4005 17.9043C88.8165 17.9043 88.4005 17.7243 88.1525 17.3643C87.9125 17.0043 87.7925 16.5723 87.7925 16.0683V12.8403C87.7925 12.7443 87.7725 12.6763 87.7325 12.6363C87.6925 12.5963 87.6245 12.5763 87.5285 12.5763H87.0245V12.2883H88.6565V16.2963C88.6565 16.6483 88.7245 16.9483 88.8605 17.1963C89.0045 17.4443 89.2445 17.5683 89.5805 17.5683C89.8605 17.5683 90.1085 17.4723 90.3245 17.2803C90.5485 17.0803 90.7205 16.8123 90.8405 16.4763C90.9685 16.1323 91.0325 15.7523 91.0325 15.3363V12.8403C91.0325 12.7443 91.0125 12.6763 90.9725 12.6363C90.9325 12.5963 90.8645 12.5763 90.7685 12.5763H90.2645V12.2883H91.8965V17.2083C91.8965 17.3043 91.9165 17.3723 91.9565 17.4123C91.9965 17.4523 92.0645 17.4723 92.1605 17.4723H92.6645V17.7603H91.0325V16.7763L90.9845 16.7643C90.8005 17.1483 90.5725 17.4363 90.3005 17.6283C90.0285 17.8123 89.7285 17.9043 89.4005 17.9043ZM94.6347 10.8003C94.4587 10.8003 94.3107 10.7403 94.1907 10.6203C94.0707 10.5003 94.0107 10.3523 94.0107 10.1763C94.0107 9.99229 94.0707 9.84429 94.1907 9.73229C94.3107 9.61229 94.4587 9.55229 94.6347 9.55229C94.8187 9.55229 94.9667 9.61229 95.0787 9.73229C95.1987 9.84429 95.2587 9.99229 95.2587 10.1763C95.2587 10.3523 95.1987 10.5003 95.0787 10.6203C94.9667 10.7403 94.8187 10.8003 94.6347 10.8003ZM93.5067 17.4723H94.0107C94.1067 17.4723 94.1747 17.4523 94.2147 17.4123C94.2547 17.3723 94.2747 17.3043 94.2747 17.2083V12.8403C94.2747 12.7443 94.2547 12.6763 94.2147 12.6363C94.1747 12.5963 94.1067 12.5763 94.0107 12.5763H93.5067V12.2883H95.1387V17.2083C95.1387 17.3043 95.1587 17.3723 95.1987 17.4123C95.2387 17.4523 95.3067 17.4723 95.4027 17.4723H95.9067V17.7603H93.5067V17.4723ZM99.213 17.9043C98.749 17.9043 98.337 17.7763 97.977 17.5203C97.625 17.2643 97.349 16.9163 97.149 16.4763C96.957 16.0363 96.861 15.5523 96.861 15.0243C96.861 14.4963 96.961 14.0123 97.161 13.5723C97.361 13.1323 97.637 12.7843 97.989 12.5283C98.349 12.2723 98.757 12.1443 99.213 12.1443C99.581 12.1443 99.901 12.2243 100.173 12.3843C100.445 12.5363 100.653 12.7363 100.797 12.9843C100.941 13.2243 101.013 13.4683 101.013 13.7163C101.013 13.9643 100.949 14.1603 100.821 14.3043C100.693 14.4403 100.537 14.5083 100.353 14.5083C100.193 14.5083 100.057 14.4563 99.945 14.3523C99.841 14.2483 99.789 14.1243 99.789 13.9803C99.789 13.8363 99.829 13.7163 99.909 13.6203C99.989 13.5243 100.085 13.4603 100.197 13.4283C100.325 13.3883 100.389 13.3163 100.389 13.2123C100.389 13.1163 100.345 13.0083 100.257 12.8883C100.177 12.7683 100.049 12.6643 99.873 12.5763C99.697 12.4803 99.477 12.4323 99.213 12.4323C98.709 12.4323 98.365 12.6483 98.181 13.0803C98.005 13.5123 97.917 14.1603 97.917 15.0243C97.917 15.8883 98.005 16.5363 98.181 16.9683C98.357 17.4003 98.701 17.6163 99.213 17.6163C99.701 17.6163 100.077 17.4443 100.341 17.1003C100.605 16.7563 100.765 16.3523 100.821 15.8883H101.109C101.085 16.2163 101.001 16.5363 100.857 16.8483C100.713 17.1523 100.501 17.4043 100.221 17.6043C99.941 17.8043 99.605 17.9043 99.213 17.9043ZM101.848 17.4723H102.472C102.568 17.4723 102.636 17.4523 102.676 17.4123C102.716 17.3723 102.736 17.3043 102.736 17.2083V9.76829C102.736 9.67229 102.716 9.60429 102.676 9.56429C102.636 9.52429 102.568 9.50429 102.472 9.50429H101.848V9.21629H103.6V15.3243L105.232 13.3323C105.32 13.2363 105.376 13.1603 105.4 13.1043C105.432 13.0483 105.448 12.9763 105.448 12.8883C105.448 12.7843 105.408 12.7083 105.328 12.6603C105.256 12.6043 105.16 12.5763 105.04 12.5763H104.728V12.2883H107.176V12.5763H106.792C106.576 12.5763 106.384 12.6323 106.216 12.7443C106.048 12.8563 105.856 13.0443 105.64 13.3083L104.728 14.4243L106.6 17.0883C106.696 17.2243 106.78 17.3243 106.852 17.3883C106.924 17.4443 107.024 17.4723 107.152 17.4723H107.392V17.7603H104.848V17.4723H105.16C105.264 17.4723 105.344 17.4563 105.4 17.4243C105.456 17.3843 105.484 17.3203 105.484 17.2323C105.484 17.1443 105.472 17.0723 105.448 17.0163C105.424 16.9603 105.384 16.8883 105.328 16.8003L104.152 15.1203L103.6 15.7923V17.2083C103.6 17.3043 103.62 17.3723 103.66 17.4123C103.7 17.4523 103.768 17.4723 103.864 17.4723H104.248V17.7603H101.848V17.4723Z" fill="black"/>
<rect x="174.54" y="0.53907" width="63.4677" height="24" rx="6.5" fill="#F3E5F5" stroke="#BA68C8"/>
<path d="M193.428 17.9043C193.108 17.9043 192.812 17.7963 192.54 17.5803C192.268 17.3643 192.052 17.0803 191.892 16.7283H191.844L191.34 17.7603H191.124V9.76829C191.124 9.67229 191.104 9.60429 191.064 9.56429C191.024 9.52429 190.956 9.50429 190.86 9.50429H190.236V9.21629H191.988V13.1763L192.036 13.1883C192.156 12.9003 192.34 12.6563 192.588 12.4563C192.836 12.2483 193.116 12.1443 193.428 12.1443C193.804 12.1443 194.152 12.2723 194.472 12.5283C194.8 12.7763 195.06 13.1203 195.252 13.5603C195.444 14.0003 195.54 14.4883 195.54 15.0243C195.54 15.5603 195.444 16.0483 195.252 16.4883C195.06 16.9283 194.8 17.2763 194.472 17.5323C194.152 17.7803 193.804 17.9043 193.428 17.9043ZM193.296 17.5683C193.688 17.5683 193.984 17.3483 194.184 16.9083C194.384 16.4683 194.484 15.8403 194.484 15.0243C194.484 14.2083 194.384 13.5803 194.184 13.1403C193.984 12.7003 193.688 12.4803 193.296 12.4803C193.056 12.4803 192.836 12.5683 192.636 12.7443C192.436 12.9203 192.276 13.1643 192.156 13.4763C192.044 13.7803 191.988 14.1123 191.988 14.4723V15.5763C191.988 15.9363 192.044 16.2723 192.156 16.5843C192.276 16.8883 192.436 17.1283 192.636 17.3043C192.836 17.4803 193.056 17.5683 193.296 17.5683ZM196.568 17.4723H197.072C197.168 17.4723 197.236 17.4523 197.276 17.4123C197.316 17.3723 197.336 17.3043 197.336 17.2083V12.8403C197.336 12.7443 197.316 12.6763 197.276 12.6363C197.236 12.5963 197.168 12.5763 197.072 12.5763H196.568V12.2883H198.2V13.4883L198.248 13.5003C198.416 13.0843 198.632 12.7563 198.896 12.5163C199.168 12.2683 199.456 12.1443 199.76 12.1443C200.064 12.1443 200.312 12.2323 200.504 12.4083C200.696 12.5843 200.792 12.8243 200.792 13.1283C200.792 13.3043 200.728 13.4763 200.6 13.6443C200.48 13.8123 200.324 13.8963 200.132 13.8963C199.98 13.8963 199.852 13.8563 199.748 13.7763C199.644 13.6963 199.592 13.5843 199.592 13.4403C199.592 13.2723 199.672 13.1283 199.832 13.0083C199.904 12.9603 199.956 12.9163 199.988 12.8763C200.028 12.8363 200.048 12.7843 200.048 12.7203C200.048 12.6483 200.012 12.5923 199.94 12.5523C199.876 12.5043 199.784 12.4803 199.664 12.4803C199.416 12.4803 199.176 12.6003 198.944 12.8403C198.72 13.0803 198.54 13.3923 198.404 13.7763C198.268 14.1603 198.2 14.5603 198.2 14.9763V17.2083C198.2 17.3043 198.22 17.3723 198.26 17.4123C198.3 17.4523 198.368 17.4723 198.464 17.4723H198.968V17.7603H196.568V17.4723ZM204.01 17.9043C203.57 17.9043 203.166 17.7763 202.798 17.5203C202.43 17.2563 202.138 16.9043 201.922 16.4643C201.714 16.0243 201.61 15.5443 201.61 15.0243C201.61 14.5043 201.714 14.0243 201.922 13.5843C202.138 13.1443 202.43 12.7963 202.798 12.5403C203.166 12.2763 203.57 12.1443 204.01 12.1443C204.45 12.1443 204.854 12.2763 205.222 12.5403C205.59 12.7963 205.878 13.1443 206.086 13.5843C206.302 14.0243 206.41 14.5043 206.41 15.0243C206.41 15.5443 206.302 16.0243 206.086 16.4643C205.878 16.9043 205.59 17.2563 205.222 17.5203C204.854 17.7763 204.45 17.9043 204.01 17.9043ZM204.01 17.6163C204.49 17.6163 204.834 17.3923 205.042 16.9443C205.25 16.4883 205.354 15.8483 205.354 15.0243C205.354 14.2003 205.25 13.5643 205.042 13.1163C204.834 12.6603 204.49 12.4323 204.01 12.4323C203.53 12.4323 203.186 12.6603 202.978 13.1163C202.77 13.5643 202.666 14.2003 202.666 15.0243C202.666 15.8483 202.77 16.4883 202.978 16.9443C203.186 17.3923 203.53 17.6163 204.01 17.6163ZM208.036 13.2843C207.924 13.0203 207.82 12.8363 207.724 12.7323C207.636 12.6283 207.492 12.5763 207.292 12.5763H207.016V12.2883H209.608V12.5763H209.236C209.124 12.5763 209.036 12.6083 208.972 12.6723C208.916 12.7363 208.888 12.8163 208.888 12.9123C208.888 13.0163 208.912 13.1323 208.96 13.2603L210.304 16.5003L211.12 13.8963C211.144 13.8243 211.164 13.7483 211.18 13.6683C211.196 13.5883 211.204 13.5203 211.204 13.4643C211.204 13.3203 211.152 13.1363 211.048 12.9123C211 12.8003 210.944 12.7163 210.88 12.6603C210.824 12.6043 210.744 12.5763 210.64 12.5763H210.28V12.2883H212.872V12.5763H212.392C212.16 12.5763 212.044 12.6963 212.044 12.9363C212.044 13.0243 212.076 13.1523 212.14 13.3203L213.256 16.5003L214.228 13.6563C214.26 13.5603 214.288 13.4523 214.312 13.3323C214.344 13.2123 214.36 13.1163 214.36 13.0443C214.36 12.7323 214.216 12.5763 213.928 12.5763H213.64V12.2883H215.824V12.5763H215.548C215.372 12.5763 215.208 12.6363 215.056 12.7563C214.912 12.8683 214.8 13.0443 214.72 13.2843L213.088 17.9043H212.872L211.432 13.9683L210.184 17.9043H209.968L208.036 13.2843ZM216.572 17.4723H217.076C217.172 17.4723 217.24 17.4523 217.28 17.4123C217.32 17.3723 217.34 17.3043 217.34 17.2083V12.8403C217.34 12.7443 217.32 12.6763 217.28 12.6363C217.24 12.5963 217.172 12.5763 217.076 12.5763H216.572V12.2883H218.204V13.2723L218.252 13.2843C218.436 12.9003 218.664 12.6163 218.936 12.4323C219.208 12.2403 219.508 12.1443 219.836 12.1443C220.42 12.1443 220.832 12.3243 221.072 12.6843C221.32 13.0443 221.444 13.4763 221.444 13.9803V17.2083C221.444 17.3043 221.464 17.3723 221.504 17.4123C221.544 17.4523 221.612 17.4723 221.708 17.4723H222.212V17.7603H219.812V17.4723H220.316C220.412 17.4723 220.48 17.4523 220.52 17.4123C220.56 17.3723 220.58 17.3043 220.58 17.2083V13.7523C220.58 13.4003 220.508 13.1003 220.364 12.8523C220.228 12.6043 219.992 12.4803 219.656 12.4803C219.376 12.4803 219.124 12.5803 218.9 12.7803C218.684 12.9723 218.512 13.2403 218.384 13.5843C218.264 13.9203 218.204 14.2963 218.204 14.7123V17.2083C218.204 17.3043 218.224 17.3723 218.264 17.4123C218.304 17.4523 218.372 17.4723 218.468 17.4723H218.972V17.7603H216.572V17.4723Z" fill="black"/>
<rect x="63.918" y="160.539" width="63.4677" height="24" rx="6.5" fill="#E0F2F1" stroke="#4DB6AC"/>
<path d="M87.7212 177.376H88.8732C89.0892 177.376 89.1972 177.268 89.1972 177.052V169.888C89.1972 169.776 89.1732 169.696 89.1252 169.648C89.0772 169.592 88.9932 169.564 88.8732 169.564H88.4412C87.9372 169.564 87.5012 169.82 87.1332 170.332C86.9012 170.66 86.7452 171.072 86.6652 171.568C86.5852 172.056 86.5452 172.416 86.5452 172.648H86.2092L86.3052 169.216H93.1932L93.2892 172.648H92.9532C92.9532 172.416 92.9132 172.056 92.8332 171.568C92.7532 171.072 92.5972 170.66 92.3652 170.332C91.9972 169.82 91.5612 169.564 91.0572 169.564H90.6252C90.5052 169.564 90.4212 169.592 90.3732 169.648C90.3252 169.696 90.3012 169.776 90.3012 169.888V177.052C90.3012 177.268 90.4092 177.376 90.6252 177.376H91.7772V177.76H87.7212V177.376ZM94.2476 177.472H94.9196C95.0156 177.472 95.0836 177.452 95.1236 177.412C95.1636 177.372 95.1836 177.304 95.1836 177.208V169.768C95.1836 169.672 95.1636 169.604 95.1236 169.564C95.0836 169.524 95.0156 169.504 94.9196 169.504H94.2476V169.216H96.0476V173.272L96.0956 173.284C96.2796 172.9 96.5076 172.616 96.7796 172.432C97.0516 172.24 97.3516 172.144 97.6796 172.144C98.2636 172.144 98.6756 172.324 98.9156 172.684C99.1636 173.044 99.2876 173.476 99.2876 173.98V177.208C99.2876 177.304 99.3076 177.372 99.3476 177.412C99.3876 177.452 99.4556 177.472 99.5516 177.472H100.056V177.76H97.6556V177.472H98.1596C98.2556 177.472 98.3236 177.452 98.3636 177.412C98.4036 177.372 98.4236 177.304 98.4236 177.208V173.752C98.4236 173.4 98.3516 173.1 98.2076 172.852C98.0716 172.604 97.8356 172.48 97.4996 172.48C97.2196 172.48 96.9676 172.58 96.7436 172.78C96.5276 172.972 96.3556 173.24 96.2276 173.584C96.1076 173.92 96.0476 174.296 96.0476 174.712V177.208C96.0476 177.304 96.0676 177.372 96.1076 177.412C96.1476 177.452 96.2156 177.472 96.3116 177.472H96.8156V177.76H94.2476V177.472ZM103.487 177.904C102.743 177.904 102.143 177.652 101.687 177.148C101.239 176.644 101.015 175.944 101.015 175.048C101.015 174.536 101.115 174.06 101.315 173.62C101.515 173.172 101.791 172.816 102.143 172.552C102.503 172.28 102.903 172.144 103.343 172.144C103.831 172.144 104.231 172.276 104.543 172.54C104.855 172.804 105.079 173.14 105.215 173.548C105.359 173.948 105.431 174.36 105.431 174.784C105.431 174.872 105.403 174.932 105.347 174.964C105.291 174.988 105.195 175 105.059 175H102.071C102.071 175.8 102.183 176.436 102.407 176.908C102.639 177.38 103.015 177.616 103.535 177.616C103.903 177.616 104.247 177.476 104.567 177.196C104.895 176.916 105.103 176.48 105.191 175.888H105.479C105.431 176.472 105.227 176.956 104.867 177.34C104.515 177.716 104.055 177.904 103.487 177.904ZM104.399 174.712C104.399 174.072 104.315 173.532 104.147 173.092C103.979 172.652 103.703 172.432 103.319 172.432C102.911 172.432 102.599 172.656 102.383 173.104C102.175 173.544 102.071 174.08 102.071 174.712H104.399Z" fill="black"/>
<rect x="174.541" y="160.539" width="63.4677" height="24" rx="6.5" fill="#E0F2F1" stroke="#4DB6AC"/>
<path d="M196.555 180.232H197.179C197.275 180.232 197.343 180.212 197.383 180.172C197.423 180.132 197.443 180.064 197.443 179.968V176.872L197.395 176.86C197.275 177.148 197.091 177.396 196.843 177.604C196.595 177.804 196.315 177.904 196.003 177.904C195.627 177.904 195.275 177.78 194.947 177.532C194.627 177.276 194.371 176.928 194.179 176.488C193.987 176.048 193.891 175.56 193.891 175.024C193.891 174.488 193.987 174 194.179 173.56C194.371 173.12 194.627 172.776 194.947 172.528C195.275 172.272 195.627 172.144 196.003 172.144C196.323 172.144 196.619 172.252 196.891 172.468C197.163 172.684 197.379 172.968 197.539 173.32H197.587L198.091 172.288H198.307V179.968C198.307 180.064 198.327 180.132 198.367 180.172C198.407 180.212 198.475 180.232 198.571 180.232H199.195V180.52H196.555V180.232ZM196.135 177.568C196.375 177.568 196.595 177.48 196.795 177.304C196.995 177.128 197.151 176.888 197.263 176.584C197.383 176.272 197.443 175.936 197.443 175.576V174.472C197.443 174.112 197.383 173.78 197.263 173.476C197.151 173.164 196.995 172.92 196.795 172.744C196.595 172.568 196.375 172.48 196.135 172.48C195.743 172.48 195.447 172.7 195.247 173.14C195.047 173.58 194.947 174.208 194.947 175.024C194.947 175.84 195.047 176.468 195.247 176.908C195.447 177.348 195.743 177.568 196.135 177.568ZM202.099 177.904C201.515 177.904 201.099 177.724 200.851 177.364C200.611 177.004 200.491 176.572 200.491 176.068V172.84C200.491 172.744 200.471 172.676 200.431 172.636C200.391 172.596 200.323 172.576 200.227 172.576H199.723V172.288H201.355V176.296C201.355 176.648 201.423 176.948 201.559 177.196C201.703 177.444 201.943 177.568 202.279 177.568C202.559 177.568 202.807 177.472 203.023 177.28C203.247 177.08 203.419 176.812 203.539 176.476C203.667 176.132 203.731 175.752 203.731 175.336V172.84C203.731 172.744 203.711 172.676 203.671 172.636C203.631 172.596 203.563 172.576 203.467 172.576H202.963V172.288H204.595V177.208C204.595 177.304 204.615 177.372 204.655 177.412C204.695 177.452 204.763 177.472 204.859 177.472H205.363V177.76H203.731V176.776L203.683 176.764C203.499 177.148 203.271 177.436 202.999 177.628C202.727 177.812 202.427 177.904 202.099 177.904ZM207.333 170.8C207.157 170.8 207.009 170.74 206.889 170.62C206.769 170.5 206.709 170.352 206.709 170.176C206.709 169.992 206.769 169.844 206.889 169.732C207.009 169.612 207.157 169.552 207.333 169.552C207.517 169.552 207.665 169.612 207.777 169.732C207.897 169.844 207.957 169.992 207.957 170.176C207.957 170.352 207.897 170.5 207.777 170.62C207.665 170.74 207.517 170.8 207.333 170.8ZM206.205 177.472H206.709C206.805 177.472 206.873 177.452 206.913 177.412C206.953 177.372 206.973 177.304 206.973 177.208V172.84C206.973 172.744 206.953 172.676 206.913 172.636C206.873 172.596 206.805 172.576 206.709 172.576H206.205V172.288H207.837V177.208C207.837 177.304 207.857 177.372 207.897 177.412C207.937 177.452 208.005 177.472 208.101 177.472H208.605V177.76H206.205V177.472ZM211.911 177.904C211.447 177.904 211.035 177.776 210.675 177.52C210.323 177.264 210.047 176.916 209.847 176.476C209.655 176.036 209.559 175.552 209.559 175.024C209.559 174.496 209.659 174.012 209.859 173.572C210.059 173.132 210.335 172.784 210.687 172.528C211.047 172.272 211.455 172.144 211.911 172.144C212.279 172.144 212.599 172.224 212.871 172.384C213.143 172.536 213.351 172.736 213.495 172.984C213.639 173.224 213.711 173.468 213.711 173.716C213.711 173.964 213.647 174.16 213.519 174.304C213.391 174.44 213.235 174.508 213.051 174.508C212.891 174.508 212.755 174.456 212.643 174.352C212.539 174.248 212.487 174.124 212.487 173.98C212.487 173.836 212.527 173.716 212.607 173.62C212.687 173.524 212.783 173.46 212.895 173.428C213.023 173.388 213.087 173.316 213.087 173.212C213.087 173.116 213.043 173.008 212.955 172.888C212.875 172.768 212.747 172.664 212.571 172.576C212.395 172.48 212.175 172.432 211.911 172.432C211.407 172.432 211.063 172.648 210.879 173.08C210.703 173.512 210.615 174.16 210.615 175.024C210.615 175.888 210.703 176.536 210.879 176.968C211.055 177.4 211.399 177.616 211.911 177.616C212.399 177.616 212.775 177.444 213.039 177.1C213.303 176.756 213.463 176.352 213.519 175.888H213.807C213.783 176.216 213.699 176.536 213.555 176.848C213.411 177.152 213.199 177.404 212.919 177.604C212.639 177.804 212.303 177.904 211.911 177.904ZM214.546 177.472H215.17C215.266 177.472 215.334 177.452 215.374 177.412C215.414 177.372 215.434 177.304 215.434 177.208V169.768C215.434 169.672 215.414 169.604 215.374 169.564C215.334 169.524 215.266 169.504 215.17 169.504H214.546V169.216H216.298V175.324L217.93 173.332C218.018 173.236 218.074 173.16 218.098 173.104C218.13 173.048 218.146 172.976 218.146 172.888C218.146 172.784 218.106 172.708 218.026 172.66C217.954 172.604 217.858 172.576 217.738 172.576H217.426V172.288H219.874V172.576H219.49C219.274 172.576 219.082 172.632 218.914 172.744C218.746 172.856 218.554 173.044 218.338 173.308L217.426 174.424L219.298 177.088C219.394 177.224 219.478 177.324 219.55 177.388C219.622 177.444 219.722 177.472 219.85 177.472H220.09V177.76H217.546V177.472H217.858C217.962 177.472 218.042 177.456 218.098 177.424C218.154 177.384 218.182 177.32 218.182 177.232C218.182 177.144 218.17 177.072 218.146 177.016C218.122 176.96 218.082 176.888 218.026 176.8L216.85 175.12L216.298 175.792V177.208C216.298 177.304 216.318 177.372 216.358 177.412C216.398 177.452 216.466 177.472 216.562 177.472H216.946V177.76H214.546V177.472Z" fill="black"/>
<rect x="174.54" y="45.5391" width="63.4677" height="24" rx="6.5" fill="#FCE4EC" stroke="#F06292"/>
<path d="M206.176 62.9763C205.432 62.9763 204.792 62.7603 204.256 62.3283C203.72 61.8963 203.312 61.3323 203.032 60.6363C202.76 59.9323 202.624 59.1923 202.624 58.4163C202.624 57.6083 202.76 56.8683 203.032 56.1963C203.304 55.5243 203.692 54.9923 204.196 54.6003C204.7 54.2003 205.288 54.0003 205.96 54.0003C206.312 54.0003 206.644 54.0803 206.956 54.2403C207.268 54.4003 207.524 54.5723 207.724 54.7563C207.916 54.9323 208.044 55.0203 208.108 55.0203C208.172 55.0203 208.216 55.0003 208.24 54.9603C208.272 54.9203 208.304 54.8563 208.336 54.7683L208.564 54.0963H208.864L208.912 57.8163H208.576C208.4 57.0563 208.172 56.4203 207.892 55.9083C207.612 55.3883 207.304 55.0043 206.968 54.7563C206.64 54.5083 206.312 54.3843 205.984 54.3843C205.224 54.3843 204.684 54.7283 204.364 55.4163C204.052 56.1043 203.896 57.1043 203.896 58.4163C203.896 59.7683 204.06 60.8043 204.388 61.5243C204.716 62.2363 205.312 62.5923 206.176 62.5923C206.944 62.5923 207.528 62.3083 207.928 61.7403C208.336 61.1643 208.568 60.4683 208.624 59.6523H209.056C209.032 60.1243 208.932 60.6123 208.756 61.1163C208.588 61.6203 208.292 62.0563 207.868 62.4243C207.444 62.7923 206.88 62.9763 206.176 62.9763Z" fill="black"/>
<rect x="27.7642" y="80.5391" width="25.1538" height="24" rx="6.5" fill="#FFF3E0" stroke="#FFB74D"/>
<path d="M35.8931 97.3763H36.3371C36.8091 97.3763 37.1531 97.0843 37.3691 96.5003L39.9491 89.2163H40.2491L42.8531 96.8483C42.9331 97.0483 43.0291 97.1883 43.1411 97.2683C43.2531 97.3403 43.3971 97.3763 43.5731 97.3763H44.2451V97.7603H40.5251V97.3763H41.3171C41.4371 97.3763 41.5371 97.3483 41.6171 97.2923C41.6971 97.2283 41.7371 97.1563 41.7371 97.0763C41.7371 96.9723 41.7211 96.8843 41.6891 96.8123L41.1251 95.2163H38.3171L38.0291 96.0203C37.9171 96.3403 37.8611 96.5723 37.8611 96.7163C37.8611 96.8923 37.9051 97.0483 37.9931 97.1843C38.0811 97.3123 38.2331 97.3763 38.4491 97.3763H39.1811V97.7603H35.8931V97.3763ZM38.4491 94.8323H40.9931L39.7451 91.1723L38.4491 94.8323Z" fill="black"/>
<path d="M37.5302 86.7603H42.5302" stroke="black" stroke-linecap="round"/>
<rect x="138.386" y="80.5391" width="25.1538" height="24" rx="6.5" fill="#FFF3E0" stroke="#FFB74D"/>
<path d="M146.515 97.3763H146.959C147.431 97.3763 147.775 97.0843 147.991 96.5003L150.571 89.2163H150.871L153.475 96.8483C153.555 97.0483 153.651 97.1883 153.763 97.2683C153.875 97.3403 154.019 97.3763 154.195 97.3763H154.867V97.7603H151.147V97.3763H151.939C152.059 97.3763 152.159 97.3483 152.239 97.2923C152.319 97.2283 152.359 97.1563 152.359 97.0763C152.359 96.9723 152.343 96.8843 152.311 96.8123L151.747 95.2163H148.939L148.651 96.0203C148.539 96.3403 148.483 96.5723 148.483 96.7163C148.483 96.8923 148.527 97.0483 148.615 97.1843C148.703 97.3123 148.855 97.3763 149.071 97.3763H149.803V97.7603H146.515V97.3763ZM149.071 94.8323H151.615L150.367 91.1723L149.071 94.8323Z" fill="black"/>
<path d="M148.152 86.7603H153.152" stroke="black" stroke-linecap="round"/>
<rect x="249.007" y="80.5391" width="25.1538" height="24" rx="6.5" fill="#FFF3E0" stroke="#FFB74D"/>
<path d="M257.136 97.3763H257.58C258.052 97.3763 258.396 97.0843 258.612 96.5003L261.192 89.2163H261.492L264.096 96.8483C264.176 97.0483 264.272 97.1883 264.384 97.2683C264.496 97.3403 264.64 97.3763 264.816 97.3763H265.488V97.7603H261.768V97.3763H262.56C262.68 97.3763 262.78 97.3483 262.86 97.2923C262.94 97.2283 262.98 97.1563 262.98 97.0763C262.98 96.9723 262.964 96.8843 262.932 96.8123L262.368 95.2163H259.56L259.272 96.0203C259.16 96.3403 259.104 96.5723 259.104 96.7163C259.104 96.8923 259.148 97.0483 259.236 97.1843C259.324 97.3123 259.476 97.3763 259.692 97.3763H260.424V97.7603H257.136V97.3763ZM259.692 94.8323H262.236L260.988 91.1723L259.692 94.8323Z" fill="black"/>
<path d="M258.773 86.7603H263.773" stroke="black" stroke-linecap="round"/>
<rect x="63.918" y="115.539" width="63.4677" height="24" rx="6.5" fill="#E8F5E9" stroke="#81C784"/>
<path d="M92.5024 132.376H93.3664C93.5824 132.376 93.6904 132.268 93.6904 132.052V124.924C93.6904 124.812 93.6624 124.732 93.6064 124.684C93.5584 124.628 93.4784 124.6 93.3664 124.6H92.5024V124.216H96.4144C96.8864 124.216 97.3264 124.304 97.7344 124.48C98.1504 124.656 98.4824 124.9 98.7304 125.212C98.9784 125.516 99.1024 125.864 99.1024 126.256C99.1024 126.8 98.9184 127.248 98.5504 127.6C98.1824 127.952 97.7544 128.18 97.2664 128.284V128.332C97.5944 128.356 97.9184 128.46 98.2384 128.644C98.5664 128.82 98.8344 129.064 99.0424 129.376C99.2584 129.688 99.3664 130.04 99.3664 130.432C99.3664 130.92 99.2384 131.34 98.9824 131.692C98.7264 132.044 98.3824 132.312 97.9504 132.496C97.5264 132.672 97.0584 132.76 96.5464 132.76H92.5024V132.376ZM96.3664 128.104C97.0144 128.104 97.4544 127.94 97.6864 127.612C97.9264 127.276 98.0464 126.824 98.0464 126.256C98.0464 125.776 97.8944 125.38 97.5904 125.068C97.2864 124.756 96.9104 124.6 96.4624 124.6H95.1184C95.0064 124.6 94.9224 124.628 94.8664 124.684C94.8184 124.732 94.7944 124.812 94.7944 124.924V128.104H96.3664ZM96.4144 132.376C96.9024 132.376 97.3024 132.232 97.6144 131.944C97.9344 131.648 98.0944 131.144 98.0944 130.432C98.0944 129.72 97.9344 129.22 97.6144 128.932C97.3024 128.636 96.9024 128.488 96.4144 128.488H94.7944V132.052C94.7944 132.268 94.9024 132.376 95.1184 132.376H96.4144Z" fill="black"/>
<path d="M93.1626 121.76H98.1626" stroke="black" stroke-linecap="round"/>
<rect x="174.54" y="115.539" width="63.4677" height="24" rx="6.5" fill="#E8F5E9" stroke="#81C784"/>
<path d="M203.124 132.376H203.988C204.204 132.376 204.312 132.268 204.312 132.052V124.924C204.312 124.812 204.284 124.732 204.228 124.684C204.18 124.628 204.1 124.6 203.988 124.6H203.124V124.216H207.036C207.508 124.216 207.948 124.304 208.356 124.48C208.772 124.656 209.104 124.9 209.352 125.212C209.6 125.516 209.724 125.864 209.724 126.256C209.724 126.8 209.54 127.248 209.172 127.6C208.804 127.952 208.376 128.18 207.888 128.284V128.332C208.216 128.356 208.54 128.46 208.86 128.644C209.188 128.82 209.456 129.064 209.664 129.376C209.88 129.688 209.988 130.04 209.988 130.432C209.988 130.92 209.86 131.34 209.604 131.692C209.348 132.044 209.004 132.312 208.572 132.496C208.148 132.672 207.68 132.76 207.168 132.76H203.124V132.376ZM206.988 128.104C207.636 128.104 208.076 127.94 208.308 127.612C208.548 127.276 208.668 126.824 208.668 126.256C208.668 125.776 208.516 125.38 208.212 125.068C207.908 124.756 207.532 124.6 207.084 124.6H205.74C205.628 124.6 205.544 124.628 205.488 124.684C205.44 124.732 205.416 124.812 205.416 124.924V128.104H206.988ZM207.036 132.376C207.524 132.376 207.924 132.232 208.236 131.944C208.556 131.648 208.716 131.144 208.716 130.432C208.716 129.72 208.556 129.22 208.236 128.932C207.924 128.636 207.524 128.488 207.036 128.488H205.416V132.052C205.416 132.268 205.524 132.376 205.74 132.376H207.036Z" fill="black"/>
<path d="M203.784 121.76H208.784" stroke="black" stroke-linecap="round"/>
<rect x="63.918" y="80.5391" width="63.4677" height="24" rx="6.5" fill="#FAFAFA" stroke="#9E9E9E"/>
<path d="M91.0175 96.7223H91.6895C91.7855 96.7223 91.8535 96.7023 91.8935 96.6623C91.9335 96.6223 91.9535 96.5543 91.9535 96.4583V89.0183C91.9535 88.9223 91.9335 88.8543 91.8935 88.8143C91.8535 88.7743 91.7855 88.7543 91.6895 88.7543H91.0175V88.4663H92.8175V92.5223L92.8655 92.5343C93.0495 92.1503 93.2775 91.8663 93.5495 91.6823C93.8215 91.4903 94.1215 91.3943 94.4495 91.3943C95.0335 91.3943 95.4455 91.5743 95.6855 91.9343C95.9335 92.2943 96.0575 92.7263 96.0575 93.2303V96.4583C96.0575 96.5543 96.0775 96.6223 96.1175 96.6623C96.1575 96.7023 96.2255 96.7223 96.3215 96.7223H96.8255V97.0103H94.4255V96.7223H94.9295C95.0255 96.7223 95.0935 96.7023 95.1335 96.6623C95.1735 96.6223 95.1935 96.5543 95.1935 96.4583V93.0023C95.1935 92.6503 95.1215 92.3503 94.9775 92.1023C94.8415 91.8543 94.6055 91.7303 94.2695 91.7303C93.9895 91.7303 93.7375 91.8303 93.5135 92.0303C93.2975 92.2223 93.1255 92.4903 92.9975 92.8343C92.8775 93.1703 92.8175 93.5463 92.8175 93.9623V96.4583C92.8175 96.5543 92.8375 96.6223 92.8775 96.6623C92.9175 96.7023 92.9855 96.7223 93.0815 96.7223H93.5855V97.0103H91.0175V96.7223Z" fill="black"/>
<path d="M99.6926 99.6223C99.3613 99.6223 99.0673 99.5033 98.8106 99.2653C98.5539 99.0273 98.3533 98.717 98.2086 98.3343C98.0686 97.947 97.9986 97.541 97.9986 97.1163C97.9986 96.6916 98.0686 96.288 98.2086 95.9053C98.3533 95.518 98.5539 95.2053 98.8106 94.9673C99.0673 94.7293 99.3613 94.6103 99.6926 94.6103C100.019 94.6103 100.311 94.7293 100.568 94.9673C100.829 95.2053 101.03 95.518 101.17 95.9053C101.314 96.288 101.387 96.6916 101.387 97.1163C101.387 97.541 101.314 97.947 101.17 98.3343C101.03 98.717 100.829 99.0273 100.568 99.2653C100.311 99.5033 100.019 99.6223 99.6926 99.6223ZM99.6926 99.3983C100.08 99.3983 100.334 99.179 100.456 98.7403C100.582 98.3016 100.645 97.7603 100.645 97.1163C100.645 96.4723 100.582 95.931 100.456 95.4923C100.334 95.0536 100.08 94.8343 99.6926 94.8343C99.3053 94.8343 99.0486 95.0536 98.9226 95.4923C98.8013 95.9263 98.7406 96.4676 98.7406 97.1163C98.7406 97.765 98.8013 98.3086 98.9226 98.7473C99.0486 99.1813 99.3053 99.3983 99.6926 99.3983Z" fill="black"/>
<rect x="174.54" y="80.5391" width="63.4677" height="24" rx="6.5" fill="#FAFAFA" stroke="#9E9E9E"/>
<path d="M201.639 96.7223H202.311C202.407 96.7223 202.475 96.7023 202.515 96.6623C202.555 96.6223 202.575 96.5543 202.575 96.4583V89.0183C202.575 88.9223 202.555 88.8543 202.515 88.8143C202.475 88.7743 202.407 88.7543 202.311 88.7543H201.639V88.4663H203.439V92.5223L203.487 92.5343C203.671 92.1503 203.899 91.8663 204.171 91.6823C204.443 91.4903 204.743 91.3943 205.071 91.3943C205.655 91.3943 206.067 91.5743 206.307 91.9343C206.555 92.2943 206.679 92.7263 206.679 93.2303V96.4583C206.679 96.5543 206.699 96.6223 206.739 96.6623C206.779 96.7023 206.847 96.7223 206.943 96.7223H207.447V97.0103H205.047V96.7223H205.551C205.647 96.7223 205.715 96.7023 205.755 96.6623C205.795 96.6223 205.815 96.5543 205.815 96.4583V93.0023C205.815 92.6503 205.743 92.3503 205.599 92.1023C205.463 91.8543 205.227 91.7303 204.891 91.7303C204.611 91.7303 204.359 91.8303 204.135 92.0303C203.919 92.2223 203.747 92.4903 203.619 92.8343C203.499 93.1703 203.439 93.5463 203.439 93.9623V96.4583C203.439 96.5543 203.459 96.6223 203.499 96.6623C203.539 96.7023 203.607 96.7223 203.703 96.7223H204.207V97.0103H201.639V96.7223Z" fill="black"/>
<path d="M210.314 99.6223C209.983 99.6223 209.689 99.5033 209.432 99.2653C209.176 99.0273 208.975 98.717 208.83 98.3343C208.69 97.947 208.62 97.541 208.62 97.1163C208.62 96.6916 208.69 96.288 208.83 95.9053C208.975 95.518 209.176 95.2053 209.432 94.9673C209.689 94.7293 209.983 94.6103 210.314 94.6103C210.641 94.6103 210.933 94.7293 211.189 94.9673C211.451 95.2053 211.651 95.518 211.791 95.9053C211.936 96.288 212.008 96.6916 212.008 97.1163C212.008 97.541 211.936 97.947 211.791 98.3343C211.651 98.717 211.451 99.0273 211.189 99.2653C210.933 99.5033 210.641 99.6223 210.314 99.6223ZM210.314 99.3983C210.702 99.3983 210.956 99.179 211.077 98.7403C211.203 98.3016 211.266 97.7603 211.266 97.1163C211.266 96.4723 211.203 95.931 211.077 95.4923C210.956 95.0536 210.702 94.8343 210.314 94.8343C209.927 94.8343 209.67 95.0536 209.544 95.4923C209.423 95.9263 209.362 96.4676 209.362 97.1163C209.362 97.765 209.423 98.3086 209.544 98.7473C209.67 99.1813 209.927 99.3983 210.314 99.3983Z" fill="black"/>
<circle cx="8.62195" cy="91.9723" r="1.25" fill="black"/>
<circle cx="5.07019" cy="91.9723" r="1.25" fill="black"/>
<circle cx="1.51843" cy="91.9723" r="1.25" fill="black"/>
<circle cx="301.24" cy="91.9723" r="1.25" fill="black"/>
<circle cx="297.688" cy="91.9723" r="1.25" fill="black"/>
<circle cx="294.137" cy="91.9723" r="1.25" fill="black"/>
</svg>
