<svg width="291" height="185" viewBox="0 0 291 185" fill="none" xmlns="http://www.w3.org/2000/svg">
<path d="M204.677 83.129C204.872 82.9338 204.872 82.6172 204.677 82.4219L201.495 79.2398C201.3 79.0445 200.984 79.0445 200.788 79.2397C200.593 79.435 200.593 79.7516 200.788 79.9469L203.616 82.7754L200.788 85.6037C200.593 85.799 200.593 86.1155 200.788 86.3108C200.983 86.5061 201.3 86.5061 201.495 86.3109L204.677 83.129ZM123.071 82.7711L123.071 83.2711L204.324 83.2755L204.324 82.7755L204.324 82.2755L123.071 82.2711L123.071 82.7711Z" fill="black"/>
<path d="M123.066 47.4383C122.79 47.4413 122.568 47.6676 122.571 47.9437C122.574 48.2199 122.8 48.4413 123.077 48.4383L123.066 47.4383ZM214.478 72.3023C214.724 72.4292 215.025 72.3331 215.152 72.0878L217.219 68.0905C217.346 67.8452 217.25 67.5435 217.004 67.4167C216.759 67.2899 216.457 67.3859 216.331 67.6312L214.493 71.1844L210.94 69.3473C210.695 69.2205 210.393 69.3166 210.266 69.5619C210.14 69.8071 210.236 70.1088 210.481 70.2356L214.478 72.3023ZM123.071 47.9383C123.077 48.4383 123.077 48.4383 123.077 48.4383C123.077 48.4383 123.078 48.4383 123.079 48.4383C123.08 48.4383 123.082 48.4382 123.085 48.4382C123.091 48.4381 123.099 48.4381 123.11 48.4379C123.133 48.4377 123.166 48.4373 123.211 48.4369C123.299 48.436 123.431 48.4347 123.604 48.433C123.95 48.4297 124.459 48.4251 125.115 48.4198C126.426 48.4093 128.321 48.396 130.654 48.3852C135.321 48.3636 141.743 48.352 148.764 48.3919C162.811 48.4718 179.231 48.7578 188.784 49.58L188.827 49.0818L188.87 48.5836C179.27 47.7575 162.811 47.4718 148.769 47.392C141.745 47.352 135.319 47.3636 130.65 47.3852C128.315 47.396 126.419 47.4093 125.107 47.4199C124.451 47.4252 123.941 47.4298 123.594 47.4331C123.421 47.4347 123.289 47.436 123.2 47.4369C123.156 47.4374 123.122 47.4378 123.1 47.438C123.088 47.4381 123.08 47.4382 123.074 47.4383C123.071 47.4383 123.069 47.4383 123.068 47.4383C123.067 47.4383 123.067 47.4383 123.066 47.4383C123.066 47.4383 123.066 47.4383 123.071 47.9383ZM188.827 49.0818L188.784 49.58C198.167 50.3874 204.521 55.9632 208.549 61.3862C210.562 64.0962 211.985 66.7574 212.904 68.7414C213.364 69.7329 213.697 70.5538 213.914 71.1251C214.023 71.4108 214.103 71.6339 214.155 71.7847C214.182 71.8601 214.201 71.9174 214.214 71.9553C214.22 71.9743 214.225 71.9884 214.228 71.9976C214.229 72.0021 214.23 72.0055 214.231 72.0075C214.231 72.0086 214.231 72.0093 214.231 72.0097C214.232 72.0099 214.232 72.0099 214.232 72.01C214.232 72.01 214.232 72.0099 214.708 71.8582C215.184 71.7065 215.184 71.7062 215.184 71.7059C215.184 71.7057 215.184 71.7052 215.184 71.7048C215.184 71.7039 215.183 71.7027 215.183 71.7012C215.182 71.6981 215.18 71.6938 215.179 71.6882C215.175 71.677 215.17 71.6608 215.163 71.6397C215.149 71.5976 215.128 71.5361 215.1 71.4563C215.045 71.2968 214.961 71.0644 214.849 70.7691C214.624 70.1786 214.282 69.336 213.811 68.3209C212.871 66.2919 211.415 63.5681 209.352 60.79C205.228 55.2369 198.642 49.4246 188.87 48.5836L188.827 49.0818Z" fill="black"/>
<path d="M123.066 119.691C122.79 119.688 122.568 119.462 122.571 119.186C122.574 118.909 122.8 118.688 123.077 118.691L123.066 119.691ZM214.478 94.827C214.724 94.7002 215.025 94.7962 215.152 95.0415L217.219 99.0389C217.346 99.2841 217.25 99.5858 217.004 99.7126C216.759 99.8395 216.457 99.7434 216.331 99.4981L214.493 95.9449L210.94 97.782C210.695 97.9088 210.393 97.8128 210.266 97.5675C210.14 97.3222 210.236 97.0205 210.481 96.8937L214.478 94.827ZM123.071 119.191C123.077 118.691 123.077 118.691 123.077 118.691C123.077 118.691 123.078 118.691 123.079 118.691C123.08 118.691 123.082 118.691 123.085 118.691C123.091 118.691 123.099 118.691 123.11 118.691C123.133 118.692 123.166 118.692 123.211 118.692C123.299 118.693 123.431 118.695 123.604 118.696C123.95 118.7 124.459 118.704 125.115 118.71C126.426 118.72 128.321 118.733 130.654 118.744C135.321 118.766 141.743 118.777 148.764 118.737C162.811 118.658 179.231 118.372 188.784 117.549L188.827 118.048L188.87 118.546C179.27 119.372 162.811 119.658 148.769 119.737C141.745 119.777 135.319 119.766 130.65 119.744C128.315 119.733 126.419 119.72 125.107 119.709C124.451 119.704 123.941 119.7 123.594 119.696C123.421 119.695 123.289 119.693 123.2 119.692C123.156 119.692 123.122 119.692 123.1 119.691C123.088 119.691 123.08 119.691 123.074 119.691C123.071 119.691 123.069 119.691 123.068 119.691C123.067 119.691 123.067 119.691 123.066 119.691C123.066 119.691 123.066 119.691 123.071 119.191ZM188.827 118.048L188.784 117.549C198.167 116.742 204.521 111.166 208.549 105.743C210.562 103.033 211.985 100.372 212.904 98.3879C213.364 97.3964 213.697 96.5756 213.914 96.0042C214.023 95.7186 214.103 95.4954 214.155 95.3446C214.182 95.2692 214.201 95.212 214.214 95.174C214.22 95.155 214.225 95.1409 214.228 95.1318C214.229 95.1272 214.23 95.1239 214.231 95.1218C214.231 95.1208 214.231 95.1201 214.231 95.1197C214.232 95.1195 214.232 95.1194 214.232 95.1193C214.232 95.1194 214.232 95.1195 214.708 95.2711C215.184 95.4228 215.184 95.4231 215.184 95.4234C215.184 95.4237 215.184 95.4241 215.184 95.4245C215.184 95.4254 215.183 95.4266 215.183 95.4282C215.182 95.4312 215.18 95.4356 215.179 95.4412C215.175 95.4523 215.17 95.4685 215.163 95.4896C215.149 95.5317 215.128 95.5933 215.1 95.673C215.045 95.8325 214.961 96.0649 214.849 96.3602C214.624 96.9508 214.282 97.7934 213.811 98.8084C212.871 100.837 211.415 103.561 209.352 106.339C205.228 111.892 198.642 117.705 188.87 118.546L188.827 118.048Z" fill="black"/>
<rect x="7.53906" y="35.9982" width="25.1538" height="24" rx="6.5" fill="#FCE4EC" stroke="#F06292"/>
<path d="M20.008 53.4354C19.264 53.4354 18.624 53.2194 18.088 52.7874C17.552 52.3554 17.144 51.7914 16.864 51.0954C16.592 50.3914 16.456 49.6514 16.456 48.8754C16.456 48.0674 16.592 47.3274 16.864 46.6554C17.136 45.9834 17.524 45.4514 18.028 45.0594C18.532 44.6594 19.12 44.4594 19.792 44.4594C20.144 44.4594 20.476 44.5394 20.788 44.6994C21.1 44.8594 21.356 45.0314 21.556 45.2154C21.748 45.3914 21.876 45.4794 21.94 45.4794C22.004 45.4794 22.048 45.4594 22.072 45.4194C22.104 45.3794 22.136 45.3154 22.168 45.2274L22.396 44.5554H22.696L22.744 48.2754H22.408C22.232 47.5154 22.004 46.8794 21.724 46.3674C21.444 45.8474 21.136 45.4634 20.8 45.2154C20.472 44.9674 20.144 44.8434 19.816 44.8434C19.056 44.8434 18.516 45.1874 18.196 45.8754C17.884 46.5634 17.728 47.5634 17.728 48.8754C17.728 50.2274 17.892 51.2634 18.22 51.9834C18.548 52.6954 19.144 53.0514 20.008 53.0514C20.776 53.0514 21.36 52.7674 21.76 52.1994C22.168 51.6234 22.4 50.9274 22.456 50.1114H22.888C22.864 50.5834 22.764 51.0714 22.588 51.5754C22.42 52.0794 22.124 52.5154 21.7 52.8834C21.276 53.2514 20.712 53.4354 20.008 53.4354Z" fill="black"/>
<rect x="33.6929" y="70.7711" width="25.1538" height="24" rx="6.5" fill="#FCE4EC" stroke="#F06292"/>
<path d="M46.1618 88.2083C45.4178 88.2083 44.7778 87.9923 44.2418 87.5603C43.7058 87.1283 43.2978 86.5643 43.0178 85.8683C42.7458 85.1643 42.6098 84.4243 42.6098 83.6483C42.6098 82.8403 42.7458 82.1003 43.0178 81.4283C43.2898 80.7563 43.6778 80.2243 44.1818 79.8323C44.6858 79.4323 45.2738 79.2323 45.9458 79.2323C46.2978 79.2323 46.6298 79.3123 46.9418 79.4723C47.2538 79.6323 47.5098 79.8043 47.7098 79.9883C47.9018 80.1643 48.0298 80.2523 48.0938 80.2523C48.1578 80.2523 48.2018 80.2323 48.2258 80.1923C48.2578 80.1523 48.2898 80.0883 48.3218 80.0003L48.5498 79.3283H48.8498L48.8978 83.0483H48.5618C48.3858 82.2883 48.1578 81.6523 47.8778 81.1403C47.5978 80.6203 47.2898 80.2363 46.9538 79.9883C46.6258 79.7403 46.2978 79.6163 45.9698 79.6163C45.2098 79.6163 44.6698 79.9603 44.3498 80.6483C44.0378 81.3363 43.8818 82.3363 43.8818 83.6483C43.8818 85.0003 44.0458 86.0363 44.3738 86.7563C44.7018 87.4683 45.2978 87.8243 46.1618 87.8243C46.9298 87.8243 47.5138 87.5403 47.9138 86.9723C48.3218 86.3963 48.5538 85.7003 48.6098 84.8843H49.0418C49.0178 85.3563 48.9178 85.8443 48.7418 86.3483C48.5738 86.8523 48.2778 87.2883 47.8538 87.6563C47.4298 88.0243 46.8658 88.2083 46.1618 88.2083Z" fill="black"/>
<rect x="59.8467" y="105.544" width="25.1538" height="24" rx="6.5" fill="#FCE4EC" stroke="#F06292"/>
<path d="M72.3156 122.981C71.5716 122.981 70.9316 122.765 70.3956 122.333C69.8596 121.901 69.4516 121.337 69.1716 120.641C68.8996 119.937 68.7636 119.197 68.7636 118.421C68.7636 117.613 68.8996 116.873 69.1716 116.201C69.4436 115.529 69.8316 114.997 70.3356 114.605C70.8396 114.205 71.4276 114.005 72.0996 114.005C72.4516 114.005 72.7836 114.085 73.0956 114.245C73.4076 114.405 73.6636 114.577 73.8636 114.761C74.0556 114.937 74.1836 115.025 74.2476 115.025C74.3116 115.025 74.3556 115.005 74.3796 114.965C74.4116 114.925 74.4436 114.861 74.4756 114.773L74.7036 114.101H75.0036L75.0516 117.821H74.7156C74.5396 117.061 74.3116 116.425 74.0316 115.913C73.7516 115.393 73.4436 115.009 73.1076 114.761C72.7796 114.513 72.4516 114.389 72.1236 114.389C71.3636 114.389 70.8236 114.733 70.5036 115.421C70.1916 116.109 70.0356 117.109 70.0356 118.421C70.0356 119.773 70.1996 120.809 70.5276 121.529C70.8556 122.241 71.4516 122.597 72.3156 122.597C73.0836 122.597 73.6676 122.313 74.0676 121.745C74.4756 121.169 74.7076 120.473 74.7636 119.657H75.1956C75.1716 120.129 75.0716 120.617 74.8956 121.121C74.7276 121.625 74.4316 122.061 74.0076 122.429C73.5836 122.797 73.0196 122.981 72.3156 122.981Z" fill="black"/>
<rect x="33.6929" y="35.9982" width="25.1538" height="24" rx="6.5" fill="#FFF3E0" stroke="#FFB74D"/>
<path d="M41.8218 52.8354H42.2658C42.7378 52.8354 43.0818 52.5434 43.2978 51.9594L45.8778 44.6754H46.1778L48.7818 52.3074C48.8618 52.5074 48.9578 52.6474 49.0698 52.7274C49.1818 52.7994 49.3258 52.8354 49.5018 52.8354H50.1738V53.2194H46.4538V52.8354H47.2458C47.3658 52.8354 47.4658 52.8074 47.5458 52.7514C47.6258 52.6874 47.6658 52.6154 47.6658 52.5354C47.6658 52.4314 47.6498 52.3434 47.6178 52.2714L47.0538 50.6754H44.2458L43.9578 51.4794C43.8458 51.7994 43.7898 52.0314 43.7898 52.1754C43.7898 52.3514 43.8338 52.5074 43.9218 52.6434C44.0098 52.7714 44.1618 52.8354 44.3778 52.8354H45.1098V53.2194H41.8218V52.8354ZM44.3778 50.2914H46.9218L45.6738 46.6314L44.3778 50.2914Z" fill="black"/>
<path d="M43.4589 42.2194H48.4589" stroke="black" stroke-linecap="round"/>
<rect x="59.8467" y="70.7711" width="25.1538" height="24" rx="6.5" fill="#FFF3E0" stroke="#FFB74D"/>
<path d="M67.9756 87.6083H68.4196C68.8916 87.6083 69.2356 87.3163 69.4516 86.7323L72.0316 79.4483H72.3316L74.9356 87.0803C75.0156 87.2803 75.1116 87.4203 75.2236 87.5003C75.3356 87.5723 75.4796 87.6083 75.6556 87.6083H76.3276V87.9923H72.6076V87.6083H73.3996C73.5196 87.6083 73.6196 87.5803 73.6996 87.5243C73.7796 87.4603 73.8196 87.3883 73.8196 87.3083C73.8196 87.2043 73.8036 87.1163 73.7716 87.0443L73.2076 85.4483H70.3996L70.1116 86.2523C69.9996 86.5723 69.9436 86.8043 69.9436 86.9483C69.9436 87.1243 69.9876 87.2803 70.0756 87.4163C70.1636 87.5443 70.3156 87.6083 70.5316 87.6083H71.2636V87.9923H67.9756V87.6083ZM70.5316 85.0643H73.0756L71.8276 81.4043L70.5316 85.0643Z" fill="black"/>
<path d="M69.6127 76.9923H74.6127" stroke="black" stroke-linecap="round"/>
<rect x="59.8467" y="35.9982" width="25.1538" height="24" rx="6.5" fill="#FFF3E0" stroke="#FFB74D"/>
<path d="M67.9756 52.8354H68.4196C68.8916 52.8354 69.2356 52.5434 69.4516 51.9594L72.0316 44.6754H72.3316L74.9356 52.3074C75.0156 52.5074 75.1116 52.6474 75.2236 52.7274C75.3356 52.7994 75.4796 52.8354 75.6556 52.8354H76.3276V53.2194H72.6076V52.8354H73.3996C73.5196 52.8354 73.6196 52.8074 73.6996 52.7514C73.7796 52.6874 73.8196 52.6154 73.8196 52.5354C73.8196 52.4314 73.8036 52.3434 73.7716 52.2714L73.2076 50.6754H70.3996L70.1116 51.4794C69.9996 51.7994 69.9436 52.0314 69.9436 52.1754C69.9436 52.3514 69.9876 52.5074 70.0756 52.6434C70.1636 52.7714 70.3156 52.8354 70.5316 52.8354H71.2636V53.2194H67.9756V52.8354ZM70.5316 50.2914H73.0756L71.8276 46.6314L70.5316 50.2914Z" fill="black"/>
<path d="M69.6127 42.2194H74.6127" stroke="black" stroke-linecap="round"/>
<rect x="86.0005" y="35.9982" width="25.1538" height="24" rx="6.5" fill="#E8F5E9" stroke="#81C784"/>
<path d="M95.4172 52.8354H96.2812C96.4972 52.8354 96.6052 52.7274 96.6052 52.5114V45.3834C96.6052 45.2714 96.5772 45.1914 96.5212 45.1434C96.4732 45.0874 96.3932 45.0594 96.2812 45.0594H95.4172V44.6754H99.3292C99.8012 44.6754 100.241 44.7634 100.649 44.9394C101.065 45.1154 101.397 45.3594 101.645 45.6714C101.893 45.9754 102.017 46.3234 102.017 46.7154C102.017 47.2594 101.833 47.7074 101.465 48.0594C101.097 48.4114 100.669 48.6394 100.181 48.7434V48.7914C100.509 48.8154 100.833 48.9194 101.153 49.1034C101.481 49.2794 101.749 49.5234 101.957 49.8354C102.173 50.1474 102.281 50.4994 102.281 50.8914C102.281 51.3794 102.153 51.7994 101.897 52.1514C101.641 52.5034 101.297 52.7714 100.865 52.9554C100.441 53.1314 99.9732 53.2194 99.4612 53.2194H95.4172V52.8354ZM99.2812 48.5634C99.9292 48.5634 100.369 48.3994 100.601 48.0714C100.841 47.7354 100.961 47.2834 100.961 46.7154C100.961 46.2354 100.809 45.8394 100.505 45.5274C100.201 45.2154 99.8252 45.0594 99.3772 45.0594H98.0332C97.9212 45.0594 97.8372 45.0874 97.7812 45.1434C97.7332 45.1914 97.7092 45.2714 97.7092 45.3834V48.5634H99.2812ZM99.3292 52.8354C99.8172 52.8354 100.217 52.6914 100.529 52.4034C100.849 52.1074 101.009 51.6034 101.009 50.8914C101.009 50.1794 100.849 49.6794 100.529 49.3914C100.217 49.0954 99.8172 48.9474 99.3292 48.9474H97.7092V52.5114C97.7092 52.7274 97.8172 52.8354 98.0332 52.8354H99.3292Z" fill="black"/>
<path d="M96.0774 42.2194H101.077" stroke="black" stroke-linecap="round"/>
<rect x="86.0005" y="70.7711" width="25.1538" height="24" rx="6.5" fill="#E8F5E9" stroke="#81C784"/>
<path d="M95.4172 87.6083H96.2812C96.4972 87.6083 96.6052 87.5003 96.6052 87.2843V80.1563C96.6052 80.0443 96.5772 79.9643 96.5212 79.9163C96.4732 79.8603 96.3932 79.8323 96.2812 79.8323H95.4172V79.4483H99.3292C99.8012 79.4483 100.241 79.5363 100.649 79.7123C101.065 79.8883 101.397 80.1323 101.645 80.4443C101.893 80.7483 102.017 81.0963 102.017 81.4883C102.017 82.0323 101.833 82.4803 101.465 82.8323C101.097 83.1843 100.669 83.4123 100.181 83.5163V83.5643C100.509 83.5883 100.833 83.6923 101.153 83.8763C101.481 84.0523 101.749 84.2963 101.957 84.6083C102.173 84.9203 102.281 85.2723 102.281 85.6643C102.281 86.1523 102.153 86.5723 101.897 86.9243C101.641 87.2763 101.297 87.5443 100.865 87.7283C100.441 87.9043 99.9732 87.9923 99.4612 87.9923H95.4172V87.6083ZM99.2812 83.3363C99.9292 83.3363 100.369 83.1723 100.601 82.8443C100.841 82.5083 100.961 82.0563 100.961 81.4883C100.961 81.0083 100.809 80.6123 100.505 80.3003C100.201 79.9883 99.8252 79.8323 99.3772 79.8323H98.0332C97.9212 79.8323 97.8372 79.8603 97.7812 79.9163C97.7332 79.9643 97.7092 80.0443 97.7092 80.1563V83.3363H99.2812ZM99.3292 87.6083C99.8172 87.6083 100.217 87.4643 100.529 87.1763C100.849 86.8803 101.009 86.3763 101.009 85.6643C101.009 84.9523 100.849 84.4523 100.529 84.1643C100.217 83.8683 99.8172 83.7203 99.3292 83.7203H97.7092V87.2843C97.7092 87.5003 97.8172 87.6083 98.0332 87.6083H99.3292Z" fill="black"/>
<path d="M96.0774 76.9923H101.077" stroke="black" stroke-linecap="round"/>
<rect x="86.0005" y="105.544" width="25.1538" height="24" rx="6.5" fill="#E8F5E9" stroke="#81C784"/>
<path d="M95.4172 122.381H96.2812C96.4972 122.381 96.6052 122.273 96.6052 122.057V114.929C96.6052 114.817 96.5772 114.737 96.5212 114.689C96.4732 114.633 96.3932 114.605 96.2812 114.605H95.4172V114.221H99.3292C99.8012 114.221 100.241 114.309 100.649 114.485C101.065 114.661 101.397 114.905 101.645 115.217C101.893 115.521 102.017 115.869 102.017 116.261C102.017 116.805 101.833 117.253 101.465 117.605C101.097 117.957 100.669 118.185 100.181 118.289V118.337C100.509 118.361 100.833 118.465 101.153 118.649C101.481 118.825 101.749 119.069 101.957 119.381C102.173 119.693 102.281 120.045 102.281 120.437C102.281 120.925 102.153 121.345 101.897 121.697C101.641 122.049 101.297 122.317 100.865 122.501C100.441 122.677 99.9732 122.765 99.4612 122.765H95.4172V122.381ZM99.2812 118.109C99.9292 118.109 100.369 117.945 100.601 117.617C100.841 117.281 100.961 116.829 100.961 116.261C100.961 115.781 100.809 115.385 100.505 115.073C100.201 114.761 99.8252 114.605 99.3772 114.605H98.0332C97.9212 114.605 97.8372 114.633 97.7812 114.689C97.7332 114.737 97.7092 114.817 97.7092 114.929V118.109H99.2812ZM99.3292 122.381C99.8172 122.381 100.217 122.237 100.529 121.949C100.849 121.653 101.009 121.149 101.009 120.437C101.009 119.725 100.849 119.225 100.529 118.937C100.217 118.641 99.8172 118.493 99.3292 118.493H97.7092V122.057C97.7092 122.273 97.8172 122.381 98.0332 122.381H99.3292Z" fill="black"/>
<path d="M96.0774 111.765H101.077" stroke="black" stroke-linecap="round"/>
<rect x="226.622" y="35.9982" width="63.4677" height="24" rx="6.5" fill="#F3E5F5" stroke="#BA68C8"/>
<path d="M246.561 55.6914H247.185C247.281 55.6914 247.349 55.6714 247.389 55.6314C247.429 55.5914 247.449 55.5234 247.449 55.4274V52.3314L247.401 52.3194C247.281 52.6074 247.097 52.8554 246.849 53.0634C246.601 53.2634 246.321 53.3634 246.009 53.3634C245.633 53.3634 245.281 53.2394 244.953 52.9914C244.633 52.7354 244.377 52.3874 244.185 51.9474C243.993 51.5074 243.897 51.0194 243.897 50.4834C243.897 49.9474 243.993 49.4594 244.185 49.0194C244.377 48.5794 244.633 48.2354 244.953 47.9874C245.281 47.7314 245.633 47.6034 246.009 47.6034C246.329 47.6034 246.625 47.7114 246.897 47.9274C247.169 48.1434 247.385 48.4274 247.545 48.7794H247.593L248.097 47.7474H248.313V55.4274C248.313 55.5234 248.333 55.5914 248.373 55.6314C248.413 55.6714 248.481 55.6914 248.577 55.6914H249.201V55.9794H246.561V55.6914ZM246.141 53.0274C246.381 53.0274 246.601 52.9394 246.801 52.7634C247.001 52.5874 247.157 52.3474 247.269 52.0434C247.389 51.7314 247.449 51.3954 247.449 51.0354V49.9314C247.449 49.5714 247.389 49.2394 247.269 48.9354C247.157 48.6234 247.001 48.3794 246.801 48.2034C246.601 48.0274 246.381 47.9394 246.141 47.9394C245.749 47.9394 245.453 48.1594 245.253 48.5994C245.053 49.0394 244.953 49.6674 244.953 50.4834C244.953 51.2994 245.053 51.9274 245.253 52.3674C245.453 52.8074 245.749 53.0274 246.141 53.0274ZM252.104 53.3634C251.52 53.3634 251.104 53.1834 250.856 52.8234C250.616 52.4634 250.496 52.0314 250.496 51.5274V48.2994C250.496 48.2034 250.476 48.1354 250.436 48.0954C250.396 48.0554 250.328 48.0354 250.232 48.0354H249.728V47.7474H251.36V51.7554C251.36 52.1074 251.428 52.4074 251.564 52.6554C251.708 52.9034 251.948 53.0274 252.284 53.0274C252.564 53.0274 252.812 52.9314 253.028 52.7394C253.252 52.5394 253.424 52.2714 253.544 51.9354C253.672 51.5914 253.736 51.2114 253.736 50.7954V48.2994C253.736 48.2034 253.716 48.1354 253.676 48.0954C253.636 48.0554 253.568 48.0354 253.472 48.0354H252.968V47.7474H254.6V52.6674C254.6 52.7634 254.62 52.8314 254.66 52.8714C254.7 52.9114 254.768 52.9314 254.864 52.9314H255.368V53.2194H253.736V52.2354L253.688 52.2234C253.504 52.6074 253.276 52.8954 253.004 53.0874C252.732 53.2714 252.432 53.3634 252.104 53.3634ZM257.339 46.2594C257.163 46.2594 257.015 46.1994 256.895 46.0794C256.775 45.9594 256.715 45.8114 256.715 45.6354C256.715 45.4514 256.775 45.3034 256.895 45.1914C257.015 45.0714 257.163 45.0114 257.339 45.0114C257.523 45.0114 257.671 45.0714 257.783 45.1914C257.903 45.3034 257.963 45.4514 257.963 45.6354C257.963 45.8114 257.903 45.9594 257.783 46.0794C257.671 46.1994 257.523 46.2594 257.339 46.2594ZM256.211 52.9314H256.715C256.811 52.9314 256.879 52.9114 256.919 52.8714C256.959 52.8314 256.979 52.7634 256.979 52.6674V48.2994C256.979 48.2034 256.959 48.1354 256.919 48.0954C256.879 48.0554 256.811 48.0354 256.715 48.0354H256.211V47.7474H257.843V52.6674C257.843 52.7634 257.863 52.8314 257.903 52.8714C257.943 52.9114 258.011 52.9314 258.107 52.9314H258.611V53.2194H256.211V52.9314ZM261.917 53.3634C261.453 53.3634 261.041 53.2354 260.681 52.9794C260.329 52.7234 260.053 52.3754 259.853 51.9354C259.661 51.4954 259.565 51.0114 259.565 50.4834C259.565 49.9554 259.665 49.4714 259.865 49.0314C260.065 48.5914 260.341 48.2434 260.693 47.9874C261.053 47.7314 261.461 47.6034 261.917 47.6034C262.285 47.6034 262.605 47.6834 262.877 47.8434C263.149 47.9954 263.357 48.1954 263.501 48.4434C263.645 48.6834 263.717 48.9274 263.717 49.1754C263.717 49.4234 263.653 49.6194 263.525 49.7634C263.397 49.8994 263.241 49.9674 263.057 49.9674C262.897 49.9674 262.761 49.9154 262.649 49.8114C262.545 49.7074 262.493 49.5834 262.493 49.4394C262.493 49.2954 262.533 49.1754 262.613 49.0794C262.693 48.9834 262.789 48.9194 262.901 48.8874C263.029 48.8474 263.093 48.7754 263.093 48.6714C263.093 48.5754 263.049 48.4674 262.961 48.3474C262.881 48.2274 262.753 48.1234 262.577 48.0354C262.401 47.9394 262.181 47.8914 261.917 47.8914C261.413 47.8914 261.069 48.1074 260.885 48.5394C260.709 48.9714 260.621 49.6194 260.621 50.4834C260.621 51.3474 260.709 51.9954 260.885 52.4274C261.061 52.8594 261.405 53.0754 261.917 53.0754C262.405 53.0754 262.781 52.9034 263.045 52.5594C263.309 52.2154 263.469 51.8114 263.525 51.3474H263.813C263.789 51.6754 263.705 51.9954 263.561 52.3074C263.417 52.6114 263.205 52.8634 262.925 53.0634C262.645 53.2634 262.309 53.3634 261.917 53.3634ZM264.552 52.9314H265.176C265.272 52.9314 265.34 52.9114 265.38 52.8714C265.42 52.8314 265.44 52.7634 265.44 52.6674V45.2274C265.44 45.1314 265.42 45.0634 265.38 45.0234C265.34 44.9834 265.272 44.9634 265.176 44.9634H264.552V44.6754H266.304V50.7834L267.936 48.7914C268.024 48.6954 268.08 48.6194 268.104 48.5634C268.136 48.5074 268.152 48.4354 268.152 48.3474C268.152 48.2434 268.112 48.1674 268.032 48.1194C267.96 48.0634 267.864 48.0354 267.744 48.0354H267.432V47.7474H269.88V48.0354H269.496C269.28 48.0354 269.088 48.0914 268.92 48.2034C268.752 48.3154 268.56 48.5034 268.344 48.7674L267.432 49.8834L269.304 52.5474C269.4 52.6834 269.484 52.7834 269.556 52.8474C269.628 52.9034 269.728 52.9314 269.856 52.9314H270.096V53.2194H267.552V52.9314H267.864C267.968 52.9314 268.048 52.9154 268.104 52.8834C268.16 52.8434 268.188 52.7794 268.188 52.6914C268.188 52.6034 268.176 52.5314 268.152 52.4754C268.128 52.4194 268.088 52.3474 268.032 52.2594L266.856 50.5794L266.304 51.2514V52.6674C266.304 52.7634 266.324 52.8314 266.364 52.8714C266.404 52.9114 266.472 52.9314 266.568 52.9314H266.952V53.2194H264.552V52.9314Z" fill="black"/>
<rect x="226.622" y="70.7711" width="63.4677" height="24" rx="6.5" fill="#F3E5F5" stroke="#BA68C8"/>
<path d="M245.51 88.1363C245.19 88.1363 244.894 88.0283 244.622 87.8123C244.35 87.5963 244.134 87.3123 243.974 86.9603H243.926L243.422 87.9923H243.206V80.0003C243.206 79.9043 243.186 79.8363 243.146 79.7963C243.106 79.7563 243.038 79.7363 242.942 79.7363H242.318V79.4483H244.07V83.4083L244.118 83.4203C244.238 83.1323 244.422 82.8883 244.67 82.6883C244.918 82.4803 245.198 82.3763 245.51 82.3763C245.886 82.3763 246.234 82.5043 246.554 82.7603C246.882 83.0083 247.142 83.3523 247.334 83.7923C247.526 84.2323 247.622 84.7203 247.622 85.2563C247.622 85.7923 247.526 86.2803 247.334 86.7203C247.142 87.1603 246.882 87.5083 246.554 87.7643C246.234 88.0123 245.886 88.1363 245.51 88.1363ZM245.378 87.8003C245.77 87.8003 246.066 87.5803 246.266 87.1403C246.466 86.7003 246.566 86.0723 246.566 85.2563C246.566 84.4403 246.466 83.8123 246.266 83.3723C246.066 82.9323 245.77 82.7123 245.378 82.7123C245.138 82.7123 244.918 82.8003 244.718 82.9763C244.518 83.1523 244.358 83.3963 244.238 83.7083C244.126 84.0123 244.07 84.3443 244.07 84.7043V85.8083C244.07 86.1683 244.126 86.5043 244.238 86.8163C244.358 87.1203 244.518 87.3603 244.718 87.5363C244.918 87.7123 245.138 87.8003 245.378 87.8003ZM248.651 87.7043H249.155C249.251 87.7043 249.319 87.6843 249.359 87.6443C249.399 87.6043 249.419 87.5363 249.419 87.4403V83.0723C249.419 82.9763 249.399 82.9083 249.359 82.8683C249.319 82.8283 249.251 82.8083 249.155 82.8083H248.651V82.5203H250.283V83.7203L250.331 83.7323C250.499 83.3163 250.715 82.9883 250.979 82.7483C251.251 82.5003 251.539 82.3763 251.843 82.3763C252.147 82.3763 252.395 82.4643 252.587 82.6403C252.779 82.8163 252.875 83.0563 252.875 83.3603C252.875 83.5363 252.811 83.7083 252.683 83.8763C252.563 84.0443 252.407 84.1283 252.215 84.1283C252.063 84.1283 251.935 84.0883 251.831 84.0083C251.727 83.9283 251.675 83.8163 251.675 83.6723C251.675 83.5043 251.755 83.3603 251.915 83.2403C251.987 83.1923 252.039 83.1483 252.071 83.1083C252.111 83.0683 252.131 83.0163 252.131 82.9523C252.131 82.8803 252.095 82.8243 252.023 82.7843C251.959 82.7363 251.867 82.7123 251.747 82.7123C251.499 82.7123 251.259 82.8323 251.027 83.0723C250.803 83.3123 250.623 83.6243 250.487 84.0083C250.351 84.3923 250.283 84.7923 250.283 85.2083V87.4403C250.283 87.5363 250.303 87.6043 250.343 87.6443C250.383 87.6843 250.451 87.7043 250.547 87.7043H251.051V87.9923H248.651V87.7043ZM256.093 88.1363C255.653 88.1363 255.249 88.0083 254.881 87.7523C254.513 87.4883 254.221 87.1363 254.005 86.6963C253.797 86.2563 253.693 85.7763 253.693 85.2563C253.693 84.7363 253.797 84.2563 254.005 83.8163C254.221 83.3763 254.513 83.0283 254.881 82.7723C255.249 82.5083 255.653 82.3763 256.093 82.3763C256.533 82.3763 256.937 82.5083 257.305 82.7723C257.673 83.0283 257.961 83.3763 258.169 83.8163C258.385 84.2563 258.493 84.7363 258.493 85.2563C258.493 85.7763 258.385 86.2563 258.169 86.6963C257.961 87.1363 257.673 87.4883 257.305 87.7523C256.937 88.0083 256.533 88.1363 256.093 88.1363ZM256.093 87.8483C256.573 87.8483 256.917 87.6243 257.125 87.1763C257.333 86.7203 257.437 86.0803 257.437 85.2563C257.437 84.4323 257.333 83.7963 257.125 83.3483C256.917 82.8923 256.573 82.6643 256.093 82.6643C255.613 82.6643 255.269 82.8923 255.061 83.3483C254.853 83.7963 254.749 84.4323 254.749 85.2563C254.749 86.0803 254.853 86.7203 255.061 87.1763C255.269 87.6243 255.613 87.8483 256.093 87.8483ZM260.118 83.5163C260.006 83.2523 259.902 83.0683 259.806 82.9643C259.718 82.8603 259.574 82.8083 259.374 82.8083H259.098V82.5203H261.69V82.8083H261.318C261.206 82.8083 261.118 82.8403 261.054 82.9043C260.998 82.9683 260.97 83.0483 260.97 83.1443C260.97 83.2483 260.994 83.3643 261.042 83.4923L262.386 86.7323L263.202 84.1283C263.226 84.0563 263.246 83.9803 263.262 83.9003C263.278 83.8203 263.286 83.7523 263.286 83.6963C263.286 83.5523 263.234 83.3683 263.13 83.1443C263.082 83.0323 263.026 82.9483 262.962 82.8923C262.906 82.8363 262.826 82.8083 262.722 82.8083H262.362V82.5203H264.954V82.8083H264.474C264.242 82.8083 264.126 82.9283 264.126 83.1683C264.126 83.2563 264.158 83.3843 264.222 83.5523L265.338 86.7323L266.31 83.8883C266.342 83.7923 266.37 83.6843 266.394 83.5643C266.426 83.4443 266.442 83.3483 266.442 83.2763C266.442 82.9643 266.298 82.8083 266.01 82.8083H265.722V82.5203H267.906V82.8083H267.63C267.454 82.8083 267.29 82.8683 267.138 82.9883C266.994 83.1003 266.882 83.2763 266.802 83.5163L265.17 88.1363H264.954L263.514 84.2003L262.266 88.1363H262.05L260.118 83.5163ZM268.655 87.7043H269.159C269.255 87.7043 269.323 87.6843 269.363 87.6443C269.403 87.6043 269.423 87.5363 269.423 87.4403V83.0723C269.423 82.9763 269.403 82.9083 269.363 82.8683C269.323 82.8283 269.255 82.8083 269.159 82.8083H268.655V82.5203H270.287V83.5043L270.335 83.5163C270.519 83.1323 270.747 82.8483 271.019 82.6643C271.291 82.4723 271.591 82.3763 271.919 82.3763C272.503 82.3763 272.915 82.5563 273.155 82.9163C273.403 83.2763 273.527 83.7083 273.527 84.2123V87.4403C273.527 87.5363 273.547 87.6043 273.587 87.6443C273.627 87.6843 273.695 87.7043 273.791 87.7043H274.295V87.9923H271.895V87.7043H272.399C272.495 87.7043 272.563 87.6843 272.603 87.6443C272.643 87.6043 272.663 87.5363 272.663 87.4403V83.9843C272.663 83.6323 272.591 83.3323 272.447 83.0843C272.311 82.8363 272.075 82.7123 271.739 82.7123C271.459 82.7123 271.207 82.8123 270.983 83.0123C270.767 83.2043 270.595 83.4723 270.467 83.8163C270.347 84.1523 270.287 84.5283 270.287 84.9443V87.4403C270.287 87.5363 270.307 87.6043 270.347 87.6443C270.387 87.6843 270.455 87.7043 270.551 87.7043H271.055V87.9923H268.655V87.7043Z" fill="black"/>
<rect x="132.154" y="70.7711" width="63.4677" height="24" rx="6.5" fill="#E0F2F1" stroke="#4DB6AC"/>
<path d="M155.958 87.6083H157.11C157.326 87.6083 157.434 87.5003 157.434 87.2843V80.1203C157.434 80.0083 157.41 79.9283 157.362 79.8803C157.314 79.8243 157.23 79.7963 157.11 79.7963H156.678C156.174 79.7963 155.738 80.0523 155.37 80.5643C155.138 80.8923 154.982 81.3043 154.902 81.8003C154.822 82.2883 154.782 82.6483 154.782 82.8803H154.446L154.542 79.4483H161.43L161.526 82.8803H161.19C161.19 82.6483 161.15 82.2883 161.07 81.8003C160.99 81.3043 160.834 80.8923 160.602 80.5643C160.234 80.0523 159.798 79.7963 159.294 79.7963H158.862C158.742 79.7963 158.658 79.8243 158.61 79.8803C158.562 79.9283 158.538 80.0083 158.538 80.1203V87.2843C158.538 87.5003 158.646 87.6083 158.862 87.6083H160.014V87.9923H155.958V87.6083ZM162.484 87.7043H163.156C163.252 87.7043 163.32 87.6843 163.36 87.6443C163.4 87.6043 163.42 87.5363 163.42 87.4403V80.0003C163.42 79.9043 163.4 79.8363 163.36 79.7963C163.32 79.7563 163.252 79.7363 163.156 79.7363H162.484V79.4483H164.284V83.5043L164.332 83.5163C164.516 83.1323 164.744 82.8483 165.016 82.6643C165.288 82.4723 165.588 82.3763 165.916 82.3763C166.5 82.3763 166.912 82.5563 167.152 82.9163C167.4 83.2763 167.524 83.7083 167.524 84.2123V87.4403C167.524 87.5363 167.544 87.6043 167.584 87.6443C167.624 87.6843 167.692 87.7043 167.788 87.7043H168.292V87.9923H165.892V87.7043H166.396C166.492 87.7043 166.56 87.6843 166.6 87.6443C166.64 87.6043 166.66 87.5363 166.66 87.4403V83.9843C166.66 83.6323 166.588 83.3323 166.444 83.0843C166.308 82.8363 166.072 82.7123 165.736 82.7123C165.456 82.7123 165.204 82.8123 164.98 83.0123C164.764 83.2043 164.592 83.4723 164.464 83.8163C164.344 84.1523 164.284 84.5283 164.284 84.9443V87.4403C164.284 87.5363 164.304 87.6043 164.344 87.6443C164.384 87.6843 164.452 87.7043 164.548 87.7043H165.052V87.9923H162.484V87.7043ZM171.723 88.1363C170.979 88.1363 170.379 87.8843 169.923 87.3803C169.475 86.8763 169.251 86.1763 169.251 85.2803C169.251 84.7683 169.351 84.2923 169.551 83.8523C169.751 83.4043 170.027 83.0483 170.379 82.7843C170.739 82.5123 171.139 82.3763 171.579 82.3763C172.067 82.3763 172.467 82.5083 172.779 82.7723C173.091 83.0363 173.315 83.3723 173.451 83.7803C173.595 84.1803 173.667 84.5923 173.667 85.0163C173.667 85.1043 173.639 85.1643 173.583 85.1963C173.527 85.2203 173.431 85.2323 173.295 85.2323H170.307C170.307 86.0323 170.419 86.6683 170.643 87.1403C170.875 87.6123 171.251 87.8483 171.771 87.8483C172.139 87.8483 172.483 87.7083 172.803 87.4283C173.131 87.1483 173.339 86.7123 173.427 86.1203H173.715C173.667 86.7043 173.463 87.1883 173.103 87.5723C172.751 87.9483 172.291 88.1363 171.723 88.1363ZM172.635 84.9443C172.635 84.3043 172.551 83.7643 172.383 83.3243C172.215 82.8843 171.939 82.6643 171.555 82.6643C171.147 82.6643 170.835 82.8883 170.619 83.3363C170.411 83.7763 170.307 84.3123 170.307 84.9443H172.635Z" fill="black"/>
<rect x="132.154" y="1.22534" width="63.4677" height="24" rx="6.5" fill="#E0F2F1" stroke="#4DB6AC"/>
<path d="M163.888 18.6386C163.32 18.6386 162.816 18.4346 162.376 18.0266C161.936 17.6186 161.592 17.0866 161.344 16.4306C161.104 15.7666 160.984 15.0706 160.984 14.3426C160.984 13.6146 161.104 12.9226 161.344 12.2666C161.592 11.6026 161.936 11.0666 162.376 10.6586C162.816 10.2506 163.32 10.0466 163.888 10.0466C164.448 10.0466 164.948 10.2506 165.388 10.6586C165.836 11.0666 166.18 11.6026 166.42 12.2666C166.668 12.9226 166.792 13.6146 166.792 14.3426C166.792 15.0706 166.668 15.7666 166.42 16.4306C166.18 17.0866 165.836 17.6186 165.388 18.0266C164.948 18.4346 164.448 18.6386 163.888 18.6386ZM163.888 18.2546C164.552 18.2546 164.988 17.8786 165.196 17.1266C165.412 16.3746 165.52 15.4466 165.52 14.3426C165.52 13.2386 165.412 12.3106 165.196 11.5586C164.988 10.8066 164.552 10.4306 163.888 10.4306C163.224 10.4306 162.784 10.8066 162.568 11.5586C162.36 12.3026 162.256 13.2306 162.256 14.3426C162.256 15.4546 162.36 16.3866 162.568 17.1386C162.784 17.8826 163.224 18.2546 163.888 18.2546Z" fill="black"/>
<rect x="132.154" y="35.9982" width="63.4677" height="24" rx="6.5" fill="#E0F2F1" stroke="#4DB6AC"/>
<path d="M163.888 53.4114C163.32 53.4114 162.816 53.2074 162.376 52.7994C161.936 52.3914 161.592 51.8594 161.344 51.2034C161.104 50.5394 160.984 49.8434 160.984 49.1154C160.984 48.3874 161.104 47.6954 161.344 47.0394C161.592 46.3754 161.936 45.8394 162.376 45.4314C162.816 45.0234 163.32 44.8194 163.888 44.8194C164.448 44.8194 164.948 45.0234 165.388 45.4314C165.836 45.8394 166.18 46.3754 166.42 47.0394C166.668 47.6954 166.792 48.3874 166.792 49.1154C166.792 49.8434 166.668 50.5394 166.42 51.2034C166.18 51.8594 165.836 52.3914 165.388 52.7994C164.948 53.2074 164.448 53.4114 163.888 53.4114ZM163.888 53.0274C164.552 53.0274 164.988 52.6514 165.196 51.8994C165.412 51.1474 165.52 50.2194 165.52 49.1154C165.52 48.0114 165.412 47.0834 165.196 46.3314C164.988 45.5794 164.552 45.2034 163.888 45.2034C163.224 45.2034 162.784 45.5794 162.568 46.3314C162.36 47.0754 162.256 48.0034 162.256 49.1154C162.256 50.2274 162.36 51.1594 162.568 51.9114C162.784 52.6554 163.224 53.0274 163.888 53.0274Z" fill="black"/>
<rect x="132.155" y="105.544" width="63.4677" height="24" rx="6.5" fill="#E0F2F1" stroke="#4DB6AC"/>
<path d="M154.169 125.237H154.793C154.889 125.237 154.957 125.217 154.997 125.177C155.037 125.137 155.057 125.069 155.057 124.973V121.877L155.009 121.865C154.889 122.153 154.705 122.401 154.457 122.609C154.209 122.809 153.929 122.909 153.617 122.909C153.241 122.909 152.889 122.785 152.561 122.537C152.241 122.281 151.985 121.933 151.793 121.493C151.601 121.053 151.505 120.565 151.505 120.029C151.505 119.493 151.601 119.005 151.793 118.565C151.985 118.125 152.241 117.781 152.561 117.533C152.889 117.277 153.241 117.149 153.617 117.149C153.937 117.149 154.233 117.257 154.505 117.473C154.777 117.689 154.993 117.973 155.153 118.325H155.201L155.705 117.293H155.921V124.973C155.921 125.069 155.941 125.137 155.981 125.177C156.021 125.217 156.089 125.237 156.185 125.237H156.809V125.525H154.169V125.237ZM153.749 122.573C153.989 122.573 154.209 122.485 154.409 122.309C154.609 122.133 154.765 121.893 154.877 121.589C154.997 121.277 155.057 120.941 155.057 120.581V119.477C155.057 119.117 154.997 118.785 154.877 118.481C154.765 118.169 154.609 117.925 154.409 117.749C154.209 117.573 153.989 117.485 153.749 117.485C153.357 117.485 153.061 117.705 152.861 118.145C152.661 118.585 152.561 119.213 152.561 120.029C152.561 120.845 152.661 121.473 152.861 121.913C153.061 122.353 153.357 122.573 153.749 122.573ZM159.713 122.909C159.129 122.909 158.713 122.729 158.465 122.369C158.225 122.009 158.105 121.577 158.105 121.073V117.845C158.105 117.749 158.085 117.681 158.045 117.641C158.005 117.601 157.937 117.581 157.841 117.581H157.337V117.293H158.969V121.301C158.969 121.653 159.037 121.953 159.173 122.201C159.317 122.449 159.557 122.573 159.893 122.573C160.173 122.573 160.421 122.477 160.637 122.285C160.861 122.085 161.033 121.817 161.153 121.481C161.281 121.137 161.345 120.757 161.345 120.341V117.845C161.345 117.749 161.325 117.681 161.285 117.641C161.245 117.601 161.177 117.581 161.081 117.581H160.577V117.293H162.209V122.213C162.209 122.309 162.229 122.377 162.269 122.417C162.309 122.457 162.377 122.477 162.473 122.477H162.977V122.765H161.345V121.781L161.297 121.769C161.113 122.153 160.885 122.441 160.613 122.633C160.341 122.817 160.041 122.909 159.713 122.909ZM164.947 115.805C164.771 115.805 164.623 115.745 164.503 115.625C164.383 115.505 164.323 115.357 164.323 115.181C164.323 114.997 164.383 114.849 164.503 114.737C164.623 114.617 164.771 114.557 164.947 114.557C165.131 114.557 165.279 114.617 165.391 114.737C165.511 114.849 165.571 114.997 165.571 115.181C165.571 115.357 165.511 115.505 165.391 115.625C165.279 115.745 165.131 115.805 164.947 115.805ZM163.819 122.477H164.323C164.419 122.477 164.487 122.457 164.527 122.417C164.567 122.377 164.587 122.309 164.587 122.213V117.845C164.587 117.749 164.567 117.681 164.527 117.641C164.487 117.601 164.419 117.581 164.323 117.581H163.819V117.293H165.451V122.213C165.451 122.309 165.471 122.377 165.511 122.417C165.551 122.457 165.619 122.477 165.715 122.477H166.219V122.765H163.819V122.477ZM169.525 122.909C169.061 122.909 168.649 122.781 168.289 122.525C167.937 122.269 167.661 121.921 167.461 121.481C167.269 121.041 167.173 120.557 167.173 120.029C167.173 119.501 167.273 119.017 167.473 118.577C167.673 118.137 167.949 117.789 168.301 117.533C168.661 117.277 169.069 117.149 169.525 117.149C169.893 117.149 170.213 117.229 170.485 117.389C170.757 117.541 170.965 117.741 171.109 117.989C171.253 118.229 171.325 118.473 171.325 118.721C171.325 118.969 171.261 119.165 171.133 119.309C171.005 119.445 170.849 119.513 170.665 119.513C170.505 119.513 170.369 119.461 170.257 119.357C170.153 119.253 170.101 119.129 170.101 118.985C170.101 118.841 170.141 118.721 170.221 118.625C170.301 118.529 170.397 118.465 170.509 118.433C170.637 118.393 170.701 118.321 170.701 118.217C170.701 118.121 170.657 118.013 170.569 117.893C170.489 117.773 170.361 117.669 170.185 117.581C170.009 117.485 169.789 117.437 169.525 117.437C169.021 117.437 168.677 117.653 168.493 118.085C168.317 118.517 168.229 119.165 168.229 120.029C168.229 120.893 168.317 121.541 168.493 121.973C168.669 122.405 169.013 122.621 169.525 122.621C170.013 122.621 170.389 122.449 170.653 122.105C170.917 121.761 171.077 121.357 171.133 120.893H171.421C171.397 121.221 171.313 121.541 171.169 121.853C171.025 122.157 170.813 122.409 170.533 122.609C170.253 122.809 169.917 122.909 169.525 122.909ZM172.16 122.477H172.784C172.88 122.477 172.948 122.457 172.988 122.417C173.028 122.377 173.048 122.309 173.048 122.213V114.773C173.048 114.677 173.028 114.609 172.988 114.569C172.948 114.529 172.88 114.509 172.784 114.509H172.16V114.221H173.912V120.329L175.544 118.337C175.632 118.241 175.688 118.165 175.712 118.109C175.744 118.053 175.76 117.981 175.76 117.893C175.76 117.789 175.72 117.713 175.64 117.665C175.568 117.609 175.472 117.581 175.352 117.581H175.04V117.293H177.488V117.581H177.104C176.888 117.581 176.696 117.637 176.528 117.749C176.36 117.861 176.168 118.049 175.952 118.313L175.04 119.429L176.912 122.093C177.008 122.229 177.092 122.329 177.164 122.393C177.236 122.449 177.336 122.477 177.464 122.477H177.704V122.765H175.16V122.477H175.472C175.576 122.477 175.656 122.461 175.712 122.429C175.768 122.389 175.796 122.325 175.796 122.237C175.796 122.149 175.784 122.077 175.76 122.021C175.736 121.965 175.696 121.893 175.64 121.805L174.464 120.125L173.912 120.797V122.213C173.912 122.309 173.932 122.377 173.972 122.417C174.012 122.457 174.08 122.477 174.176 122.477H174.56V122.765H172.16V122.477Z" fill="black"/>
<rect x="132.154" y="140.317" width="63.4677" height="24" rx="6.5" fill="#E0F2F1" stroke="#4DB6AC"/>
<path d="M152.137 157.682C151.817 157.682 151.521 157.574 151.249 157.358C150.977 157.142 150.761 156.858 150.601 156.506H150.553L150.049 157.538H149.833V149.546C149.833 149.45 149.813 149.382 149.773 149.342C149.733 149.302 149.665 149.282 149.569 149.282H148.945V148.994H150.697V152.954L150.745 152.966C150.865 152.678 151.049 152.434 151.297 152.234C151.545 152.026 151.825 151.922 152.137 151.922C152.513 151.922 152.861 152.05 153.181 152.306C153.509 152.554 153.769 152.898 153.961 153.338C154.153 153.778 154.249 154.266 154.249 154.802C154.249 155.338 154.153 155.826 153.961 156.266C153.769 156.706 153.509 157.054 153.181 157.31C152.861 157.558 152.513 157.682 152.137 157.682ZM152.005 157.346C152.397 157.346 152.693 157.126 152.893 156.686C153.093 156.246 153.193 155.618 153.193 154.802C153.193 153.986 153.093 153.358 152.893 152.918C152.693 152.478 152.397 152.258 152.005 152.258C151.765 152.258 151.545 152.346 151.345 152.522C151.145 152.698 150.985 152.942 150.865 153.254C150.753 153.558 150.697 153.89 150.697 154.25V155.354C150.697 155.714 150.753 156.05 150.865 156.362C150.985 156.666 151.145 156.906 151.345 157.082C151.545 157.258 151.765 157.346 152.005 157.346ZM155.278 157.25H155.782C155.878 157.25 155.946 157.23 155.986 157.19C156.026 157.15 156.046 157.082 156.046 156.986V152.618C156.046 152.522 156.026 152.454 155.986 152.414C155.946 152.374 155.878 152.354 155.782 152.354H155.278V152.066H156.91V153.266L156.958 153.278C157.126 152.862 157.342 152.534 157.606 152.294C157.878 152.046 158.166 151.922 158.47 151.922C158.774 151.922 159.022 152.01 159.214 152.186C159.406 152.362 159.502 152.602 159.502 152.906C159.502 153.082 159.438 153.254 159.31 153.422C159.19 153.59 159.034 153.674 158.842 153.674C158.69 153.674 158.562 153.634 158.458 153.554C158.354 153.474 158.302 153.362 158.302 153.218C158.302 153.05 158.382 152.906 158.542 152.786C158.614 152.738 158.666 152.694 158.698 152.654C158.738 152.614 158.758 152.562 158.758 152.498C158.758 152.426 158.722 152.37 158.65 152.33C158.586 152.282 158.494 152.258 158.374 152.258C158.126 152.258 157.886 152.378 157.654 152.618C157.43 152.858 157.25 153.17 157.114 153.554C156.978 153.938 156.91 154.338 156.91 154.754V156.986C156.91 157.082 156.93 157.15 156.97 157.19C157.01 157.23 157.078 157.25 157.174 157.25H157.678V157.538H155.278V157.25ZM162.72 157.682C162.28 157.682 161.876 157.554 161.508 157.298C161.14 157.034 160.848 156.682 160.632 156.242C160.424 155.802 160.32 155.322 160.32 154.802C160.32 154.282 160.424 153.802 160.632 153.362C160.848 152.922 161.14 152.574 161.508 152.318C161.876 152.054 162.28 151.922 162.72 151.922C163.16 151.922 163.564 152.054 163.932 152.318C164.3 152.574 164.588 152.922 164.796 153.362C165.012 153.802 165.12 154.282 165.12 154.802C165.12 155.322 165.012 155.802 164.796 156.242C164.588 156.682 164.3 157.034 163.932 157.298C163.564 157.554 163.16 157.682 162.72 157.682ZM162.72 157.394C163.2 157.394 163.544 157.17 163.752 156.722C163.96 156.266 164.064 155.626 164.064 154.802C164.064 153.978 163.96 153.342 163.752 152.894C163.544 152.438 163.2 152.21 162.72 152.21C162.24 152.21 161.896 152.438 161.688 152.894C161.48 153.342 161.376 153.978 161.376 154.802C161.376 155.626 161.48 156.266 161.688 156.722C161.896 157.17 162.24 157.394 162.72 157.394ZM166.745 153.062C166.633 152.798 166.529 152.614 166.433 152.51C166.345 152.406 166.201 152.354 166.001 152.354H165.725V152.066H168.317V152.354H167.945C167.833 152.354 167.745 152.386 167.681 152.45C167.625 152.514 167.597 152.594 167.597 152.69C167.597 152.794 167.621 152.91 167.669 153.038L169.013 156.278L169.829 153.674C169.853 153.602 169.873 153.526 169.889 153.446C169.905 153.366 169.913 153.298 169.913 153.242C169.913 153.098 169.861 152.914 169.757 152.69C169.709 152.578 169.653 152.494 169.589 152.438C169.533 152.382 169.453 152.354 169.349 152.354H168.989V152.066H171.581V152.354H171.101C170.869 152.354 170.753 152.474 170.753 152.714C170.753 152.802 170.785 152.93 170.849 153.098L171.965 156.278L172.937 153.434C172.969 153.338 172.997 153.23 173.021 153.11C173.053 152.99 173.069 152.894 173.069 152.822C173.069 152.51 172.925 152.354 172.637 152.354H172.349V152.066H174.533V152.354H174.257C174.081 152.354 173.917 152.414 173.765 152.534C173.621 152.646 173.509 152.822 173.429 153.062L171.797 157.682H171.581L170.141 153.746L168.893 157.682H168.677L166.745 153.062ZM175.282 157.25H175.786C175.882 157.25 175.95 157.23 175.99 157.19C176.03 157.15 176.05 157.082 176.05 156.986V152.618C176.05 152.522 176.03 152.454 175.99 152.414C175.95 152.374 175.882 152.354 175.786 152.354H175.282V152.066H176.914V153.05L176.962 153.062C177.146 152.678 177.374 152.394 177.646 152.21C177.918 152.018 178.218 151.922 178.546 151.922C179.13 151.922 179.542 152.102 179.782 152.462C180.03 152.822 180.154 153.254 180.154 153.758V156.986C180.154 157.082 180.174 157.15 180.214 157.19C180.254 157.23 180.322 157.25 180.418 157.25H180.922V157.538H178.522V157.25H179.026C179.122 157.25 179.19 157.23 179.23 157.19C179.27 157.15 179.29 157.082 179.29 156.986V153.53C179.29 153.178 179.218 152.878 179.074 152.63C178.938 152.382 178.702 152.258 178.366 152.258C178.086 152.258 177.834 152.358 177.61 152.558C177.394 152.75 177.222 153.018 177.094 153.362C176.974 153.698 176.914 154.074 176.914 154.49V156.986C176.914 157.082 176.934 157.15 176.974 157.19C177.014 157.23 177.082 157.25 177.178 157.25H177.682V157.538H175.282V157.25Z" fill="black"/>
<path d="M42.5138 155.433H43.3778C43.5938 155.433 43.7018 155.325 43.7018 155.109V147.981C43.7018 147.869 43.6738 147.789 43.6178 147.741C43.5698 147.685 43.4898 147.657 43.3778 147.657H42.5138V147.273H45.9338V147.657H45.1298C45.0178 147.657 44.9338 147.685 44.8778 147.741C44.8298 147.789 44.8058 147.869 44.8058 147.981V151.701L47.5658 148.881C47.6698 148.769 47.7458 148.657 47.7938 148.545C47.8418 148.433 47.8658 148.305 47.8658 148.161C47.8658 148.017 47.8138 147.897 47.7098 147.801C47.6058 147.705 47.4778 147.657 47.3258 147.657H47.0018V147.273H50.1698V147.657H49.6898C49.4258 147.657 49.0658 147.893 48.6098 148.365L46.5938 150.405L49.0418 154.905C49.1458 155.105 49.2618 155.245 49.3898 155.325C49.5178 155.397 49.7018 155.433 49.9418 155.433H50.3378V155.817H46.7138V155.433H47.5178C47.6058 155.433 47.6818 155.409 47.7458 155.361C47.8098 155.305 47.8418 155.245 47.8418 155.181C47.8418 155.133 47.8338 155.081 47.8178 155.025C47.8018 154.961 47.7818 154.913 47.7578 154.881L45.8018 151.209L44.8058 152.217V155.109C44.8058 155.325 44.9138 155.433 45.1298 155.433H45.9338V155.817H42.5138V155.433ZM53.8881 155.961C53.1441 155.961 52.5441 155.709 52.0881 155.205C51.6401 154.701 51.4161 154.001 51.4161 153.105C51.4161 152.593 51.5161 152.117 51.7161 151.677C51.9161 151.229 52.1921 150.873 52.5441 150.609C52.9041 150.337 53.3041 150.201 53.7441 150.201C54.2321 150.201 54.6321 150.333 54.9441 150.597C55.2561 150.861 55.4801 151.197 55.6161 151.605C55.7601 152.005 55.8321 152.417 55.8321 152.841C55.8321 152.929 55.8041 152.989 55.7481 153.021C55.6921 153.045 55.5961 153.057 55.4601 153.057H52.4721C52.4721 153.857 52.5841 154.493 52.8081 154.965C53.0401 155.437 53.4161 155.673 53.9361 155.673C54.3041 155.673 54.6481 155.533 54.9681 155.253C55.2961 154.973 55.5041 154.537 55.5921 153.945H55.8801C55.8321 154.529 55.6281 155.013 55.2681 155.397C54.9161 155.773 54.4561 155.961 53.8881 155.961ZM54.8001 152.769C54.8001 152.129 54.7161 151.589 54.5481 151.149C54.3801 150.709 54.1041 150.489 53.7201 150.489C53.3121 150.489 53.0001 150.713 52.7841 151.161C52.5761 151.601 52.4721 152.137 52.4721 152.769H54.8001ZM56.8156 155.529H57.3196C57.4156 155.529 57.4836 155.509 57.5236 155.469C57.5636 155.429 57.5836 155.361 57.5836 155.265V150.897C57.5836 150.801 57.5636 150.733 57.5236 150.693C57.4836 150.653 57.4156 150.633 57.3196 150.633H56.8156V150.345H58.4476V151.545L58.4956 151.557C58.6636 151.141 58.8796 150.813 59.1436 150.573C59.4156 150.325 59.7036 150.201 60.0076 150.201C60.3116 150.201 60.5596 150.289 60.7516 150.465C60.9436 150.641 61.0396 150.881 61.0396 151.185C61.0396 151.361 60.9756 151.533 60.8476 151.701C60.7276 151.869 60.5716 151.953 60.3796 151.953C60.2276 151.953 60.0996 151.913 59.9956 151.833C59.8916 151.753 59.8396 151.641 59.8396 151.497C59.8396 151.329 59.9196 151.185 60.0796 151.065C60.1516 151.017 60.2036 150.973 60.2356 150.933C60.2756 150.893 60.2956 150.841 60.2956 150.777C60.2956 150.705 60.2596 150.649 60.1876 150.609C60.1236 150.561 60.0316 150.537 59.9116 150.537C59.6636 150.537 59.4236 150.657 59.1916 150.897C58.9676 151.137 58.7876 151.449 58.6516 151.833C58.5156 152.217 58.4476 152.617 58.4476 153.033V155.265C58.4476 155.361 58.4676 155.429 58.5076 155.469C58.5476 155.509 58.6156 155.529 58.7116 155.529H59.2156V155.817H56.8156V155.529ZM61.7375 155.529H62.2415C62.3375 155.529 62.4055 155.509 62.4455 155.469C62.4855 155.429 62.5055 155.361 62.5055 155.265V150.897C62.5055 150.801 62.4855 150.733 62.4455 150.693C62.4055 150.653 62.3375 150.633 62.2415 150.633H61.7375V150.345H63.3695V151.329L63.4175 151.341C63.6015 150.957 63.8295 150.673 64.1015 150.489C64.3735 150.297 64.6735 150.201 65.0015 150.201C65.5855 150.201 65.9975 150.381 66.2375 150.741C66.4855 151.101 66.6095 151.533 66.6095 152.037V155.265C66.6095 155.361 66.6295 155.429 66.6695 155.469C66.7095 155.509 66.7775 155.529 66.8735 155.529H67.3775V155.817H64.9775V155.529H65.4815C65.5775 155.529 65.6455 155.509 65.6855 155.469C65.7255 155.429 65.7455 155.361 65.7455 155.265V151.809C65.7455 151.457 65.6735 151.157 65.5295 150.909C65.3935 150.661 65.1575 150.537 64.8215 150.537C64.5415 150.537 64.2895 150.637 64.0655 150.837C63.8495 151.029 63.6775 151.297 63.5495 151.641C63.4295 151.977 63.3695 152.353 63.3695 152.769V155.265C63.3695 155.361 63.3895 155.429 63.4295 155.469C63.4695 155.509 63.5375 155.529 63.6335 155.529H64.1375V155.817H61.7375V155.529ZM70.81 155.961C70.066 155.961 69.466 155.709 69.01 155.205C68.562 154.701 68.338 154.001 68.338 153.105C68.338 152.593 68.438 152.117 68.638 151.677C68.838 151.229 69.114 150.873 69.466 150.609C69.826 150.337 70.226 150.201 70.666 150.201C71.154 150.201 71.554 150.333 71.866 150.597C72.178 150.861 72.402 151.197 72.538 151.605C72.682 152.005 72.754 152.417 72.754 152.841C72.754 152.929 72.726 152.989 72.67 153.021C72.614 153.045 72.518 153.057 72.382 153.057H69.394C69.394 153.857 69.506 154.493 69.73 154.965C69.962 155.437 70.338 155.673 70.858 155.673C71.226 155.673 71.57 155.533 71.89 155.253C72.218 154.973 72.426 154.537 72.514 153.945H72.802C72.754 154.529 72.55 155.013 72.19 155.397C71.838 155.773 71.378 155.961 70.81 155.961ZM71.722 152.769C71.722 152.129 71.638 151.589 71.47 151.149C71.302 150.709 71.026 150.489 70.642 150.489C70.234 150.489 69.922 150.713 69.706 151.161C69.498 151.601 69.394 152.137 69.394 152.769H71.722ZM73.6175 155.529H74.2415C74.3375 155.529 74.4055 155.509 74.4455 155.469C74.4855 155.429 74.5055 155.361 74.5055 155.265V147.825C74.5055 147.729 74.4855 147.661 74.4455 147.621C74.4055 147.581 74.3375 147.561 74.2415 147.561H73.6175V147.273H75.3695V155.265C75.3695 155.361 75.3895 155.429 75.4295 155.469C75.4695 155.509 75.5375 155.529 75.6335 155.529H76.2575V155.817H73.6175V155.529Z" fill="black"/>
<circle cx="163.697" cy="183.17" r="1.25" transform="rotate(90 163.697 183.17)" fill="black"/>
<circle cx="163.697" cy="179.619" r="1.25" transform="rotate(90 163.697 179.619)" fill="black"/>
<circle cx="163.697" cy="176.067" r="1.25" transform="rotate(90 163.697 176.067)" fill="black"/>
<circle cx="258.367" cy="113.397" r="1.25" transform="rotate(90 258.367 113.397)" fill="black"/>
<circle cx="258.367" cy="109.846" r="1.25" transform="rotate(90 258.367 109.846)" fill="black"/>
<circle cx="258.367" cy="106.294" r="1.25" transform="rotate(90 258.367 106.294)" fill="black"/>
<path d="M214.708 77.7711V87.7711" stroke="black" stroke-linecap="round"/>
<path d="M219.708 82.7711L209.708 82.7711" stroke="black" stroke-linecap="round"/>
<rect x="1.32996" y="29.5719" width="115.813" height="134.745" rx="10.5" stroke="black" stroke-dasharray="2 2"/>
</svg>
